<?xml version="1.0" encoding="UTF-8" standalone="no"?><!DOCTYPE svg PUBLIC "-//W3C//DTD SVG 1.1//EN"
        "http://www.w3.org/Graphics/SVG/1.1/DTD/svg11.dtd">
<svg width="100%" height="100%" viewBox="0 0 640 640" version="1.1" xmlns="http://www.w3.org/2000/svg"
     xml:space="preserve"
     style="fill-rule:evenodd;clip-rule:evenodd;stroke-linejoin:round;stroke-miterlimit:2;">
<path id="thumb-down"
                                          d="M169.477,283.92l0.523,-30.186l26.972,-23.486l47.731,-44.279c15.981,-14.839 36.86,-23.151 58.557,-23.474l32.897,-0.49c32.796,-0.488 61.286,18.79 74.006,46.904l58.693,-0.874c1.931,-0.028 3.844,0.019 5.736,0.14l-0,48.3c-1.62,-0.316 -3.3,-0.471 -5.021,-0.445l-76.492,1.139c-11.998,0.178 -22.228,-8.47 -24.104,-20.244c-2.43,-15.465 -16.006,-27.165 -32.104,-26.925l-32.896,0.49c-9.899,0.147 -19.343,3.988 -26.644,10.698l-69.012,64.019l-38.842,-1.287Z"
                                          style="fill:#f20000;fill-rule:nonzero;"/></svg>