<?xml version="1.0" encoding="UTF-8" standalone="no"?><!DOCTYPE svg PUBLIC "-//W3C//DTD SVG 1.1//EN"
        "http://www.w3.org/Graphics/SVG/1.1/DTD/svg11.dtd">
<svg width="100%" height="100%" viewBox="0 0 640 640" version="1.1" xmlns="http://www.w3.org/2000/svg"
     xml:space="preserve"
     style="fill-rule:evenodd;clip-rule:evenodd;stroke-linejoin:round;stroke-miterlimit:2;">

    <g id="Layer1"><path d="M443.706,208l28.294,0l7.4,0.4c36.3,3.7 64.6,34.4 64.6,71.6c0,13.2 -3.6,25.4 -9.8,36c6.1,10.6 9.7,22.8 9.8,36c0,18.3 -6.9,34.8 -18,47.5c1.3,5.3 2,10.8 2,16.5c0,25.1 -12.9,47 -32.2,59.9c-1.9,35.5 -29.4,64.2 -64.4,67.7l-7.4,0.4l-104.1,0c-18,0 -35.9,-3.4 -52.6,-9.9l-7.1,-3l-0.7,-0.3l-6.6,-3.2l-0.7,-0.3l-12.2,-6.5l-1.134,-0.606l-1.127,-0.616l-1.677,-0.942l-1.66,-0.963l-1.642,-0.983l-1.313,-0.809l-1.554,-0.983l-1.178,-0.765l-0.98,-0.649l-0.457,-0.307c-4.772,-3.217 -9.308,-6.702 -13.599,-10.418l-1.268,-1.11l-0.387,-0.345l-0.948,-0.854l-1.15,-1.055l-0.815,-0.763l-0.303,-0.286c-0.574,-0.545 -1.144,-1.093 -1.708,-1.646c-0.036,0.237 -0.074,0.473 -0.113,0.712c-15.214,-12.712 -32.987,-31.571 -32.987,-51.527l-0,-164.752l37.8,-0l-0,111.567l0.2,7.9c2.4,32.7 21.4,62.1 50.7,77.7l11.5,6.1l6.3,3.1c12.4,5.6 25.8,8.5 39.4,8.5l104.1,-0l2.4,-0.1c12.1,-1.2 21.6,-11.5 21.6,-23.9l-0.2,-2.6c-0.1,-0.9 -0.2,-1.7 -0.4,-2.6c-2.7,-12.1 4.3,-24.2 16,-28c9.7,-3.1 16.6,-12.2 16.6,-22.8c-0,-4.3 -1.1,-8.2 -3.1,-11.8c-6.3,-11.1 -2.8,-25.2 8,-32c6.8,-4.3 11.2,-11.8 11.2,-20.2c-0,-7.1 -3.1,-13.5 -8.2,-18c-5.2,-4.6 -8.2,-11.1 -8.2,-18c-0,-6.9 3,-13.4 8.2,-18c5.1,-4.5 8.2,-10.9 8.2,-18l-0.1,-2.4c-1.1,-11.3 -10.1,-20.3 -21.4,-21.4l-2.4,-0.1l-28.494,-0l-0,-48.1Z" style="fill-rule:nonzero;"/><path
        id="thumb-up"
        d="M174,287.11l-0,-37.267c-0,-11.38 3.094,-22.679 7.532,-33.34l0.025,-0.057l-0.025,-0.015c0,0 1.667,-3.619 2.383,-5.064l47.685,-101.367l0.6,-1.2l2.7,-5l0.6,-0.9l0,-0.1c20.8,-34.8 65,-48.8 102.5,-31.2l7.2,3.8c34.8,20.9 48.8,65.1 31.2,102.6l-14.1,30l109.7,-0l2.592,0.14l-0,48.06l-2.392,-0.1l-147.5,0c-8.2,0 -15.8,-4.2 -20.2,-11.1c-4.4,-6.9 -5,-15.7 -1.5,-23.1l30,-64.3c7,-15 1.4,-32.7 -12.5,-41l-2.9,-1.6c-14.8,-6.9 -32.3,-1.6 -40.7,12l-2.2,4l-56.8,120.9c-3.5,7.5 -5.5,15.5 -6,23.7l-0.1,4.2l0,7.31l-37.8,-0Z"
        style="fill-rule:nonzero;"/><path id="thumb-down"
                                          d="M169.477,283.92l0.523,-30.186l26.972,-23.486l47.731,-44.279c15.981,-14.839 36.86,-23.151 58.557,-23.474l32.897,-0.49c32.796,-0.488 61.286,18.79 74.006,46.904l58.693,-0.874c1.931,-0.028 3.844,0.019 5.736,0.14l-0,48.3c-1.62,-0.316 -3.3,-0.471 -5.021,-0.445l-76.492,1.139c-11.998,0.178 -22.228,-8.47 -24.104,-20.244c-2.43,-15.465 -16.006,-27.165 -32.104,-26.925l-32.896,0.49c-9.899,0.147 -19.343,3.988 -26.644,10.698l-69.012,64.019l-38.842,-1.287Z"
                                          style="fill:#f20000;fill-rule:nonzero;"/></g>
    <path id="sleeve"
          d="M123.8,544.1c-30.9,0 -56,-25.1 -56,-56l0.2,-224.1c0,-30.103 23.822,-54.701 53.618,-55.95l0.023,-0.001l0.032,-0.001l0.164,-0.007l0.214,-0.007l0.058,-0.003l0.029,-0c0.142,-0.005 0.284,-0.009 0.427,-0.013l0.013,-0l0.075,-0.002l0.263,-0.006l0.067,-0.001l0.065,-0.001l0.1,-0.001l0.129,-0.002l0.141,-0.002l0.101,-0.001l0.058,-0l0.061,-0.001l0.325,-0.001l0.028,0l32.009,0l0.028,0l0.325,0.001l0.061,0.001l0.058,-0l0.101,0.001l0.141,0.002l0.13,0.002l0.099,0.001l0.065,0.001l0.067,0.001l0.263,0.006l0.075,0.002l0.013,0c0.142,0.004 0.284,0.008 0.427,0.013l0.029,0l0.058,0.003l0.214,0.007l0.164,0.007l0.032,0.001l0.023,0.001c29.796,1.249 53.618,25.847 53.618,55.95l0.2,224.1c0,30.9 -25.1,56 -56,56l-32.391,0Zm32.191,-288.1l-31.991,0c-4.4,0 -8,3.6 -8,8l0,224c0,4.4 3.6,8 8,8l31.991,0c4.4,0 8,-3.6 8,-8l0,-224c0,-4.4 -3.6,-8 -8,-8Z"
          style="fill:#00f800;fill-rule:nonzero;"/></svg>