<?xml version="1.0" encoding="UTF-8" standalone="no"?><!DOCTYPE svg PUBLIC "-//W3C//DTD SVG 1.1//EN"
        "http://www.w3.org/Graphics/SVG/1.1/DTD/svg11.dtd">
<svg width="100%" height="100%" viewBox="0 0 640 640" version="1.1" xmlns="http://www.w3.org/2000/svg"
     xml:space="preserve"
     style="fill-rule:evenodd;clip-rule:evenodd;stroke-linejoin:round;stroke-miterlimit:2;">
<path
        id="thumb-up"
        d="M174,287.11l-0,-37.267c-0,-11.38 3.094,-22.679 7.532,-33.34l0.025,-0.057l-0.025,-0.015c0,0 1.667,-3.619 2.383,-5.064l47.685,-101.367l0.6,-1.2l2.7,-5l0.6,-0.9l0,-0.1c20.8,-34.8 65,-48.8 102.5,-31.2l7.2,3.8c34.8,20.9 48.8,65.1 31.2,102.6l-14.1,30l109.7,-0l2.592,0.14l-0,48.06l-2.392,-0.1l-147.5,0c-8.2,0 -15.8,-4.2 -20.2,-11.1c-4.4,-6.9 -5,-15.7 -1.5,-23.1l30,-64.3c7,-15 1.4,-32.7 -12.5,-41l-2.9,-1.6c-14.8,-6.9 -32.3,-1.6 -40.7,12l-2.2,4l-56.8,120.9c-3.5,7.5 -5.5,15.5 -6,23.7l-0.1,4.2l0,7.31l-37.8,-0Z"
        style="fill-rule:nonzero;"/></svg>