<?xml version="1.0" encoding="UTF-8" standalone="no"?><!DOCTYPE svg PUBLIC "-//W3C//DTD SVG 1.1//EN"
        "http://www.w3.org/Graphics/SVG/1.1/DTD/svg11.dtd">
<svg width="100%" height="100%" viewBox="0 0 640 640" version="1.1" xmlns="http://www.w3.org/2000/svg"
     xml:space="preserve"
     style="fill-rule:evenodd;clip-rule:evenodd;stroke-linecap:round;stroke-linejoin:round;stroke-miterlimit:1.5;"><g id="Layer1"><path d="M443.706,208l28.294,0l7.4,0.4c36.3,3.7 64.6,34.4 64.6,71.6c0,13.2 -3.6,25.4 -9.8,36c6.1,10.6 9.7,22.8 9.8,36c0,18.3 -6.9,34.8 -18,47.5c1.3,5.3 2,10.8 2,16.5c0,25.1 -12.9,47 -32.2,59.9c-1.9,35.5 -29.4,64.2 -64.4,67.7l-7.4,0.4l-104.1,0c-18,0 -35.9,-3.4 -52.6,-9.9l-7.1,-3l-0.7,-0.3l-6.6,-3.2l-0.7,-0.3l-12.2,-6.5l-1.134,-0.606l-1.127,-0.616l-1.677,-0.942l-1.66,-0.963l-1.642,-0.983l-1.313,-0.809l-1.554,-0.983l-1.178,-0.765l-0.98,-0.649l-0.457,-0.307c-4.772,-3.217 -9.308,-6.702 -13.599,-10.418l-1.268,-1.11l-0.387,-0.345l-0.948,-0.854l-1.15,-1.055l-0.815,-0.763l-0.303,-0.286c-0.574,-0.545 -1.144,-1.093 -1.708,-1.646c-0.036,0.237 -0.074,0.473 -0.113,0.712c-15.214,-12.712 -32.987,-31.571 -32.987,-51.527l-0,-164.752l37.8,-0l-0,111.567l0.2,7.9c2.4,32.7 21.4,62.1 50.7,77.7l11.5,6.1l6.3,3.1c12.4,5.6 25.8,8.5 39.4,8.5l104.1,-0l2.4,-0.1c12.1,-1.2 21.6,-11.5 21.6,-23.9l-0.2,-2.6c-0.1,-0.9 -0.2,-1.7 -0.4,-2.6c-2.7,-12.1 4.3,-24.2 16,-28c9.7,-3.1 16.6,-12.2 16.6,-22.8c-0,-4.3 -1.1,-8.2 -3.1,-11.8c-6.3,-11.1 -2.8,-25.2 8,-32c6.8,-4.3 11.2,-11.8 11.2,-20.2c-0,-7.1 -3.1,-13.5 -8.2,-18c-5.2,-4.6 -8.2,-11.1 -8.2,-18c-0,-6.9 3,-13.4 8.2,-18c5.1,-4.5 8.2,-10.9 8.2,-18l-0.1,-2.4c-1.1,-11.3 -10.1,-20.3 -21.4,-21.4l-2.4,-0.1l-28.494,-0l-0,-48.1Z" style="fill-rule:nonzero;"/></g>
    <g id="Layer2">
        <path id="down" d="M450,232c0,-0 -13.18,0.412 -19.772,0.515c-9.428,0.147 -27.084,2.111 -36.232,-3.57c-9.147,-5.68 -4.496,-17.436 -17.483,-26.517c-17.087,-11.947 -20.381,-17.418 -60.765,-15.883c-46.616,1.772 -45.515,6.322 -76.45,37.057c-18.902,18.78 -30.456,27.253 -42.108,45.381c-8.778,13.655 -9.411,47.782 -9.411,47.782" style="fill:none;stroke:#0000f4;stroke-width:48px;"/>
        <path id="up"
              d="M450,232c0,-0 -65.581,0.343 -87.248,-0c-14.265,-0.226 -31.392,5.1 -35.384,-0.906c-3.992,-6.006 30.665,-59.275 31.632,-80.735c0.704,-15.611 2.351,-39.659 -31.704,-56.826c-36.369,-18.334 -63.533,8.598 -70.079,19.867c-17.418,29.982 -46.034,101.681 -63.619,139.71c-8.943,19.34 -5.819,63.655 -5.819,63.655"
              style="fill:none;stroke:#0000f4;stroke-width:48px;"/></g>
    <path id="sleeve"
          d="M123.8,544.1c-30.9,0 -56,-25.1 -56,-56l0.2,-224.1c0,-30.103 23.822,-54.701 53.618,-55.95l0.023,-0.001l0.032,-0.001l0.164,-0.007l0.214,-0.007l0.058,-0.003l0.029,-0c0.142,-0.005 0.284,-0.009 0.427,-0.013l0.013,-0l0.075,-0.002l0.263,-0.006l0.067,-0.001l0.065,-0.001l0.1,-0.001l0.129,-0.002l0.141,-0.002l0.101,-0.001l0.058,-0l0.061,-0.001l0.325,-0.001l0.028,0l32.009,0l0.028,0l0.325,0.001l0.061,0.001l0.058,-0l0.101,0.001l0.141,0.002l0.13,0.002l0.099,0.001l0.065,0.001l0.067,0.001l0.263,0.006l0.075,0.002l0.013,0c0.142,0.004 0.284,0.008 0.427,0.013l0.029,0l0.058,0.003l0.214,0.007l0.164,0.007l0.032,0.001l0.023,0.001c29.796,1.249 53.618,25.847 53.618,55.95l0.2,224.1c0,30.9 -25.1,56 -56,56l-32.391,0Zm31.191,-288.1l-30.991,0c-4.4,0 -8,3.6 -8,8l0,224c0,4.4 3.6,8 8,8l30.991,0c4.4,0 8,-3.6 8,-8l0,-224c0,-4.4 -3.6,-8 -8,-8Z"
          style="fill:#00f800;fill-rule:nonzero;"/></svg>