<?xml version="1.0" encoding="UTF-8" standalone="no"?><!DOCTYPE svg PUBLIC "-//W3C//DTD SVG 1.1//EN" "http://www.w3.org/Graphics/SVG/1.1/DTD/svg11.dtd"><svg width="100%" height="100%" viewBox="0 0 50 50" version="1.1" xmlns="http://www.w3.org/2000/svg" xmlns:xlink="http://www.w3.org/1999/xlink" xml:space="preserve" xmlns:serif="http://www.serif.com/" style="fill-rule:evenodd;clip-rule:evenodd;stroke-linejoin:round;stroke-miterlimit:2;"><rect x="0" y="-0" width="51.127" height="50" style="fill:#00afeb;"/><path id="front" d="M50,50l-50,-0l0,-37.069c0,0 2.978,0.548 5.614,0.395c2.19,-0.127 4.477,-1.053 6.392,-1.572c1.713,-0.464 3.811,-0.819 5.097,-1.54c1.112,-0.623 1.691,-2.524 2.619,-2.786c0.928,-0.261 1.885,1.251 2.947,1.217c0.194,-0.006 0.403,-0.056 0.623,-0.136l-0,-0.043c-0,-0 0.272,-0.107 0.692,-0.268c0.93,-0.474 1.956,-1.142 2.821,-1.039c0.367,-0.128 0.705,-0.239 0.975,-0.319c1.455,-0.431 3.038,-2.675 4.421,-2.722c1.384,-0.048 2.707,2.11 3.878,2.435c1.024,0.285 2.312,-0.957 3.152,-0.483c0.839,0.474 0.951,2.459 1.883,3.328c1.078,1.006 3.031,1.849 4.585,2.706c1.738,0.958 4.301,3.176 4.301,3.176l-0,34.72Z" style="fill:#6d6c13;"/><path id="front-flat" d="M50,50l-50,-0c0,-0 1.064,0.153 3.699,0c2.191,-0.127 4.198,0.519 6.113,-0c1.713,-0.464 4.273,0.721 5.559,-0c1.112,-0.623 2.808,0.261 3.736,-0c0.928,-0.261 2.394,0.033 3.456,-0c0.194,-0.006 0.611,0.126 0.729,-0.491l0.075,0.491c0,-0 0.235,0.161 0.655,-0c0.929,-0.474 1.947,-0.103 2.811,-0c0.515,1.476 0.732,0.08 1.002,0c1.454,-0.431 3.196,0.048 4.579,-0c1.384,-0.048 2.606,-0.325 3.778,-0c1.024,0.284 2.267,-0.474 3.106,-0c0.839,0.474 0.833,-0.869 1.765,-0c1.078,1.006 3.084,-0.857 4.638,0c1.737,0.958 4.299,0 4.299,0Z" style="fill:#6d6c13;"/><path id="Hill050" d="M0,50l0,-16.295c0,-0 1.252,0.555 2.284,0.511c1.071,-0.046 2.704,-0.601 3.368,-1.044c0.361,-0.241 0.346,-1.421 0.615,-1.616c0.269,-0.196 0.664,0.58 0.999,0.442c0.68,-0.28 2.107,-1.695 3.085,-2.126c0.9,-0.396 1.876,-0.106 2.783,-0.458c1.253,-0.487 3.448,-1.798 4.733,-2.463c0.992,-0.514 2.293,-1.364 2.978,-1.528c0.389,-0.092 0.739,0.48 1.13,0.549c0.402,0.071 0.981,0.038 1.287,-0.124c0.239,-0.126 0.293,-0.867 0.545,-0.848c0.274,0.022 0.705,0.772 1.104,0.977c0.571,0.294 1.56,0.763 2.32,0.784c0.758,0.021 1.488,-0.82 2.24,-0.655c0.916,0.202 2.434,1.67 3.261,1.864c0.578,0.135 1.342,-0.696 1.697,-0.704c0.199,-0.004 0.266,0.492 0.436,0.658c0.175,0.17 0.405,0.425 0.614,0.366c0.209,-0.059 0.385,-0.808 0.64,-0.723c0.279,0.095 0.619,1.097 1.039,1.288c0.624,0.284 1.968,0.588 2.708,0.419c0.642,-0.146 1.298,-1.347 1.733,-1.431c0.348,-0.067 0.563,0.69 0.882,0.927c0.664,0.494 2.553,1.37 3.102,2.035c0.326,0.394 -0.111,1.514 0.193,1.952c0.36,0.52 1.577,0.628 1.969,1.163c0.336,0.459 0.059,1.561 0.381,2.046c0.327,0.493 1.081,0.715 1.582,0.911c0.462,0.182 0.292,0.205 0.292,0.205l-0,12.918l-50,-0Z" style="fill:#1c592d;"/></svg>