<?xml version="1.0" encoding="UTF-8" standalone="no"?><!DOCTYPE svg PUBLIC "-//W3C//DTD SVG 1.1//EN"
        "http://www.w3.org/Graphics/SVG/1.1/DTD/svg11.dtd">
<svg width="100%" height="100%" viewBox="0 0 1500 400" version="1.1" xmlns="http://www.w3.org/2000/svg"
     xml:space="preserve"
     style="fill-rule:evenodd;clip-rule:evenodd;stroke-linejoin:round;stroke-miterlimit:2;"><path d="M363.6,35.6c1.667,0 3.333,0.167 5,0.5l0.4,0l0.9,0.2l2,0.6c6.7,2 12.4,6.5 16,12.5l0,0.1l0.1,0c1.2,2.133 2.2,4.367 3,6.7c0.683,2.577 1.019,5.234 1,7.9c0.133,3.733 -0.467,7.233 -1.8,10.5l-0.2,0.5c-2.499,6.465 -7.312,11.777 -13.5,14.9l-1.3,0.6c-3.625,1.592 -7.541,2.414 -11.501,2.414c-15.619,0 -28.498,-12.795 -28.599,-28.414c-0.002,-0.134 -0.003,-0.269 -0.003,-0.403c0,-15.539 12.665,-28.381 28.203,-28.597l0.3,0Zm27.2,20.2l0,0.3l0,-0.3Z" style="fill:#eee;fill-rule:nonzero;"/>
    <path d="M356.2,89.4l0.1,0.2l-0.1,-0.2Zm-0.5,-0.4c0.067,0.067 0.133,0.067 0.2,0l-0.2,0Zm-3.8,-1.8c0,0.333 0.1,0.467 0.3,0.4c0.2,-0.067 0.2,-0.133 0,-0.2l0,-0.2c-0.067,-0.2 -0.167,-0.2 -0.3,0m-2.2,-1c-0.1,0.2 0.2,0.8 0.5,0.9c0.333,-0.067 0.533,-0.233 0.6,-0.5c0,-0.2 -1,-0.5 -1,-0.4m0,-1.6l0.2,0.3c0.2,0 0.267,-0.067 0.2,-0.2c-0.133,-0.2 -0.233,-0.2 -0.3,0m1.6,-1.5c-0.133,0.2 0,0.433 0.4,0.7c0.7,0.4 1.3,0.4 0.8,0l-0.2,-0.5l0,-0.4l-0.1,0.1l-0.9,0.1Zm5.6,0.8l0.2,0l-0.2,0Zm-10.3,-0.6c0,0.133 0.067,0.233 0.2,0.3c0.267,0 0.367,-0.067 0.3,-0.2c0,-0.2 -0.5,-0.2 -0.5,0m7.8,-0.1c0.133,0.067 0.2,0.067 0.2,0c0,-0.2 -0.067,-0.233 -0.2,-0.1m2,-1c0,0.2 0.5,0.4 0.6,0.4l-0.1,-0.2c-0.333,-0.2 -0.5,-0.233 -0.5,-0.1m-3.5,-0.4l0.3,0.3l-0.3,-0.3Zm2.3,-0.4c0.2,0.4 0.1,0.533 -0.3,0.4c-0.2,-0.133 -0.233,-0.3 -0.1,-0.5l0.4,0.1Zm-5.4,-0.6l0.1,0.5l0.4,-0.1c0.2,-0.2 0.167,-0.3 -0.1,-0.3l-0.4,-0.1Zm0.6,-1.1l-0.2,-0l0.2,-0Zm-3.7,-0.4l0.5,0.2l-0.1,-0.2c-0.267,-0.2 -0.4,-0.2 -0.4,-0m14.8,-1.1c-0.067,0.133 -0.033,0.233 0.1,0.3c0.333,0.2 0.4,0.333 0.2,0.4c-0.2,0.067 -0.2,0.167 0,0.3c0.3,0.1 0.7,-0.5 0.4,-0.7l-0.2,-0.1c-0.067,-0.2 -0.233,-0.267 -0.5,-0.2m-6.2,0.7l0.2,0.3l0.1,-0.2c-0.067,-0.133 -0.167,-0.133 -0.3,-0m5.9,-0.3l-0.1,0.2l0.2,0.1c0.2,0.133 0.267,0.1 0.2,-0.1c0,-0.133 -0.1,-0.2 -0.3,-0.2m-10.6,0.2l-0.1,-0l0.1,-0Zm9.8,-0.2l0.3,-0l-0.3,-0Zm-8.7,-0.2l0.2,0.2l0,-0.1l-0.2,-0.1Zm7.9,-0.6l-0.1,0.1l0.1,-0.1Zm-9.9,-0l0,0.1m9.4,-0.4l0,0.4l0,-0.4Zm-8.8,0.3l-0.2,-0l0.2,-0Zm7.9,-0.2c-0.2,-0.067 -0.267,-0.133 -0.2,-0.2l0.2,0.2Zm1.3,-0.1c-0.2,-0.2 -0.333,-0.2 -0.4,-0c0.133,-0.2 0.267,-0.2 0.4,-0m3.3,-0.3l0,-0.5l0,0.5Zm-8,-0.5c0,0.267 -0.133,0.333 -0.4,0.2l0,-0.2c0.067,-0.133 0.2,-0.133 0.4,-0m7.1,0.1c-0.133,-0.067 -0.2,-0.067 -0.2,-0l0.2,-0Zm-2,-0l-0.1,-0m-9.2,-0.3c0.133,-0 0.167,0.033 0.1,0.1l-0.1,-0.1Zm-10.7,-0.5c0,0.267 0.1,0.433 0.3,0.5c0.2,-0.133 0.2,-0.3 0,-0.5c-0.2,-0.2 -0.3,-0.2 -0.3,-0m17.1,-1.3l0.3,0.1l0.1,0.8c-0.133,0.067 -0.133,0.233 0,0.5l0,0.3c-0.133,0.067 -0.3,-0.033 -0.5,-0.3c0,-0.267 -0.1,-0.433 -0.3,-0.5c-0.6,-0.333 -0.733,-0.633 -0.4,-0.9c0.133,-0.2 0.4,-0.2 0.8,-0m2,1.7l0.1,-0l-0.1,-0Zm-14.4,-0.6l0,0.2c0.133,-0 0.133,-0.067 0,-0.2m15.4,-0.3c0.133,0.2 0.133,0.333 0,0.4l-0.4,-0l0,-0.2c-0.2,-0.3 0.2,-0.3 0.4,-0m0.5,-0.2l0.1,-0m-14.8,-0.8c-0.4,0.2 -0.5,0.367 -0.3,0.5l0.3,0.1c0.2,0.2 0.267,0.133 0.2,-0.2c-0.067,-0.333 -0.167,-0.467 -0.3,-0.4m5.4,-0.1c0.267,-0 0.267,0.1 -0,0.3c-0.2,0.067 -0.4,0.033 -0.6,-0.1c-0.067,-0.2 -0,-0.3 0.2,-0.3l0.4,0.1Zm-2.8,0.1c0,0.133 0.067,0.133 0.2,-0c0.133,-0 0.133,-0.033 0,-0.1l-0.2,0.1Zm3.6,-0.2l0.2,-0l-0.2,-0Zm2,-0.1l-0.1,-0l0.1,-0Zm-7.9,-0c0.133,-0 0.133,-0.033 0,-0.1l0,0.1Zm6.4,-0.5c0.067,0.333 -0.033,0.5 -0.3,0.5c-0.4,-0.133 -0.467,-0.267 -0.2,-0.4l0.1,-0.1c0.067,-0.133 0.167,-0.133 0.3,-0m-1.8,-0.4c0.2,0.267 0.2,0.467 0,0.6c-0.2,0.267 -0.333,0.2 -0.4,-0.2l-0.2,-0.1c-0.267,-0.067 -0.267,-0.167 0,-0.3l0.3,-0c0,-0.2 0.1,-0.2 0.3,-0m12.1,0.5l0,0.2l0,-0.2Zm-2.5,-0.4l0,0.2l0,-0.2Zm-17.4,0.1l0,0.2l0,-0.2Zm11.7,-0.2c-0.133,0.267 -0.033,0.333 0.3,0.2c0.133,-0 0.133,-0.067 0,-0.2l-0.3,-0Zm4,-0.2l-0.1,0.4l-0.2,-0.4l0.3,-0Zm-14.3,-0l-0.1,0.3l-0.2,-0.3l0.3,-0Zm2.4,-0.3l-0.3,-0l0.3,-0Zm3.1,-0.1c-0.2,-0 -0.367,-0.1 -0.5,-0.3c0.067,0.2 0.2,0.267 0.4,0.2m-2.6,-0.3l0,0.2l0,-0.2Zm3.5,-0l-0.2,-0l0.2,-0Zm8.5,-0.2l0.2,0.1l-0.2,-0.1Zm-16,-0c0,0.067 0,0.067 0,-0m-5.4,-2.3c-0.6,0.7 -0.1,2.5 0.5,2.2c0.4,-0.2 0.4,-1.4 0,-1.8l-0.1,-0.3c-0.133,-0.333 -0.3,-0.333 -0.5,-0m24.3,2.2c0,-0.2 -0.1,-0.2 -0.3,-0l0.3,-0Zm-12.8,-0.2l0,0.2l0,-0.2Zm7.6,-0c0.133,0.067 0.133,0.133 0,0.2l-0.2,-0.3l0.2,0.1Zm27.4,-0.3l0,0.4l0.4,-0.4l-0.4,-0Zm-45.9,0.2c0,0.133 -0.067,0.2 -0.2,0.2c0.133,-0 0.2,-0.067 0.2,-0.2m24.6,-0.9l0.3,0.1c0.267,-0 0.433,0.1 0.5,0.3c0.067,0.2 0,0.267 -0.2,0.2c-0.133,-0 -0.2,0.067 -0.2,0.2c0,0.267 -0.1,0.3 -0.3,0.1l0,-0.3c0.133,-0.267 0.1,-0.467 -0.1,-0.6c-0.2,-0.133 -0.3,-0.067 -0.3,0.2c0,0.5 -0.5,0.4 -0.5,-0c0,-0.533 0.3,-0.667 0.9,-0.4m-4.7,0.2l0,0.2c0.267,0.2 0.133,0.367 -0.4,0.5c-0.667,0.067 -0.633,-0.2 0.1,-0.8c0.267,-0 0.367,0.033 0.3,0.1m5.1,-24.8l0.4,0.3c0.2,0.133 0.267,0.3 0.2,0.5c-0.2,0.267 0.033,0.433 0.7,0.5l0.3,-0l0,0.3l-0.1,0.4l0,0.2c0.133,0.067 0.133,0.2 0,0.4c-0.2,0.4 0.3,0.5 0.5,0.1l0.3,-0.4l0,0.2c0.133,-0 0.2,0.1 0.2,0.3l0.3,-0c0.467,-0 0.467,0.167 0,0.5l-0.3,0.5c0,0.467 0.067,0.533 0.2,0.2c0.133,-0.333 0.267,-0.433 0.4,-0.3l0.2,0.2c0.267,0.267 0.2,0.433 -0.2,0.5c-0.267,-0 -0.3,0.133 -0.1,0.4c0.133,0.533 0.067,0.9 -0.2,1.1c-0.2,0.067 -0.2,0.133 0,0.2l0.1,0.2l0.5,0.4l-0.3,0.1l-0.5,-0c0,-0.2 -0.1,-0.233 -0.3,-0.1c0,0.2 0.133,0.433 0.4,0.7c0.267,0.067 0.367,0.233 0.3,0.5c-0.1,0.2 -0.7,0.1 -0.7,-0.2c0,-0.2 -0.167,-0.367 -0.5,-0.5c-0.333,-0.133 -0.467,-0.033 -0.4,0.3l0,0.3l0.2,0.2c0.133,0.067 0.133,0.1 0,0.1l-0.2,0.2l-0.2,0.1l-0.1,-0.1c-0.4,-0.133 -0.533,-0.067 -0.4,0.2c0.133,0.267 0.1,0.467 -0.1,0.6c-0.133,-0 -0.2,0.133 -0.2,0.4c-0.067,0.133 -0.267,0.133 -0.6,-0c0,-0.2 -0.1,-0.3 -0.3,-0.3l-0.2,-0.3c-0.067,-0.2 -0.133,-0.2 -0.2,-0l0.2,0.4c0.267,0.2 0.2,0.333 -0.2,0.4l-0.4,-0c0,-0.4 -1,-0.5 -1.3,-0.3c-0.1,0.1 -1,0.4 -1.4,0.3c-0.4,-0 -0.433,0.167 -0.1,0.5l0.2,0.4l0,0.8c-0.467,0.467 -0.467,0.7 0,0.7c0.467,-0 0.633,0.067 0.5,0.2l0,0.1c0.133,0.267 0,0.4 -0.4,0.4l-0.4,0.1c0,0.267 0.1,0.4 0.3,0.4l0,0.2c0,0.133 0.1,0.2 0.3,0.2l0.2,0.2l-0.5,-0c-0.333,-0.2 -0.5,-0.1 -0.5,0.3l0,-0.1l-0.1,-0.2l-0.1,-0.3c0,-0.2 -0.3,-0.2 -0.9,-0l-0.5,0.2c-0.133,-0 -0.2,0.1 -0.2,0.3c0,0.5 -0.6,0.8 -0.8,0.5c-0.267,-0.267 -0.467,-0.267 -0.6,-0c0,0.2 -0.1,0.3 -0.3,0.3c-0.2,-0 -0.2,0.133 0,0.4l0,0.3l-0.2,0.3l-0.3,-0c-0.267,-0.267 -0.4,-0.3 -0.4,-0.1l0,0.7l0,-0.1c0.067,-0.2 0.233,-0.233 0.5,-0.1l0.6,0.3l0.1,0.4l0,0.3l1.6,-0l0,0.4l0.1,0.4l0,0.1c0,0.133 0.1,0.167 0.3,0.1c-0.133,-0.133 -0.133,-0.2 0,-0.2l0.1,0.2c0.133,0.067 0.133,0.133 0,0.2l0.2,0.4l0.1,0.5c0,0.2 0.1,0.267 0.3,0.2c0.2,-0.067 0.3,0.033 0.3,0.3l0.1,0.2c0.133,0.067 0.133,0.2 0,0.4c-0.3,-0 -0.3,0.6 0,0.6c0.133,-0 0.2,0.067 0.2,0.2l0.2,0.2l0,0.2c-0.3,0.3 -0.2,1 0,1l0.1,-0l0.1,-0.2l0,0.3l0.2,0.1l0.1,0.3c0.133,-0 0.233,0.133 0.3,0.4l0.1,0.7c0.067,0.2 0.033,0.333 -0.1,0.4l-0.2,0.1l0,0.2l-0.2,0.3c-0.133,0.2 -0.267,0.267 -0.4,0.2l0,-0.3c0.133,-0.2 0.133,-0.433 0,-0.7l-0.1,-0.2l-0.1,-0.1c-0.333,-0 -0.5,-0.2 -0.5,-0.6c0,-0.4 -0.1,-0.533 -0.3,-0.4c-0.4,-0 -0.667,-0.133 -0.8,-0.4l-0.1,-0l-0.1,-0.2l-0.4,-0.3l-0.2,-0.4l0,-0.6c0,-0.2 -0.067,-0.333 -0.2,-0.4c-0.133,-0.067 -0.133,-0.167 0,-0.3l0,-0.2l0.2,-0.2l0,-0.5c0,-0.533 -0.1,-0.8 -0.3,-0.8c-0.2,-0 -0.267,-0.1 -0.2,-0.3l-0.6,-0.6c-0.067,-0.2 -0.2,-0.267 -0.4,-0.2c-0.067,0.267 -0.033,0.567 0.1,0.9l0,0.3c0,0.2 -0.067,0.2 -0.2,-0l-0.1,-0l-0.3,-0.1c0,-0.067 -0.067,-0.067 -0.2,-0l-0.2,-0.1l-0.1,-0.3c-0.133,-0.067 -0.2,-0.2 -0.2,-0.4l0,-0.2c-0.2,-0.133 -0.2,-0.233 0,-0.3c0.333,-0 0.433,-0.1 0.3,-0.3c-0.133,-0.2 -0.367,-0.1 -0.7,0.3c0,0.2 -0.067,0.3 -0.2,0.3l0,0.5c-0.133,-0 -0.2,-0.067 -0.2,-0.2c0,-0.267 -0.133,-0.4 -0.4,-0.4c-0.2,-0 -0.267,-0.1 -0.2,-0.3c0.2,-0.1 0.2,-0.6 0.1,-0.7l-0.5,-0c-1,-0 -1.367,-0.1 -1.1,-0.3l0,-0.1l-0.2,0.1c0,0.2 -0.1,0.2 -0.3,-0c-0.067,-0.267 -0.233,-0.333 -0.5,-0.2c-0.267,-0 -0.267,-0.1 0,-0.3c0,-0.133 0.167,-0.167 0.5,-0.1l0.4,-0l0,-0.1c0.267,-0.467 0.5,-0.467 0.7,-0c0,0.4 0.167,0.467 0.5,0.2l-0.1,-0.2l0.1,-0.4l0.4,-0.6l-1.6,-0c-0.067,0.2 -0.167,0.233 -0.3,0.1c0,-0.133 0.167,-0.2 0.5,-0.2c0.3,-0 0.7,-0.4 0.3,-0.4c-0.467,-0 -0.733,-0.067 -0.8,-0.2l0,-0.1c0.133,-0 0.133,-0.067 0,-0.2l0,-0.2l-0.2,-0.1c-0.133,-0 -0.2,-0.1 -0.2,-0.3c0,-0.267 -0.1,-0.4 -0.3,-0.4c-0.2,-0.133 -0.167,-0.267 0.1,-0.4c0.6,-0.267 0.767,-0.4 0.5,-0.4l-0.2,-0.2l-0.4,-0.2c-0.333,-0.067 -0.3,-0.2 0.1,-0.4l0.7,-0.3l0.8,-0.2l0.1,-0.3l0.4,-0.8l0.1,0.1c0.067,0.2 0.233,0.2 0.5,-0c0.2,-0 0.3,0.1 0.3,0.3c0,0.267 0.1,0.433 0.3,0.5l0.2,-0c0,0.133 0.067,0.133 0.2,-0l0.3,-0l0.2,-0.1c0.067,-0.133 0.167,-0.2 0.3,-0.2l0.3,0.1l1,-0c0,-0.2 0.067,-0.3 0.2,-0.3c0.2,-0.133 0.333,-0.4 0.4,-0.8l0,-0.2l0.1,0.2c0,0.2 0.067,0.333 0.2,0.4c0.133,-0 0.2,0.067 0.2,0.2c0.067,0.333 0.3,0.367 0.7,0.1l0.8,-0.3l0,0.2c0,0.333 0.067,0.4 0.2,0.2l0.2,-0.1c0.133,-0 0.2,-0.1 0.2,-0.3c0.1,-0.2 0.2,-0.3 1.4,-0.5c0.333,-0.067 0.5,-0.267 0.5,-0.6l0,-0.1l0.3,-0c0.333,-0 0.5,-0.067 0.5,-0.2l0.3,-0.3l0.2,-0.4l0.1,-0l0.4,-0.8l-0.2,-0.2l-0.2,-0.3c0.2,-0.333 0.067,-0.433 -0.4,-0.3l-1,-0l-0.2,-0.2l0,-0.3l-0.4,-0l-0.2,-0.1l-0.9,-0.9l0.3,-0c0,0.133 0.067,0.133 0.2,-0c0.267,-0.133 0.333,-0.267 0.2,-0.4c-0.2,-0 0.3,-0.4 0.5,-0.4l0.6,0.1c0.2,0.2 0.8,0.1 0.8,-0c0.067,-0.333 0.167,-0.333 0.3,-0c-0.067,0.133 0.067,0.233 0.4,0.3l0.5,0.2l0,0.7l-0.3,-0c0,0.133 0.1,0.133 0.3,-0c0.267,-0.2 0.467,-0.2 0.6,-0c0.267,0.4 0.467,0.4 0.6,-0l0.2,-0.1l0.6,-0.5l0.1,-0.4c0.067,-0.333 0,-0.433 -0.2,-0.3l-0.3,-0c-0.133,-0.133 -0.367,-0.233 -0.7,-0.3c-0.6,-0 -0.933,-0.1 -1,-0.3c-0.067,-0.267 -0.3,-0.267 -0.7,-0c-0.133,0.067 -0.267,-0.067 -0.4,-0.4c0,-0.133 -0.1,-0.2 -0.3,-0.2c-0.267,-0 -0.4,-0.067 -0.4,-0.2l0.9,-0c0.1,-0 0.6,-0.2 0.6,-0.4l0.4,-0.2c0.133,-0 0.2,-0.067 0.2,-0.2c0,-0.133 -0.1,-0.2 -0.3,-0.2l-0.1,-0l-0.3,-0.2l-0.4,-0.3l-0.2,-0.1l0,-0.2l0.3,-0c0,0.2 0.5,-0 0.5,-0.3c0.133,-0.4 0.367,-0.433 0.7,-0.1m-18.3,25.1c0.2,0.2 0.333,0.267 0.4,0.2l-0.4,-0.2Zm-3.1,0.2l0.1,-0m40.1,-0.2l0.2,-0c-0.067,-0.067 -0.133,-0.067 -0.2,-0m-20.1,-0l-0.1,-0l-0,-0.2l0.1,0.2Zm-14,-0l0.1,-0m-2.7,-0.2c0.133,-0 0.233,0.067 0.3,0.2l-0.3,-0.2Zm9.3,0.2l0.1,-0m-16,-0.2c-0,-0.467 -0.067,-0.667 -0.2,-0.6l0.2,0.6Zm43.8,-5.1l-0.6,-0c-0.2,-0 -0.267,0.067 -0.2,0.2c0.067,0.133 0.167,0.2 0.3,0.2l0.4,0.1l0.2,0.2l-0.1,-0l-0.1,0.2l-0.4,0.4l-0.1,0.3l-0,0.2l-0.1,0.3c-0.2,-0 -0.3,0.1 -0.3,0.3c-0,0.2 0.067,0.267 0.2,0.2l0.7,0.2c-0,0.2 -0.1,0.333 -0.3,0.4l-0.2,0.2c-0.133,0.333 -0.1,0.5 0.1,0.5l0.3,0.2c-0,0.133 0.067,0.233 0.2,0.3c0.133,0.067 0.333,0.233 0.6,0.5c0.2,0.133 0.333,0.033 0.4,-0.3c-0,-0.267 0.133,-0.333 0.4,-0.2c-0,0.2 0.167,0.233 0.5,0.1l-0,-0.9l-0.2,-1.2l-0,-0.2l-0.2,0.2c-0.267,0.2 -0.467,0.2 -0.6,-0l-0,-0.8c-0.133,-0.2 -0.133,-0.3 -0,-0.3l0.2,-0l-0,-0.3l-0.1,-0.3l-0,-0.1c0.133,-0.2 0.067,-0.333 -0.2,-0.4l-0.4,-0.1c-0.267,-0.2 -0.4,-0.2 -0.4,-0m-31.1,4.8l-0.1,-0m0.2,-0l-0.1,-0m1.7,-3.1l-0.2,0.3c-0.133,0.2 -0.133,0.3 -0,0.3c0.267,-0.067 0.3,0.1 0.1,0.5l-0.1,0.6l-0,0.8c-0,0.4 -0.167,0.467 -0.5,0.2c-0.333,-0.267 -0.4,-0.467 -0.2,-0.6c0.133,-0.133 0.133,-0.2 -0,-0.2c-0.533,-0 -0.8,-0.233 -0.8,-0.7c-0.067,-0.267 0.067,-0.433 0.4,-0.5l0.5,-0c0.067,0.133 0.133,0.067 0.2,-0.2c0.067,-0.467 0.233,-0.7 0.5,-0.7l0.1,0.2Zm0.9,2.9l-0.2,-0l0.2,-0Zm33.7,-1.8l-0.2,0.1c-0.3,-0 -0.3,0.6 -0,0.7c0.067,0.2 0.067,0.467 -0,0.8c-0,0.2 0.1,0.233 0.3,0.1l0.2,-0c0.333,-0 0.5,-0.333 0.5,-1c-0,-0.667 -0.1,-0.867 -0.3,-0.6l-0.3,-0l-0.2,-0.1Zm-31.8,1.6l0.1,-0m-18.1,0.1l0.1,-0l-0.1,-0Zm18.2,-0.2l0.1,0.1l-0.1,-0.1Zm-15.3,0.1l-0,-0.1m7.4,-0l-0.1,-0l0.1,-0Zm13.2,-0.3l-0,0.3l-0,-0.3Zm-9.4,-0.1c0.133,0.067 0.133,0.133 -0,0.2c-0.267,-0.067 -0.4,-0.2 -0.4,-0.4l0.4,0.2Zm-11.4,0.2l-0,-0.2l-0,0.2Zm45.7,-0.5c-0.2,-0 -0.2,0.1 -0,0.3l0.3,-0c-0,-0.2 -0.1,-0.3 -0.3,-0.3m-38,0.1c-0.2,-0 -0.233,-0.067 -0.1,-0.2l0.1,0.2Zm12.9,-0.1c-0,0.133 -0.1,0.133 -0.3,-0l0.1,-0.2c0.133,-0 0.2,0.067 0.2,0.2m-10.3,-0.1c-0,0.133 -0.1,0.133 -0.3,-0l0.1,-0.2l0.2,0.2Zm-14.4,-0.5c-0.133,0.267 -0.133,0.467 -0,0.6c0.267,-0 0.367,-0.067 0.3,-0.2c-0,-0.333 -0.1,-0.467 -0.3,-0.4m46.3,0.2c0.2,0.333 0.133,0.433 -0.2,0.3c-0.2,-0.133 -0.2,-0.233 -0,-0.3l0.2,-0Zm-39.1,0.3l-0.1,-0.1m12.2,-0.3l-0,0.2l-0,-0.2Zm30,-1.1l-0.2,0.1c-0.133,-0 -0.167,0.1 -0.1,0.3l-0,0.3l0.2,0.4l-0,-0.2c0.3,-0.4 0.3,-1.1 -0,-0.9m-31,0.9l-0.1,0.2l0.1,-0.2Zm7.9,-0.2c0.2,-0 0.267,-0.067 0.2,-0.2c-0.133,-0.2 -0.2,-0.2 -0.2,-0m18.5,-0.1c0.067,0.2 0.2,0.233 0.4,0.1c-0,-0.133 -0.033,-0.167 -0.1,-0.1l-0.3,-0Zm8.2,-0.9l-0,1c0.2,-0.133 0.267,-0.333 0.2,-0.6l-0.2,-0.4Zm-50,0.7l0.2,0.3l-0.2,-0.3Zm18,-0c-0,0.267 0.033,0.267 0.1,-0l-0,0.3l-0.1,-0.3Zm31.1,-0.6l-0,0.5c0.2,0.2 0.267,0.1 0.2,-0.3c-0,-0.2 -0.067,-0.267 -0.2,-0.2m-28.1,0.6l-0,0.3m-4.6,-0.4l-0,0.3c-0.133,-0 -0.2,-0.067 -0.2,-0.2c-0,-0.333 0.067,-0.333 0.2,-0m-6.4,0.3l-0,-0.1m-10.5,-0.4c-0.067,0.067 -0.133,0.067 -0.2,-0c-0,-0.067 0.033,-0.067 0.1,-0m43.7,-0l-0.3,-0l0.2,-0m-28.2,-0l-0.1,-0m-2.2,-0.3l0.2,0.2l-0.2,-0c-0.267,0.2 -0.4,0.2 -0.4,-0c-0,-0.333 0.133,-0.4 0.4,-0.2m38.3,-0.3c-0.133,0.267 -0.133,0.433 -0,0.5c0.133,0.067 0.2,0.033 0.2,-0.1c-0,-0.333 -0.067,-0.467 -0.2,-0.4m-44,0.6l-0.1,-0.2l0.1,0.2Zm-3.6,-0.2l-0.2,-0l0.2,-0Zm9.4,-0.4l0.1,0.2l-0.1,-0.2Zm30.9,-0l-0,0.2c0.133,-0 0.2,-0.067 0.2,-0.2c-0.067,-0.067 -0.133,-0.067 -0.2,-0m-27.3,-0.8c0.2,0.133 0.2,0.4 -0,0.8c-0.067,0.133 -0.167,0.133 -0.3,-0c-0,-0.333 -0.1,-0.533 -0.3,-0.6l-0.1,-0.1l0.2,-0.1c0.2,-0.133 0.367,-0.133 0.5,-0m-3.4,0.8l0.2,-0l-0.2,-0Zm33.9,-0.2c0.067,0.2 0.133,0.2 0.2,-0l-0.2,-0Zm-39.6,-0l-0,-0.2c-0,-0.267 -0.067,-0.3 -0.2,-0.1c0.2,-0.133 0.267,-0.033 0.2,0.3m4.1,-0.9l0.1,0.4c0.067,0.267 0.033,0.4 -0.1,0.4c-0.133,0.067 -0.2,-0.067 -0.2,-0.4l-0,-0.1l0.2,-0.5l-0,0.2Zm33.1,0.7l-0.3,-0c-0.267,-0 -0.3,0.133 -0.1,0.4c0.267,0.2 0.433,0.2 0.5,-0l0.1,-0.2l0.2,-0.2c-0.133,-0.133 -0.267,-0.133 -0.4,-0m-31.7,-0.2l-0,0.3l0.2,0.2l-0.1,0.2c-0.4,-0.133 -0.533,-0.367 -0.4,-0.7l0.3,-0Zm-1,0.7l-0,-0.2l-0,0.2Zm3.5,-0.3l0.1,0.2l-0.1,-0.2Zm4.9,-0.4c-0,0.267 -0.033,0.333 -0.1,0.2c-0.067,-0 -0.067,-0.067 -0,-0.2c-0,-0.267 -0,-0.267 -0,-0m-8,0.2l-0.2,-0l0.2,-0Zm36.6,-0.2c-0,0.133 0.033,0.133 0.1,-0l-0.1,-0Zm-2.5,-1.2c-0,0.2 0.067,0.367 0.2,0.5l0.6,0.6c-0,0.2 0.033,0.167 0.1,-0.1c0.133,-0.467 0.067,-0.667 -0.2,-0.6c-0.267,0.067 -0.5,-0.067 -0.7,-0.4c-0,-0.2 -0,-0.2 -0,-0m4.3,0.7l0.2,-0.1l-0.2,0.1Zm-31,-0.5l-0,0.3c-0.2,-0 -0.3,-0.1 -0.3,-0.3l0.3,-0Zm-8.6,-0l-0,0.2l-0.2,-0.2l0.2,-0Zm2.3,-0.3c0.2,0.333 0.133,0.5 -0.2,0.5c-0.333,-0 -0.467,-0.1 -0.4,-0.3c-0,-0.333 0.2,-0.4 0.6,-0.2m6.7,-0.4c-0,0.133 -0.067,0.233 -0.2,0.3l-0.2,-0c-0,0.2 -0.133,0.2 -0.4,-0c-0.2,-0 -0.133,-0.1 0.2,-0.3l0.6,-0Zm-9.3,0.4l-0.1,-0l0.1,-0Zm35.9,-0.1l0.3,-0l-0.3,-0Zm-34.7,0.1c0.2,0.333 0.1,0.4 -0.3,0.2l-0.1,-0l-0,-1.2c0.2,-0.2 0.333,-0.2 0.4,-0m-3.4,-5.3l-0,0.6l0.2,0.3l0.2,0.4l0.2,0.5c-0,0.467 0.067,0.7 0.2,0.7l0.3,0.3c-0,0.267 -0.1,0.367 -0.3,0.3c-0.2,-0 -0.3,0.1 -0.3,0.3l-0.2,0.9l-0,0.5c-0,0.333 -0.067,0.533 -0.2,0.6c-0.4,0.4 -0.7,-0 -0.4,-0.3c0.2,-0.2 0.2,-0.333 -0,-0.4l-0.4,-0.8l-0.1,-0c-0,0.2 -0.1,0.367 -0.3,0.5c-0.133,-0 -0.133,-0.133 -0,-0.4c-0,-0.133 -0.1,-0.2 -0.3,-0.2l-0.3,-0.1l-0.4,-0.4l-0.2,-0.1l0.3,-0.6c-0.067,-0.2 -0,-0.4 0.2,-0.6l0.2,-0.2l-0,-0.7c-0.267,-0.267 -0.2,-0.367 0.2,-0.3c0.4,-0 0.6,0.1 0.6,0.3l0.1,-0c0.133,-0 0.233,-0.2 0.3,-0.6l-0,-0.6l0.4,0.1Zm2.1,5.4l-0,0.1l-0,-0.1Zm0.1,-0l-0,0.1l-0,-0.1Zm-11.8,-0l-0,0.1m23.8,-0.2l-0.3,0.2l0.3,-0l0.2,-0.1c0.4,-0 0.533,-0.1 0.4,-0.3c-0.267,-0 -0.467,0.067 -0.6,0.2m-16,0.1l-0,-0.2l-0,0.2Zm41.7,-0.5l-0.2,-0l0.2,-0Zm-38.1,-0.1l-0,0.1c-0.2,-0 -0.267,-0.067 -0.2,-0.2c0.067,-0.133 0.133,-0.133 0.2,-0m-9.9,-0.2c-0.133,0.2 -0.3,0.3 -0.5,0.3l0.5,-0.3Zm7.1,0.1l-0.1,-0m-7.1,-0.4l-0.2,0.2l-0.2,0.3l-0,-0.4c0.2,-0.133 0.333,-0.133 0.4,-0m1,0.2l-0.1,-0l-0.1,0.2l0.2,-0.2Zm46.1,0.1l-0.1,-0l0.1,-0Zm-0.8,-0.1l-0.2,-0.1l0.2,0.1Zm-46,-0.3l-0.2,0.4l0.2,-0.4Zm-0.5,-0.3c-0.2,0.133 -0.333,0.3 -0.4,0.5l0.2,-0.3l0.2,-0.2Zm1,0.4l-0,0.2l-0,-0.2Zm46.3,0.2l-0.1,-0m-36.5,-0.5l-0.3,0.3l-0,-0.5l0.3,0.2Zm-8.9,-0l-0,0.2l-0,-0.1m12,-0.4l-0,0.2c0.067,0.2 0.133,0.233 0.2,0.1c0.1,-0 -0,-0.4 -0.2,-0.3m3.4,-0.1c0.2,0.467 0.133,0.567 -0.2,0.3c-0.333,-0.267 -0.433,-0.433 -0.3,-0.5c0.2,-0.2 0.367,-0.133 0.5,0.2m31.1,0.4l-0.2,-0l0.2,-0Zm-42.8,-0l-0,-0m14.6,-0.3l-0.1,0.2c-0.2,-0 -0.267,-0.1 -0.2,-0.3l0.3,0.1Zm-1.5,0.2c-0.267,-0.2 -0.433,-0.267 -0.5,-0.2l0.5,0.2Zm-2.3,-0.9l-0,0.4l0.1,0.1l-0.2,-0.1c-0.2,-0.2 -0.233,-0.333 -0.1,-0.4l-0,-0.2l0.1,-0.1l0.1,0.3Zm7.5,0.3l-0.1,0.1m2.5,-0.3l-0,0.4c-0.2,-0 -0.3,-0.1 -0.3,-0.3c-0,-0.267 0.1,-0.3 0.3,-0.1m-16.3,0.2l-0.6,-0l0.2,-0c0.2,-0.133 0.333,-0.133 0.4,-0m39.8,-0.3l-0,0.3l-0.2,-0l0.1,-0.5l0.1,0.2Zm-30,0.2l-0.2,-0c-0.067,-0.067 -0.067,-0.133 -0,-0.2l0.2,0.2Zm-14,-0l-0.1,-0m18.9,-0.4l-0.3,0.3l-0,-0.2c0.067,-0.4 0.167,-0.433 0.3,-0.1m-19,0.4l-0.3,-0.1l0.3,0.1Zm8.3,-0.6c-0.267,0.2 -0.3,0.367 -0.1,0.5l0.5,-0.5c-0,-0.2 -0.133,-0.2 -0.4,-0m2.6,0.4c-0.133,-0 -0.167,-0.033 -0.1,-0.1l0.1,0.1Zm0.9,-0.7l0.2,0.1c0.067,0.333 -0.1,0.4 -0.5,0.2c-0.467,-0.267 -0.467,-0.4 -0,-0.4l0.3,0.1Zm-20.7,-0.4l-0,0.5c-0,0.2 -0.033,0.133 -0.1,-0.2c-0,-0.4 0.033,-0.5 0.1,-0.3m4.3,0.6l-0.1,-0.2l0.1,0.2Zm21.5,-0l-0.1,-0m-1.5,-0l-0.1,-0m25.9,-0.6l-0,0.1m-30.2,0.1l-0.2,-0l0.2,-0Zm-0,-0c0.133,-0 0.133,-0 -0,-0m-1.3,-0.4l-0.1,0.4c0.267,-0 0.367,-0.1 0.3,-0.3c-0,-0.133 -0.067,-0.167 -0.2,-0.1m24.8,0.2l-0,0.1m5.1,-0.1l-0,0.2l-0,-0.2Zm-30.9,-0.1c-0,0.2 0.067,0.3 0.2,0.3c0.133,-0 0.167,-0.067 0.1,-0.2c-0.067,-0.133 -0.167,-0.133 -0.3,-0m-6.3,0.2c-0,-0.133 -0.033,-0.133 -0.1,-0m37.6,-0.1l-0.2,-0.1l0.2,0.1Zm1.7,-0.2l-0,0.1l-0,-0.1Zm-43.7,-0l-0,0.1l-0,-0.1Zm7,-0.5c0.133,-0 0.133,0.067 -0,0.2c-0,0.2 -0.067,0.2 -0.2,-0c-0.133,-0.267 -0.067,-0.333 0.2,-0.2m-5.8,0.4l-0,-0.4m17.6,-0.2l0.2,0.1l-0.2,-0.1Zm-6.1,-0.3l0.1,0.4l0.3,-0.4l-0.4,-0Zm32.7,0.2l-0,0.1m-43.3,-0c-0,0.067 -0,0.067 -0,-0m-1.2,-0.4l-0,0.4l-0,-0.4Zm22,-0.2l-0.2,0.5c0.267,0.133 0.4,-0 0.4,-0.4c-0,-0.2 -0.067,-0.233 -0.2,-0.1m-1.1,0.4l-0,0.1l0.2,-0l-0.2,-0.1Zm25.5,-0.3c-0,0.267 0.067,0.4 0.2,0.4l-0,-0.5l-0.2,-0.2l-0,0.3Zm-0.6,-0.7l-0,0.7l-0.2,-0.1l-0,-0.5c-0,-0.2 0.067,-0.233 0.2,-0.1m-46.6,0.6l-0.2,-0l0.2,-0Zm-0.5,-0.1l-0,0.1l-0,-0.1Zm42.3,-0l-0,0.1m-24.2,-0l-0.2,-0l0.2,-0Zm19.4,-0.2l-0,0.2l-0,-0.2Zm7.4,-0.3l-0,0.5l-0,-0.5Zm-7.3,0.3l0.1,0.1l-0.1,-0.1Zm4.1,-0.2c-0,0.2 -0.067,0.3 -0.2,0.3c-0.133,-0.067 -0.133,-0.2 -0,-0.4l0.2,0.1Zm-35.1,-0l-0,0.3l-0,-0.3Zm-6.3,0.2l-0.2,-0l0.2,-0Zm18.2,-0.2c0.2,-0 0.233,0.067 0.1,0.2l-0.1,-0.2Zm23.7,0.1l-0,-0.1m-41.2,-0l0.2,-0l-0.2,-0Zm-6.4,-0.1l0.2,-0.2l-0.2,0.2Zm48.2,-0c-0,-0.2 -0.067,-0.3 -0.2,-0.3l0.2,0.3Zm-36.5,-0.1l-0.2,-0l0.2,-0Zm32.6,-0l-0.2,-0l0.2,-0Zm3,-1c-0,0.2 0.033,0.267 0.1,0.2c0.333,-0 0.433,0.2 0.3,0.6c-0.267,0.267 -0.467,0.2 -0.6,-0.2l-0,-0.6l0.2,-0Zm-37,0.8l0.5,-0l-0.5,-0Zm-0.6,-0.7l-0,0.5c-0.333,0.267 -0.5,0.3 -0.5,0.1l0.1,-0.4c-0,-0.267 0.1,-0.4 0.3,-0.4l0.1,0.2Zm-9.3,0.4l-0.1,0.3l0.1,-0.3Zm5,0.2l-0.2,-0l0.2,-0Zm32.4,-0.4l0.2,0.2l-0.2,-0.2Zm-25.8,-0.4l-0.2,0.3l-0.2,0.2l-0.1,-0.2c-0.2,-0.067 -0.2,-0.167 -0,-0.3l0.5,-0Zm36.5,-1.3c0.333,0.867 0.2,1.2 -0.4,1c-0.333,-0.133 -0.533,-0.033 -0.6,0.3l-0,0.2l-0,-0.3l-0.3,-0.4c-0.2,-0.267 -0.2,-0.433 -0,-0.5l0.2,-0.1c-0,-0.133 0.067,-0.233 0.2,-0.3l0.2,-0c0.2,-0.267 0.433,-0.233 0.7,0.1m-10,1.5l-0.1,-0.3l-0.3,-0.2c0.267,-0 0.4,0.167 0.4,0.5m-23.9,-0.7c0.133,0.333 0.367,0.567 0.7,0.7c0.133,-0 0.133,-0.067 -0,-0.2c-0.133,-0.133 -0.133,-0.3 -0,-0.5l-0.3,-0.1l-0.4,0.1Zm1.1,0.3l-0,0.3c0.2,-0 0.2,-0.1 -0,-0.3m-1.8,-0l0.3,0.3l-0,-0.2c-0.133,-0.133 -0.233,-0.133 -0.3,-0m29.6,-0l-0,0.2l-0,-0.2Zm-34.2,-0l-0.2,-0l0.1,-0.1l0.1,0.1Zm21,-0.4l0.2,-0l-0.2,-0Zm20.3,-0.4l0.3,0.4l-0.3,-0.4Zm-41.1,0.3l-0.1,-0l0.1,-0Zm22.8,-0l-0.1,-0l-0,0.1m-30.9,-0.3c-0,0.333 -0.067,0.433 -0.2,0.3c-0.133,-0.133 -0.133,-0.2 -0,-0.2c0.133,-0 0.133,-0.033 -0,-0.1l-0,-0.2c0.067,-0.133 0.133,-0.067 0.2,0.2m20.5,0.3l0.2,-0l-0.2,-0Zm-22.2,-0.2l-0,0.2c-0.133,-0.133 -0.133,-0.2 -0,-0.2m25.8,0.2l-0.2,-0l0.2,-0Zm14.6,-0.2c-0,0.2 0.1,0.267 0.3,0.2c-0.133,-0 -0.233,-0.067 -0.3,-0.2m13.7,-0.4c-0,0.2 0.067,0.333 0.2,0.4c0.133,-0 0.133,-0.1 -0,-0.3c-0,-0.267 -0.067,-0.3 -0.2,-0.1m-18.4,-0.2c-0.2,0.4 -0.033,0.567 0.5,0.5l-0,-0.4c-0.133,-0.2 -0.3,-0.233 -0.5,-0.1m-15.2,0.3c-0,0.2 0.067,0.267 0.2,0.2l0.1,-0.2l-0.3,-0Zm1.7,-0.5l-0.1,0.2l-0,0.2c-0,0.2 0.1,0.267 0.3,0.2c0.2,-0.067 0.2,-0.167 -0,-0.3l-0.2,-0.3Zm-21.2,-0.5c-0,0.333 -0.067,0.433 -0.2,0.3c-0.267,-0.133 -0.467,0.1 -0.6,0.7c-0.067,0.2 -0.133,0.2 -0.2,-0l-0,-0.5c-0,-0.133 0.067,-0.233 0.2,-0.3l0.2,-0.3l0.2,-0.2l0.2,-0.1l0.2,0.4Zm39.7,0.9l-0.3,-0l-0,0.1c0.133,-0.133 0.233,-0.167 0.3,-0.1m-31.5,-0.1l-0,0.1c-0.133,-0.067 -0.133,-0.1 -0,-0.1Zm6.5,-0.6c-0.133,0.2 -0.067,0.333 0.2,0.4l0.1,0.2c-0,0.2 0.1,0.233 0.3,0.1c0.2,-0.4 -0.3,-0.8 -0.6,-0.7m-1.7,0.6l-0.3,-0l0.3,-0Zm-0,-0l0.2,-0.1m14.2,-0.3l0.2,0.4l-0.2,-0.4Zm19,0.1c-0.067,0.2 -0.133,0.267 -0.2,0.2l0.2,-0.2Zm-32.5,0.1l-0.2,-0l0.2,-0Zm-13.6,-0.6l-0,0.6l-0,-0.6Zm53.5,0.5c-0.133,-0.2 -0.267,-0.2 -0.4,-0c-0,0.2 -0.067,0.133 -0.2,-0.2l-0,-1.6c0.2,-0 0.267,0.067 0.2,0.2l0.1,0.4l0.2,0.4l0.1,0.8Zm-49.1,-0l0.1,-0l-0.1,-0Zm42.3,-1.1l0.2,0.4c0,0.2 0.067,0.267 0.2,0.2l0.3,0.1c-0.067,0.133 -0.233,0.133 -0.5,-0l-0.5,0.1c-0.133,0.2 -0.267,0.2 -0.4,-0l0,-0.2c0.267,-0 0.333,-0.2 0.2,-0.6c0,-0.467 0.167,-0.467 0.5,-0m-22.2,0.4c0.133,0.133 0.167,0.3 0.1,0.5c-0.067,0.2 -0.5,-0.4 -0.4,-0.5l0.3,-0Zm-23.6,0.4l0.1,-0m31.7,-0l-0.3,-0l0.3,-0Zm-15,-0.2c-0,0.2 -0.067,0.2 -0.2,-0l0.1,-0.2l0.1,0.2Zm-7.6,-0l-0.1,-0m-8.4,-0.2l-0,0.2l-0,-0.2Zm4.4,-2.6c-0,0.2 0.1,0.233 0.3,0.1c0.2,-0 0.267,0.033 0.2,0.1l0.1,0.4c0.2,0.2 0.2,0.267 -0,0.2l-0.3,-0l-0.2,0.1l-0.2,-0l0.2,0.2c0.467,0.6 0.3,0.967 -0.5,1.1l-0.5,0.3l-0.3,0.2l0.1,-0.6l-0,-0.4l0.2,-0.4l-0,-0.2c0.333,-0.267 0.467,-0.5 0.4,-0.7c-0.3,-0.5 0.2,-0.8 0.5,-0.4m45.8,2.1l-0,0.2l0.3,0.2c0.2,0.133 0.3,0.133 0.3,-0c-0.067,-0.333 -0.267,-0.467 -0.6,-0.4m-30.7,0.3c-0.133,-0 -0.133,-0.033 -0,-0.1l-0,0.1Zm19.2,-0.2l-0,0.2l-0,-0.2Zm-30.5,0.1l-0.2,-0.2l0.2,0.2Zm-10.3,-0.2l-0,0.2l-0.1,-0l0.1,-0.2Zm41.2,0.2l-0.1,-0m-20.7,-0.1c-0.267,0.067 -0.4,0.067 -0.4,-0c0.133,-0.2 0.3,-0.3 0.5,-0.3l-0.1,0.3Zm-11,-0l-0.1,-0m23.6,-1.3l-0.2,0.2c-0.2,0.2 -0.2,0.433 -0,0.7c0.333,0.4 0.233,0.533 -0.3,0.4l-0.5,-0c-0.6,-0 -1.2,-0.7 -0.7,-1l0.2,-0.1l0.7,-0c-0,-0.067 0.033,-0.067 0.1,-0l0.3,-0.1c0.2,-0.2 0.333,-0.2 0.4,-0m-19.9,1.1l-0.2,0.2l-0,-0.2l0.2,-0Zm25,-0l-0,0.1l-0,-0.1Zm-30.6,-0.2l0.2,0.2l-0.2,-0c-0.4,-0 -0.567,-0.133 -0.5,-0.4l0.5,0.2Zm23,0.1l-0.2,-0l0.2,-0Zm-14.7,-0.2l-0,0.2l-0.3,-0.2l0.3,-0Zm29.9,-0.3c-0.133,-0 -0.133,0.133 -0,0.4l-0.1,-0.2l0.1,-0.2Zm-12.1,-0.1c0.133,-0 0.133,0.1 -0,0.3c0.2,-0.067 0.233,-0.133 0.1,-0.2l-0.1,-0.1Zm7.9,0.3l-0.3,-0l0.3,-0Zm-6.3,-1.5l0.6,0.3c0.2,-0 0.267,0.1 0.2,0.3c-0.067,0.2 0.033,0.3 0.3,0.3l0.1,0.4l-0.3,-0.1c-0,-0.133 -0.1,-0.133 -0.3,-0l-0.8,-0.2c-0.333,-0 -0.533,-0.067 -0.6,-0.2l-0.1,-0.2l-0.4,-0.5l0.4,-0l0.4,-0.1l0.5,-0Zm-34.2,1.2l0,-0.1l0,0.1Zm40.3,-0.2l0,0.2l0,-0.2Zm-18.6,-0.2l-0.2,0.4l-0.2,-0.4l0.4,-0.2l0,0.2Zm19.3,0.3c0,0.067 0.067,0.067 0.2,-0l-0.2,-0Zm6.6,-6.3l-0.2,0.2c-0.2,-0 -0.3,0.2 -0.3,0.6l0,0.2c-0.067,-0.267 -0.2,-0.3 -0.4,-0.1l0,0.2c-0.3,0.2 0,1.2 0.4,1.2l0.1,0.4c0,0.2 0.067,0.333 0.2,0.4c0.267,0.2 0.4,0.533 0.4,1c0.133,0.533 0.367,0.867 0.7,1c0.333,0.133 0.533,0.333 0.6,0.6l0.2,0.2l0.3,0.2c0.267,0.267 0.467,0.267 0.6,-0l0.3,-0c0.5,-0 0.8,-1.1 0.5,-1.7c-0.133,-0.333 -0.133,-0.5 0,-0.5c0.333,-0.133 0.4,-0.333 0.2,-0.6l-0.4,-0.8c-0.333,-0.667 -0.7,-1.1 -1.1,-1.3l-0.3,-0.3c0,-0.133 -0.067,-0.2 -0.2,-0.2c-0.4,-0.067 -0.633,-0.233 -0.7,-0.5c0,-0.2 -0.033,-0.233 -0.1,-0.1l-0.6,-0.2l-0.2,0.1Zm-30,6.1l0,0.2l0,-0.2Zm-0.7,-0.1l-0.1,0.3l0.1,-0.3Zm-0.4,-0.1c0.067,0.267 -0.033,0.4 -0.3,0.4c-0.133,-0.2 -0.133,-0.333 0,-0.4l0.3,-0Zm-9.9,0.3l-0.2,-0l0.2,-0Zm6.2,-0.6l0.2,0.4c0.067,0.2 0,0.267 -0.2,0.2l-0.2,-0.1c-0.133,-0 -0.233,-0.1 -0.3,-0.3c0.133,-0.533 0.3,-0.6 0.5,-0.2m-1,0.6l-0.2,-0l0,-0.1l0.2,0.1Zm28.7,-0.2l0.1,0.2l-0.1,-0.2Zm0.6,-0l0.1,-0m-41.7,-0.3c0,0.133 -0.067,0.2 -0.2,0.2l-0.2,-0l0.3,-0.4l0.1,0.2Zm9.6,-0.2l0.3,0.2l-0.3,-0.2Zm6.7,0.2l-0.2,-0l0.2,-0Zm2,-0l0.1,-0m-17.7,-0.1l0,-0.2l0,0.2Zm16.3,-0.3c0,0.267 0.033,0.367 0.1,0.3l-0.1,-0.3Zm21.5,-0.3l0.2,0.3c0,0.2 -0.1,0.3 -0.3,0.3l0.2,-0c0.2,-0.2 0.2,-0.4 0,-0.6m-1.4,0.2l-0.1,0.3c0,0.067 -0.067,0.067 -0.2,-0l-0.1,-0c-0.2,-0 -0.267,-0.1 -0.2,-0.3l0.6,-0Zm-7.2,0.2c0,0.2 -0.067,0.233 -0.2,0.1c-0.133,-0.133 -0.133,-0.2 0,-0.2l0.2,0.1Zm21.7,-0.1l0,0.2l0,-0.2Zm-13.2,-0.2l0,0.3c-0.267,0.067 -0.367,-0.033 -0.3,-0.3l0.3,-0Zm-35,0.1l0,-0.1m31.8,-0.2l0.1,-0m-15.7,-0.2l-0.1,0.2l0.1,-0.2Zm5,0.2l-0.2,-0l0.2,-0Zm10.3,-0.1l0.1,-0m-18,-0.3l0.2,0.3c0,-0.133 -0.067,-0.233 -0.2,-0.3m-4.6,0.1c0,0.133 0.067,0.2 0.2,0.2l-0.2,-0.2Zm29.8,0.2l0.1,-0m-25.7,-0.1l0.1,-0m-7.8,-0.1c0,0.067 -0.067,0.067 -0.2,-0c-0.133,-0.133 -0.133,-0.2 0,-0.2l0.2,0.2Zm23.9,-0.2l0.5,0.2c-0.2,0.1 -0.7,-0 -0.5,-0.2Zm-26.4,-0.1l-0,0.2l-0.1,0.2l-0,-0.2l-0.1,-0.2l0.2,-0Zm11.7,0.1l-0.1,-0m-2.7,-0l-0,-0.1m9,-0l-0.1,-0m26.8,-0c-0.2,-0.267 -0.333,-0.367 -0.4,-0.3c0.133,-0 0.267,0.1 0.4,0.3m-44,-0.4c0.067,0.133 -0,0.233 -0.2,0.3c-0.133,-0 -0.133,-0.067 -0,-0.2c0.133,-0.133 0.2,-0.133 0.2,-0m16.6,0.2l-0.3,-0l0.3,-0Zm7,-0c-0.133,-0.133 -0.133,-0.2 -0,-0.2l-0,0.2Zm-26.6,-0.2l-0,0.2l-0,-0.2Zm29.8,0.2l-0,-0.1m-22.9,-0.4c0.133,-0 0.133,0.067 -0,0.2c-0.067,0.067 -0.1,-0 -0.1,-0.2c-0,-0.133 0.067,-0.133 0.2,-0m11.8,0.2l-0.1,-0m-4,-0.3c-0,0.133 0.067,0.233 0.2,0.3c-0.133,-0 -0.2,-0.1 -0.2,-0.3m-17.3,0.1l-0.1,0.2c-0.133,-0 -0.133,-0.067 -0,-0.2c-0,-0.067 0.033,-0.067 0.1,-0m48,-0.4l-0,0.2l-0,-0.2Zm0.2,0.1l-0,0.2l-0,-0.2Zm1.5,0.1l-0.1,-0.1m-13.5,-0.6l-0.1,0.3l-0,0.2l0.1,-0.5Zm-18.3,0.5l-0.1,-0m20.8,-0.2l-0,0.1c-0.2,-0 -0.267,-0.033 -0.2,-0.1l0.2,-0Zm-22.5,-0.1l-0,0.2l0.1,-0l-0.1,-0.2Zm32.6,0.2l-0.1,-0m-37.2,-0.5l0.4,0.4l-0.4,-0.4Zm7.6,-0.4c0.3,0.3 -0.2,0.8 -0.7,0.6c-0.267,-0.2 -0.233,-0.4 0.1,-0.6l0.6,-0Zm17.7,0.6c-0,-0.133 -0.1,-0.133 -0.3,-0l-0,-0.1l0.2,-0l0.1,0.1Zm-25.6,-0.3l-0.2,0.2l0.2,-0.2Zm37.4,-0.1l-0,0.1l-0,-0.1Zm-36.8,-0c-0,0.067 -0,0.067 -0,-0m-0.3,-0.4l-0,0.1m19.7,-0.1l-0,0.1l-0,-0.1Zm-6.1,-0.1c0.133,0.2 0.233,0.2 0.3,-0c-0,0.2 -0.1,0.2 -0.3,-0m-18.5,-0.2l-0.1,0.3l0.1,-0.3Zm14.8,0.2l0.2,-0l-0,-0.1l-0.2,0.1Zm12.6,-0.2c-0.067,-0 -0.067,0.033 -0,0.1c-0.133,-0 -0.133,-0.033 -0,-0.1m-22.6,-0.1l-0,0.2l-0,-0.2Zm26.7,0.1l-0.2,-0.1l0.2,0.1Zm11.1,-0l-0.1,-0m-26.1,-0.7l-0.5,0.2c-0,-0.133 0.1,-0.233 0.3,-0.3l0.2,0.1Zm7.4,0.1l-0.1,-0m-8.6,-0.7l0.1,0.4c0.067,0.2 0.033,0.267 -0.1,0.2c-0.133,-0.067 -0.2,-0.233 -0.2,-0.5c0.2,-0.4 0.267,-0.433 0.2,-0.1m-2,0.5l-0.2,-0l0.2,-0Zm22.9,-0.3c-0.133,-0 -0.133,0.067 -0,0.2l0.3,-0l-0.3,-0.2Zm-32.9,0.3l-0.1,-0m20.4,-0.3l-0.1,-0l0.1,-0Zm-22.1,-0.7l0.2,0.2c0.2,0.2 0.267,0.333 0.2,0.4l-0.3,-0c-0.267,-0.2 -0.533,-0.267 -0.8,-0.2c-0.2,0.2 -0.267,0.2 -0.2,-0l0.1,-0.3l0.4,-0.1c0.267,-0.2 0.4,-0.2 0.4,-0m3.6,0.3l-0,0.3l-0,-0.3Zm-2.7,0.2l-0.1,-0m23.4,-0l-0.1,-0l0.1,-0Zm15.7,-0.3l0.1,0.2c0.2,0.067 0.267,0.033 0.2,-0.1c-0.067,-0.133 -0.167,-0.167 -0.3,-0.1m-5.3,0.1l-0,-0.2l-0,0.2Zm-7,-0.2l0.1,0.3l-0.1,-0.3Zm-23.4,0.1l-0.1,-0m23.2,-0.2l-0.2,0.1l0.2,-0.1Zm-26.1,-0l-0.1,-0m10.3,-0.1l-0.1,-0m-0.1,-0.2l-0,0.2l-0,-0.2Zm9.9,0.1l-0.2,-0l0.2,-0Zm-18,-0l-0.3,-0l0.3,-0Zm8.4,-0.1l-0.1,0.1l0.1,-0.1Zm-8,0.1l0.2,-0l-0.2,-0Zm-0.3,-0l-0.1,-0l0.1,-0Zm8.2,-0.2l-0.1,-0l0.1,-0Zm11.3,-0.3c-0,-0.133 -0.133,-0.2 -0.4,-0.2c0.267,-0 0.4,0.067 0.4,0.2m0.7,-0.3l-0.3,-0.1l0.3,0.1Zm-10.2,-0.4c-0,0.333 -0.033,0.433 -0.1,0.3c-0.267,-0 -0.3,-0.233 -0.1,-0.7c0.067,-0.067 0.133,0.067 0.2,0.4m-13,-0.1l-0,0.4c0.267,-0 0.367,-0.1 0.3,-0.3c-0.067,-0.2 -0.167,-0.2 -0.3,-0m1.5,0.1l-0.1,-0m2,-0l-0.3,-0l0.3,-0Zm19.9,-0.2l-0.5,-0l0.5,-0Zm3.1,-0.3c-0,0.133 0.133,0.233 0.4,0.3c-0.2,-0 -0.333,-0.1 -0.4,-0.3m-28.8,0.2l-0.1,-0l0.2,-0.2l-0.1,0.2Zm26.4,-0.2l-0.3,-0.1c0.2,-0 0.3,0.067 0.3,0.2m-16.2,-0.2l-0,0.2l-0,-0.2Zm-10.8,-0.2l-0,0.3l-0,-0.3Zm-2.9,-0l-0,0.2l-0,-0.2Zm3.5,-0.3l-0.2,-0l-0,0.1l0.2,-0.1Zm-0,-0l0.2,-0l-0.2,-0Zm0.1,-0.8l-0.1,0.2l-0,0.2c-0.333,0.2 -0.533,0.167 -0.6,-0.1c-0,-0.2 0.7,-0.4 0.7,-0.3m22.6,0.3l0.1,0.2l0.3,-0.2c-0.267,0.2 -0.4,0.2 -0.4,-0m-16,0.1l-0.1,-0m22.7,-2.5l-0.3,-0l-0,0.1c0.467,0.267 0.6,0.467 0.4,0.6c-0.1,0.2 -0.6,0.2 -0.7,0.1c-0.133,-0 -0.133,0.1 -0,0.3l0.5,0.2c0.4,0.2 0.5,0.367 0.3,0.5l-0,0.3c0.2,0.133 0.3,0.1 0.3,-0.1c-0.067,-0.267 0.1,-0.267 0.5,-0c0.4,0.4 0.3,0.4 0.6,0.3c0.2,-0 0.2,-0.133 -0,-0.4c-0.2,-0.267 -0.2,-0.367 -0,-0.3l-0,0.1l0.1,-0.2l-0.1,-0.2l-0.2,-0.3l-0.1,-0.3l-0.1,-0.2l-0,-0.2c-0.133,-0.2 -0.267,-0.2 -0.4,-0c-0,0.2 -0.1,0.2 -0.3,-0l-0.5,-0.3Zm-24.2,2.6l0,-0.1m0.2,-0.2l-0.1,-0m20.3,-0.2l0.3,0.2l0.1,-0.2c-0.067,-0.067 -0.2,-0.067 -0.4,-0m-2.2,-0l-0.3,0.1l0.3,-0.1Zm9.1,-0.5l0,0.4c0.4,-0 0.5,-0.1 0.3,-0.3l-0.3,-0.1Zm-32.3,-0.3l0,0.2c-0.133,0.2 -0.2,0.2 -0.2,-0c0,-0.2 0.067,-0.267 0.2,-0.2m31.5,0.1l0.2,-0l-0.2,-0Zm-17.7,-0.3c-0.067,0.067 -0.1,0.067 -0.1,-0l0,-0.1l0.1,0.1Zm-4.7,-0.2l0.2,-0l-0.2,-0Zm-0.5,-0l0.3,-0l-0.3,-0Zm18.2,-0.3c0.067,0.267 -0.067,0.267 -0.4,-0l-0.2,-0l0.2,-0.1c0.133,-0.133 0.2,-0.133 0.2,-0l0.2,0.1Zm-25.7,0.1l-0.2,-0l0.2,-0Zm26.4,-0.4c0,0.133 0.133,0.233 0.4,0.3l0,-0.3l-0.4,-0Zm-14,-0.2l0,0.2c0,0.2 -0.1,0.2 -0.3,-0c-0.067,-0.133 -0.033,-0.2 0.1,-0.2l0.2,-0Zm11.1,-0.1c0,0.2 0.1,0.3 0.3,0.3c0.2,-0 0.2,-0.067 0,-0.2c-0.2,-0.133 -0.3,-0.167 -0.3,-0.1m1.7,0.1l-0.2,0.2c-0.133,-0.067 -0.133,-0.133 0,-0.2l0.2,-0Zm-16,-0.3c0.1,0.2 -0.8,0.4 -1,0.3c-0.133,-0 0,-0.1 0.4,-0.3l0.6,-0Zm-7.2,-0.6c0.2,0.133 0.267,0.133 0.2,-0l-0.2,-0Zm2.8,-1l-1.1,-0l-0.4,0.2l-0.3,0.2c-0.467,0.333 -0.433,0.5 0.1,0.5l0.8,-0.1l0.2,-0.2c0.067,-0.2 0.2,-0.267 0.4,-0.2c0.2,0.133 0.4,0.133 0.6,-0l0.3,-0.2l0.2,-0.1c0.133,-0.133 0.067,-0.2 -0.2,-0.2l-0.6,-0m7.1,-0.2c-0.667,0.333 -0.7,0.6 -0.1,0.8c0.7,0.1 1.3,-0.6 0.6,-0.8l-0.5,-0Zm-3.6,0.4c-0.2,0.067 -0.233,0.133 -0.1,0.2l0.3,-0.2l-0.2,-0Zm4,-0.2l0.2,0.2l-0.2,0.2c0.2,-0.067 0.267,-0.167 0.2,-0.3l-0.2,-0.1Zm-2.5,-1.5l0,0.2c0.2,0.2 0.167,0.3 -0.1,0.3l-0.2,0.2c-0.133,0.267 -0.067,0.367 0.2,0.3l0.4,-0.1c0.267,-0 0.367,-0.1 0.3,-0.3l0,-0.1c0.133,-0.067 0.167,-0.2 0.1,-0.4c-0.067,-0.2 -0.267,-0.267 -0.6,-0.2m-1.3,-0c0,0.267 -0.067,0.433 -0.2,0.5c-0.133,0.067 -0.167,0.167 -0.1,0.3c0.067,0.133 0.233,0.133 0.5,-0l0.2,-0.4l0,-0.3c0.2,-0.267 0.133,-0.4 -0.2,-0.4c-0.133,-0 -0.2,0.067 -0.2,0.2m7.4,0.4l-0.3,0.1l-0.2,0.1l0.3,0.2l0.4,-0.2l0,-0.2l-0.2,-0Zm-5,-0.4l0.1,0.3l0.2,-0c0.2,-0 0.3,-0.1 0.3,-0.3c0,-0.2 -0.5,-0.2 -0.6,-0m-3.3,0.1l0.3,-0l-0.1,-0.1l-0.2,0.1Zm8.2,-0.2l0,0.2l0.2,-0c0.133,-0.133 0.067,-0.2 -0.2,-0.2m6.7,-1.4l-0.3,0.2l-0.3,0.1c0,0.2 -0.033,0.2 -0.1,-0l-0.3,0.3c0,0.2 0.5,0.3 0.6,0.1c0,-0 0.4,-0 0.3,0.1l0.3,0.6l1.1,-0c0,-0.2 0.067,-0.233 0.2,-0.1l0.4,-0l0.5,0.1c0.133,0.133 0.233,0.133 0.3,-0l-0.1,-0l-0.1,-0.2c0,-0.133 -0.1,-0.2 -0.3,-0.2c-0.467,-0.067 -0.5,-0.133 -0.1,-0.2c0.333,-0 0.367,-0.1 0.1,-0.3l-0.2,-0.1l-0.3,-0.1l-0.3,-0c-0.133,-0 -0.233,-0.067 -0.3,-0.2l-1.1,-0.1Zm-9.3,0.5c-0.467,0.133 -0.667,0.267 -0.6,0.4l-0.1,0.3c-0.267,0.2 0.067,0.3 1,0.3c0.667,-0 0.867,-0.1 0.6,-0.3c-0.2,-0.267 -0.2,-0.367 0,-0.3c0.267,-0.133 0.267,-0.233 0,-0.3l-0.5,-0c-0.2,-0.133 -0.333,-0.167 -0.4,-0.1m-1.4,0.7l-0.1,-0l0.1,-0Zm0,-0c0.2,0.067 0.267,0.067 0.2,-0c0,-0.267 -0.1,-0.3 -0.3,-0.1m-0.5,-0.2l0.2,0.2l0,-0.3l-0.2,0.1Zm12.3,-0.1l-0.3,-0l0.2,-0m-0.7,-0.3c0.133,0.133 0.133,0.2 0,0.2l-0.3,-0.1l0.3,-0.1Zm-18,40.9l0,0.4l0,-0.4Zm8.2,-3.3l-0.2,-0.2l0.2,0.2Zm-0.6,-0.2l0.2,-0l-0.2,-0Zm-10.2,-0l0.2,-0l-0.2,-0Zm11.5,-0.8l-0.2,-0.1l0.2,0.1Zm-7.7,-0.7l-0.1,-0l0.1,-0Zm-0.8,-0.3l0,-0.2l0,0.2Zm11,-1.2l0,0.3l0,-0.3Zm-1.5,0.3l-0.6,-0l0.6,-0Zm-11.2,-0.7l-0.1,-0m-7.7,-0.6l-0.1,-0m-0.6,-0.5l0.2,-0l-0.2,-0Zm4.7,-1.1l-0.1,-0m14.5,-1.1l0,-0.3l0,0.3Zm-10.4,-0.4l0,-0.2l0,0.2Zm4.9,-0.7l0,-0.2l0,0.2Zm33.9,-5.3l0,0.4l0,-0.4Zm-26.5,-0.3l-0.1,0.3l0.1,-0.3Zm-2.9,-0.7l0.2,-0l-0.2,-0Zm-1,-0.1l0.2,-0l-0.2,-0Zm-21.1,-0l-0.1,-0m49.6,-0.7l-0.3,-0.2l0.3,0.2Zm-42.7,-0.5l0.2,-0.1l-0.2,0.1Zm40.1,-0.1l0,0.8m-46.4,-0.5l0,-0.3l0,0.3Zm46.2,-1.2c0,-0.133 -0.1,-0.167 -0.3,-0.1c0.133,-0 0.233,0.067 0.3,0.2m7.2,-2.1l0,-1.8l0,1.8Zm-12.4,-0.2l0.2,-0l-0.2,-0Zm-11.4,-0.2l0,0.4m-25,-0.2l0.1,-0.2l-0.1,0.2Zm-5.1,-0.8l0.1,-0.3l0,-0.2l1.2,-2.7l0.5,-1l0,-0.2l0.8,-1.2l0.1,-0.3c0.267,0.067 0.467,-0.1 0.6,-0.5l0,-0.4l0.7,-0.9c1.179,-1.6 2.519,-3.074 4,-4.4l0.2,0.2c-0.2,0.133 -0.333,0.333 -0.4,0.6l-0.1,0.2c-0.2,0 -0.4,0.5 -0.4,0.6c0.067,0.133 0.2,0.033 0.4,-0.3c0.2,-0.333 0.5,-0.433 0.9,-0.3l0.3,-0.1l0.4,-0.3l0.3,-0.2c0.2,-0.2 0.4,-0.233 0.6,-0.1c0.2,0 0.333,-0.1 0.4,-0.3c0.067,-0.2 0.233,-0.333 0.5,-0.4l0.3,0l0,0.3c0.2,0 0.233,0.067 0.1,0.2c-0.1,0.1 -0.2,0.7 -0.1,0.8c0,0.2 -0.1,0.367 -0.3,0.5l-0.5,0.2l-0.6,0.2c-0.267,0 -0.4,0.067 -0.4,0.2l-0.2,0.3c-0.2,0.133 -0.2,0.233 0,0.3l0,0.3l0.1,0.3c0.2,0.2 0.2,0.367 0,0.5c-0.2,0 -0.3,0.233 -0.3,0.7l-0.1,0.5c-0.4,0.5 -0.3,1.2 0,1.2c0.2,-0.067 0.267,-0.233 0.2,-0.5l0.4,-0.3l0.2,-0.2c0.133,-0.133 0.267,-0.133 0.4,0c0.2,0.067 0.333,0.067 0.4,0c0,-0.067 0.067,-0.067 0.2,0c0.3,0.4 1,0.2 0.8,-0.1c-0.133,-0.267 0.067,-0.6 0.6,-1l0.3,-0.2c0,-0.2 0.1,-0.2 0.3,0l0.2,0c0.067,-0.133 0.033,-0.233 -0.1,-0.3c-0.267,0 -0.3,-0.3 -0.1,-0.9l0,-2.3c0.067,-0.267 0.2,-0.467 0.4,-0.6l1.6,-0.7c0.267,-0.133 0.667,-0.033 1.2,0.3c0.1,0.2 0.7,-0.3 0.7,-0.5l0.1,-0.2l0.3,-0.2l0.3,-0.3l0.3,-0.1l0.4,-0.3l0.7,-0.4c0.4,-0.267 0.867,-0.267 1.4,-0l0.9,0.1c0.267,-0 0.267,0.133 0,0.4c0,0.2 -0.067,0.233 -0.2,0.1l-0.4,-0c-0.2,0.133 -0.333,0.133 -0.4,-0l0,-0.3c0,-0.2 -0.033,-0.2 -0.1,-0l-0.2,-0c-0.133,0.267 -0.067,0.433 0.2,0.5l0.3,0.2c0.3,0.2 1,0.2 0.7,-0l0.1,-0.3l0.2,-0l0.2,-0.2l0.1,-0.2c0,-0.133 0.2,-0.2 0.6,-0.2l0.7,-0c0.467,-0 0.7,0.1 0.7,0.3c0.067,0.267 0.2,0.333 0.4,0.2l0.7,-0.1l0,0.2c0.067,0.267 0.233,0.5 0.5,0.7c0.133,-0 0.267,0.1 0.4,0.3l0.3,0.4l0.1,-0l0.1,0.3c0.067,0.2 -0.1,0.367 -0.5,0.5l-0.2,-0c0,-0.133 0.067,-0.167 0.2,-0.1l0.3,-0.1c-0.133,-0.267 -0.367,-0.433 -0.7,-0.5c-0.333,-0.067 -0.4,0.067 -0.2,0.4c0.2,0.333 0.2,0.467 0,0.4c-0.133,-0 -0.233,0.133 -0.3,0.4c0,0.133 -0.1,0.233 -0.3,0.3l-0.1,-0l0.1,0.3c0.2,0.267 0.467,0.3 0.8,0.1c0.4,-0.2 1.2,-0.4 1.3,-0.3c0.2,0.067 0.333,-0.033 0.4,-0.3c0,-0.267 0.133,-0.4 0.4,-0.4c0.2,0.133 0.2,0.267 0,0.4l0.1,0.2l0,0.3c0,0.4 0.133,0.433 0.4,0.1c0.267,-0.333 0.433,-0.3 0.5,0.1c0,0.333 0.067,0.4 0.2,0.2c0.3,-0.4 0.6,0.2 0.4,0.7c-0.2,0.267 -0.167,0.433 0.1,0.5c0.133,-0 0.2,0.067 0.2,0.2c0,0.267 0.1,0.367 0.3,0.3c0.133,-0 0.167,-0.1 0.1,-0.3c0.067,-0.267 0.233,-0.4 0.5,-0.4l0.3,-0l0,-0.4c-0.2,-0.067 -0.233,-0.167 -0.1,-0.3l0,-0.2l0.1,-0.2l0,-0.3c-0.133,-0.267 -0.133,-0.4 0,-0.4c0.133,-0 0.267,-0.133 0.4,-0.4l0.1,-0.3l1,-0.2l1.2,0.3l0.7,0.1c0.2,0.4 1,0.6 1.3,0.3l0.3,-0c0.267,-0 0.367,-0.133 0.3,-0.4l-0.1,-0.2c0,-0.133 -0.1,-0.2 -0.3,-0.2c-0.667,-0 -0.967,-0.2 -0.9,-0.6c0.067,-0.133 0,-0.2 -0.2,-0.2c-0.333,-0 -0.433,-0.133 -0.3,-0.4l0.3,-0.1c0.267,-0.067 0.267,-0.133 0,-0.2c-0.133,-0 -0.133,-0.033 0,-0.1l0.2,-0c0,-0.2 1,0.1 1,0.3l0.3,0.2c0.133,-0 0.133,0.033 0,0.1c-0.133,0.133 -0.133,0.267 0,0.4c0.2,-0 0.2,0.033 0,0.1l0.1,0.5l0.2,0.2l0.8,-0.8c0.2,-0 0.3,0.067 0.3,0.2l0.1,0.1l0.2,0.4l0,0.2l0.2,-0l0.1,0.3l0,0.5c0,0.733 0.367,1.167 1.1,1.3c0.133,-0 0.233,0.067 0.3,0.2c0.067,0.133 0.133,0.167 0.2,0.1c0.133,-0.067 0.167,-0 0.1,0.2c0,0.267 0.067,0.367 0.2,0.3c0.467,0.2 0.633,0.467 0.5,0.8c0,0.2 0.1,0.433 0.3,0.7l0,0.4l0.1,-0l0.2,0.3l0.1,0.4l0,0.9l0.1,0.2l0.1,-0.2c0.067,-0.067 0.1,-0.067 0.1,-0l0.1,0.2l-0.1,0.1c-0.267,0.067 -0.2,0.133 0.2,0.2c0.133,-0 0.2,0.067 0.2,0.2c0,0.133 0.067,0.2 0.2,0.2l0.2,0.1l0,-0.1c0.2,-0.467 0.333,-0.533 0.4,-0.2c0,0.267 0.133,0.367 0.4,0.3c0.133,-0 0.133,-0.1 0,-0.3l-0.2,-0.8c0,-0.2 0.167,-0.2 0.5,-0c0.533,0.267 0.6,0.1 0.2,-0.5c-0.2,-0.333 -0.233,-0.567 -0.1,-0.7c0.4,-0.2 1,0.4 0.8,0.7c-0.267,0.333 -0.033,0.5 0.7,0.5c0.667,0.067 0.9,0.233 0.7,0.5l0,0.3l-0.2,0.1c-0.2,-0 -0.133,0.2 0.2,0.6c0.267,0.267 0.367,0.433 0.3,0.5c0,0.2 0.067,0.367 0.2,0.5c0.2,-0 0.233,0.033 0.1,0.1c0,0.133 0.067,0.233 0.2,0.3l0.3,-0c0,0.2 0.133,0.267 0.4,0.2c0.2,-0 0.367,0.067 0.5,0.2l0.4,0.2c0.4,0.067 0.667,0.3 0.8,0.7c0,0.267 -0.1,0.2 -0.3,-0.2c0,-0.2 -0.1,-0.2 -0.3,-0c-0.2,0.2 -0.233,0.3 -0.1,0.3l0,0.3c0,0.2 0.2,0.233 0.6,0.1l0.5,-0l0.8,0.5c0,0.2 0.6,0.7 0.8,0.8l1,0.8l0.4,0.3l0.3,0.3l0.3,-0.3l0.2,0.1l0.5,0.5l0,0.3c0.133,0.133 0.2,-0 0.2,-0.4l0.1,-0.2l0,0.3c0.133,0.533 0.267,0.467 0.4,-0.2c0,-0.733 0.1,-0.833 0.3,-0.3l0.2,0.3l0,0.6c0,0.467 0.067,0.6 0.2,0.4c0.067,-0.2 0.1,-0.2 0.1,-0c0,0.5 -0.5,0.5 -0.5,-0l-0.4,-0.1c-0.2,-0.067 -0.267,-0.033 -0.2,0.1l0,0.4l0.1,0.4l0,0.3l0.1,0.3l0.2,0.4l0,1.1c0,0.133 -0.067,0.2 -0.2,0.2c-0.267,0.2 -0.433,0.433 -0.5,0.7c0,0.133 -0.067,0.167 -0.2,0.1c-0.133,-0 -0.2,0.067 -0.2,0.2l0,0.8l-0.4,-0c-0.4,0.133 -0.533,0.233 -0.4,0.3c0,0.133 0.1,0.133 0.3,-0l0.3,0.1l0,0.3c0.133,-0 0.2,0.3 0.2,0.9l0,1.8c0,-0.2 -0.033,-0.2 -0.1,0l-0.2,0c-0.133,0.067 -0.133,0.133 0,0.2c0,0.267 -0.067,0.433 -0.2,0.5l-0.2,-0.1l0,-1.3l0.1,-1c0.2,0 0.2,-0.067 0,-0.2c-0.2,-0.133 -0.367,-0.1 -0.5,0.1c-0.133,0.2 -0.3,0.3 -0.5,0.3l-0.3,0c0,0.2 -0.1,0.2 -0.3,0l-0.5,-0.3l0,-0.2c0.133,-0.133 0.133,-0.267 0,-0.4l-0.2,-0.1c-0.133,-0.467 -0.4,-0.667 -0.8,-0.6l-0.3,0l-0.5,0.1l-0.1,-0.2c0.067,-0.133 0.133,-0.133 0.2,0l0.2,-0.1c0,-0.267 -0.1,-0.467 -0.3,-0.6c-0.6,-0.3 -0.6,-1 0,-0.8l0.2,0.1l0,0.2c0.4,0.1 0.5,-0.6 0.2,-0.8c-0.267,-0.133 -0.467,-0.333 -0.6,-0.6l-0.1,-0.3l-0.1,0.2l-0.3,0l0,-0.2c0.1,0 0.4,-1 0.4,-1.4l0,-0.3l-0.2,0.1c-0.133,0 -0.233,0.1 -0.3,0.3c-0.067,0.2 -0.233,0.233 -0.5,0.1c-0.267,-0.2 -0.433,-0.2 -0.5,0l-0.3,-0.1l-0.3,0c-0.333,0.267 -0.467,0.2 -0.4,-0.2c0,-0.267 -0.133,-0.367 -0.4,-0.3l-0.5,0c-0.333,-0.267 -0.467,-0.1 -0.4,0.5l0,0.3l-0.2,0.6c-0.267,-0 -0.367,0.333 -0.3,1l0,0.6l-0.2,-0c-0.2,0.2 -0.267,0.333 -0.2,0.4c0.067,0.067 0.067,0.133 0,0.2l-0.2,-0.2l-0.1,-0l0,0.3c0,0.267 0.133,0.367 0.4,0.3c0.2,-0 0.333,0.1 0.4,0.3l-0.3,0.5l-0.2,0.4c0,0.267 -0.1,0.4 -0.3,0.4c-0.2,-0 -0.1,-0.6 0,-0.8c0,-0.4 -0.167,-0.6 -0.5,-0.6c-0.333,-0 -0.467,0.067 -0.4,0.2c0.2,0.467 0.067,0.6 -0.4,0.4c-0.4,-0.2 -0.5,-1 -0.1,-1c0.2,-0 0.3,-0.6 0.1,-0.7l0,-0.1l0.2,-0c-0.067,-0.4 -0.133,-0.467 -0.2,-0.2c-0.133,0.2 -0.233,0.033 -0.3,-0.5c0,-0.267 -0.1,-0.333 -0.3,-0.2c-0.2,0.067 -0.333,0.067 -0.4,-0c-0.2,-0.2 -0.367,-0.2 -0.5,-0c-0.133,0.267 -0.233,0.3 -0.3,0.1c-0.133,-0.267 -0.3,-0.4 -0.5,-0.4c-0.467,-0 -0.733,0.067 -0.8,0.2c-0.133,0.067 -0.267,0.067 -0.4,-0c-0.133,-0.2 -0.133,-0.333 0,-0.4c0.2,-0.333 0.267,-0.533 0.2,-0.6l-0.2,-0c-0.2,0.2 -0.367,0.067 -0.5,-0.4c0,-0.2 -0.133,-0.333 -0.4,-0.4c-0.2,-0 -0.2,-0.1 0,-0.3c0.2,-0.067 0.2,-0.2 0,-0.4l-0.6,-0.7l-0.1,-0.1l0,-0.1c0.267,-0 0.333,-0.1 0.2,-0.3l-0.2,-0.3l-0.2,-0.1c-0.2,-0.133 -0.2,-0.2 0,-0.2l0.2,-0.1l-0.3,-0.8l-0.2,-0.4c-0.6,-0.6 -0.5,-0.5 -0.3,-0.6l0.3,-0c0.2,-0 0.2,-0.167 0,-0.5c0,-0.2 -0.033,-0.233 -0.1,-0.1l-0.7,0.4l-0.3,-0.2c-0.267,-0.2 -0.4,-0.2 -0.4,-0l0.1,0.2c0.133,-0 0.167,0.067 0.1,0.2l-0.3,-0.1c-0.133,-0.067 -0.2,-0.033 -0.2,0.1l0.8,0.8c0,0.2 -0.1,0.2 -0.3,-0l-0.1,-0.1l0,0.1l-0.1,0.2l-0.8,-0l0,0.5c0.133,-0 0.167,0.133 0.1,0.4l-0.1,-0c-0.267,-0 -0.367,0.1 -0.3,0.3l0.1,-0l0.3,0.5c0,0.2 -0.133,0.3 -0.4,0.3l-0.3,-0l-0.3,-0.1l-0.3,-0l-0.3,0.1c-0.267,-0 -0.367,0.1 -0.3,0.3l0,0.1l-0.2,0.1l0.8,-0c0.2,-0 0.167,0.133 -0.1,0.4c-0.333,0.133 -0.5,0.133 -0.5,-0c0,-0.133 -0.267,-0.2 -0.8,-0.2l0,-0.6l0.2,-0.3l0,-0.2c-0.3,-0.1 -0.2,-0.2 -0.6,0.2l-0.4,0.3l-0.4,-0.2l-0.6,-0.2l-0.2,-0.3c-0.133,-0.067 -0.133,-0.133 0,-0.2c0.133,-0.067 0,-0.133 -0.4,-0.2c-0.533,-0 -0.767,0.067 -0.7,0.2c-0.067,0.133 -0.233,0.233 -0.5,0.3l-0.1,0.2c0,0.133 -0.1,0.2 -0.3,0.2l-0.4,-0l-0.3,0.3l-0.1,0.2c0.2,0.133 0.2,0.367 0,0.7l0.1,0.5l0.2,0.3l0.1,0.2l0.2,0.2c0.067,0.4 0.267,0.5 0.6,0.3c0.4,-0.267 0.567,-0.2 0.5,0.2c-0.067,0.333 0.067,0.367 0.4,0.1l0.3,-0.1l0.4,-0c0.333,-0.067 0.5,-0.033 0.5,0.1l0,0.2c0.267,0.2 0.3,0.333 0.1,0.4c-0.133,-0 -0.2,0.1 -0.2,0.3l0,0.5c-0.333,0.267 -0.5,0.5 -0.5,0.7c0,0.3 -0.6,0.4 -0.9,0.2l-0.3,-0.1c-0.2,-0 -0.333,-0.067 -0.4,-0.2l-0.2,-0.2l0.1,-0.1c0.133,-0 0.133,-0.067 0,-0.2l0,-0.1c0,-0.267 -0.067,-0.4 -0.2,-0.4c-0.133,-0 -0.2,0.167 -0.2,0.5l0,0.2c-0.267,-0 -0.4,-0.067 -0.4,-0.2c0,-0.133 -0.067,-0.2 -0.2,-0.2l-0.3,-0.1c-0.067,-0.133 -0.133,-0.133 -0.2,-0c0,0.333 -0.133,0.5 -0.4,0.5c-0.133,-0 -0.2,0.067 -0.2,0.2l-0.2,0.2l-0.2,-0l0,0.1c0.267,-0 0.3,0.067 0.1,0.2c-0.2,0.133 -0.3,0.3 -0.3,0.5l-0.2,0.2c-0.133,-0 -0.2,0.067 -0.2,0.2c0,0.267 -0.133,0.433 -0.4,0.5c-0.2,0.133 -0.367,0.067 -0.5,-0.2c-0.067,-0.267 -0.233,-0.3 -0.5,-0.1c-0.2,0.2 -0.2,0.333 0,0.4l0,0.6l0.2,-0c0.333,-0 0.533,0.1 0.6,0.3c0.067,0.2 0.2,0.3 0.4,0.3l0,0.4c0,0.333 0.133,0.567 0.4,0.7l0.7,-0l0.7,0.7l-0.4,0.4l-0.1,0.3l0,0.2l0.2,0.3c0,0.5 0.8,0.7 1.2,0.3c0.333,-0.333 0.5,-0.333 0.5,-0c0,0.133 0.067,0.233 0.2,0.3l0,1.2l-0.1,0.3l-0.2,0.3l-0.1,0.2l-0.3,0.2c-0.3,0.3 -0.5,1.3 -0.2,1.3l0.2,0.2l0.1,0.2l-0.2,0.2l-0.3,0.5l0,0.1c-0.2,0.3 0.3,0.4 0.6,0.1c0.2,-0.2 0.333,-0.2 0.4,-0l0,1.1l0.1,0.2l0,0.7c-0.067,0.467 -0.167,0.533 -0.3,0.2c0,-0.2 -0.133,-0.267 -0.4,-0.2c-0.133,-0 -0.233,0.2 -0.3,0.6c0,0.2 -0.1,0.2 -0.3,-0c-0.133,-0.267 -0.3,-0.333 -0.5,-0.2l-0.2,0.2l-0.3,0.2l-0.8,-0l0,0.2c0,0.2 -0.167,0.233 -0.5,0.1c-0.4,-0 -0.567,0.1 -0.5,0.3c-0.067,0.333 -0.3,0.333 -0.7,-0c-0.4,-0.333 -0.667,-0.467 -0.8,-0.4l0.1,0.2l0.5,0.7c0,0.2 -0.3,0.033 -0.9,-0.5l-0.5,-0.5c-0.333,-0.133 -0.5,-0.3 -0.5,-0.5c0,-0.267 -0.2,-0.533 -0.6,-0.8l-0.7,-0.7c0,-0.467 -0.1,-0.667 -0.3,-0.6l-0.2,-0c-0.2,-0 -0.3,-0.6 -0.2,-0.7c0.133,-0.133 0.133,-0.267 0,-0.4c-0.133,-0 -0.2,-0.1 -0.2,-0.3c0,-0.067 0.067,-0.067 0.2,-0c0.133,0.2 0.2,0.2 0.2,-0c0,-0.2 0.1,-0.267 0.3,-0.2l0.2,-0l0,-0.3l-0.1,-0.4l0,-1c-0.067,-0.467 -0.267,-0.567 -0.6,-0.3c-0.133,0.267 -0.3,0.4 -0.5,0.4l-0.5,-0c-0.133,-0 -0.133,0.133 0,0.4c0.133,0.2 0.267,0.2 0.4,-0l0.1,-0.1c0.2,-0 0.233,0.067 0.1,0.2l0,0.2c-0.067,0.133 -0.2,0.2 -0.4,0.2l-0.4,-0c-0.267,-0.2 -0.267,-0.1 0,0.3l0,0.4c0,0.133 0.1,0.267 0.3,0.4c0.4,0.2 0.467,0.333 0.2,0.4l-0.6,-0l-0.6,-0.1c-0.133,0.067 -0.133,0.133 0,0.2l0,0.4c-0.267,-0 -0.4,-0.1 -0.4,-0.3c-0.067,-0.2 -0.233,-0.133 -0.5,0.2c0,0.133 -0.067,0.2 -0.2,0.2c-0.2,0.133 -0.233,0.3 -0.1,0.5l0,0.2l0.3,0.5l0,0.5l0.2,0.2l0,0.1l0.1,-0c0,-0.2 0.167,-0.2 0.5,-0c0.133,0.2 0.3,0.267 0.5,0.2l0.3,-0c0.133,0.133 0.133,0.1 0,-0.1c0,-0.267 -0.1,-0.333 -0.3,-0.2l-0.3,-0.1l-0.2,-0c-0.2,-0 -0.233,-0.1 -0.1,-0.3c0.133,-0.2 0.233,-0.2 0.3,-0l0.1,-0l0,-0.4l0.2,-0c0,0.067 0.067,0.067 0.2,-0l-0.1,-0.3l-0.1,-0.1l-0.1,-0.3c-0.2,-0.2 -0.2,-0.333 0,-0.4c0.4,-0.333 0.6,-0.233 0.6,0.3c0,0.467 0.2,0.6 0.6,0.4c0.4,-0.4 1,0.2 1,1c0,0.267 0.067,0.367 0.2,0.3c0.533,0.133 0.833,0.333 0.9,0.6l0.2,0.4l0.3,0.5c0.067,0.467 -0.1,0.567 -0.5,0.3l-0.5,-0c0.2,0.333 0.167,0.467 -0.1,0.4l-0.3,-0.1l0,0.1c0,0.133 -0.067,0.233 -0.2,0.3c-0.133,0.067 -0.2,0.2 -0.2,0.4c-0.133,0.2 0.067,0.267 0.6,0.2l0.6,-0c0.2,0.2 0.4,0.2 0.6,-0c0,-0.133 0.1,-0.167 0.3,-0.1l0,0.1c-0.133,0.267 -0.133,0.433 0,0.5c0,0.133 -0.067,0.233 -0.2,0.3l-0.2,0.3c-0.133,0.2 -0.333,0.2 -0.6,-0l0.1,-0.3c0.333,-0.267 0.167,-0.367 -0.5,-0.3c-0.333,-0 -0.5,0.2 -0.5,0.6l0,0.4l-0.2,0.1c-0.333,0.2 -0.533,0.2 -0.6,-0l-0.3,-0.2c-0.333,-0.133 -0.5,-0.333 -0.5,-0.6l0,-0.2c-0.133,-0.2 -0.133,-0.233 0,-0.1c0.4,-0 0.533,-0.1 0.4,-0.3l0,-0.5l0.1,-0.3c0,-0.267 0.233,-0.4 0.7,-0.4c0.467,-0 0.633,-0.067 0.5,-0.2c0,-0.267 -0.133,-0.467 -0.4,-0.6c-0.133,-0 -0.2,-0.067 -0.2,-0.2l0,-0.4l-0.2,-0.1l-0.3,-0l-0.4,-0.1c-0.067,-0.067 -0.133,-0.067 -0.2,-0l-0.2,-0c0,0.2 0.067,0.333 0.2,0.4c0.5,0.3 1,1 0.5,0.8c-0.333,-0.2 -0.5,-0.2 -0.5,-0l0,0.2l-0.2,-0.3c-0.133,-0.4 -0.267,-0.467 -0.4,-0.2c0,0.267 -0.133,0.3 -0.4,0.1c-0.2,-0.2 -0.3,-0.2 -0.3,-0c0,0.2 0.067,0.333 0.2,0.4c0.3,-0 0.3,0.6 0,0.7c-0.133,-0 -0.233,0.3 -0.3,0.9l0,0.3c-0.2,-0 -0.267,-0.1 -0.2,-0.3c0,-0.1 -0.3,-0.6 -0.4,-0.5l-0.5,-0l0,0.3l0.1,0.3l0.1,-0l0,0.1c0,0.067 -0.067,0.067 -0.2,-0l-0.3,-0c-0.133,0.2 -0.3,0.133 -0.5,-0.2l-0.5,-0.5l-0.4,-0.3c-0.333,-0.133 -0.5,-0.033 -0.5,0.3l-0.4,-0.1l-0.1,-0l-0.3,-0.3l-0.4,-0.5l-0.3,-0.2l0.1,-0.2l0,-0.3l-0.5,-0.7l-0.1,-0.2c-0.2,-0.2 -0.133,-0.333 0.2,-0.4c0.133,-0.067 0.133,-0.2 0,-0.4c-0.1,-0.1 0.2,-1 0.4,-1.2l1.1,-0l0.4,-0.1c0.267,-0.333 0.2,-0.7 -0.2,-1.1c-0.3,-0.3 -0.4,-1 -0.1,-1c0.3,-0 0.3,-0.4 -0.2,-0.4l-0.3,-0.1l-0.3,-0.2l-0.1,-0c0.133,-0.133 0,-0.3 -0.4,-0.5l-0.2,-0.3l-0.3,-0l-0.3,0.3l0.3,0.3c0.3,-0 0.2,0.6 0,0.7c-0.133,-0 -0.233,0.067 -0.3,0.2c-0.067,0.133 -0.133,0.2 -0.2,0.2l-0.3,-0c-0.333,0.267 -0.6,0.2 -0.8,-0.2c-0.133,-0.133 -0.3,-0.2 -0.5,-0.2l0.3,0.3c0.067,0.067 0,0.167 -0.2,0.3l-0.3,0.1l-0.4,0.1l-0.2,0.2l0,0.2c0.2,-0 0.6,0.5 0.5,0.6l0,0.1c0,0.2 -0.1,0.3 -0.3,0.3c-0.267,-0.133 -0.4,-0 -0.4,0.4c0,0.2 -0.067,0.267 -0.2,0.2c-0.2,0.067 -0.267,-0.1 -0.2,-0.5l-0.1,-0.8c-0.4,-0.4 -0.4,-0.567 0,-0.5l0.2,-0l0,-0.5l-0.2,-0.1c-0.133,0.067 -0.2,-0.1 -0.2,-0.5l0,-0.4c-0.133,-0 -0.2,-0.067 -0.2,-0.2l0,-0.3c-0.133,-0 -0.2,0.067 -0.2,0.2l-0.1,0.3c-0.2,-0 -0.2,0.7 0,0.8c0.4,0.3 -0.1,0.7 -0.8,0.4c-0.2,-0 -1,-0.8 -1,-1l-0.3,-0.1c-0.267,-0 -0.3,-0.1 -0.1,-0.3c0.133,-0.067 0.133,-0.133 0,-0.2l0,-0.2l-0.1,-0.1l-0.3,-0.6l-0.1,0.1c-0.067,0.267 -0.133,0.367 -0.2,0.3l-0.4,-0.6l-0.1,-0.3c-0.2,-0.2 -0.2,-0.4 0,-0.6c0,-0.2 -0.167,-0.367 -0.5,-0.5l-0.2,-0.2l0.1,-0l0.2,-0.2c0,-0.533 -0.167,-0.6 -0.5,-0.2c-0.2,0.333 -0.3,0.333 -0.3,-0l-0.1,-0.1c-0.4,-0.133 -0.567,-0.4 -0.5,-0.8l0,-2.2c0.133,-0.333 0,-0.667 -0.4,-1c-0.533,-0.467 -0.7,-0.867 -0.5,-1.2c0.067,-0.133 0,-0.233 -0.2,-0.3l0,-0.3c0.2,-0.467 0.167,-0.567 -0.1,-0.3c-0.267,0.267 -0.4,0.267 -0.4,-0c0,-0.267 -0.1,-0.333 -0.3,-0.2c-0.333,0.467 -0.433,0.4 -0.3,-0.2l-0.1,-0.4l-0.2,-0.3l0,-4.2l0.1,-0l0.5,-2l0.2,-0.7l0.1,1.5Zm1.8,-0.8l0,0.2l0,-0.2Zm22,-0.1l-0.2,0.3l0.2,-0.3Zm14.1,0.2l0,-0.1l0,0.1Zm7.4,-0l0,-0.1l0,0.1Zm5.5,-1.2c-0.2,-0.067 -0.3,-0.233 -0.3,-0.5c0,0.2 0.133,0.367 0.4,0.5m-40.5,-0.1l-0.1,-0m39.3,-0l-0.2,-0m-5.4,-0.3l0,0.3m-6.1,-1l-0.1,-0m-3.7,-0.5l0,-1.3m-18.4,-0l0,-0.1m-5.5,-0.2l0,-0.2l0,0.2Zm16.7,-0l-0.3,-0.2l0.3,0.2Zm3,-0.2l0,-0.1m-23.9,-0.3l0,-0.1m-1,-0.2l-0.1,-0.1m-0.2,-0.1l-0.2,-0l0.2,-0Zm0.7,-0.5l-0.1,0.1m30.6,0.1l0,-0.1m-25.4,-0.1l0,0.7m21.1,-0.5l0.2,-0.5c-0.2,0.2 -0.267,0.367 -0.2,0.5m-27.6,-1.2l0,-0.2l0.1,-0l-0.1,0.2Zm7.4,-0l0.1,-0.2l-0.1,0.2Zm5.5,-1.1l0.1,-0.1l-0.1,0.1Z"
          style="fill:#c5c5c5;fill-rule:nonzero;"/>
    <path d="M363.3,93.1l0.2,-0.4c0.2,-0.2 0.333,-0.233 0.4,-0.1c0.067,0.2 0.3,0.3 0.7,0.3l0.4,0.2l-1.7,-0Zm2,-0l0.2,-0.4c0,-0.2 0.067,-0.3 0.2,-0.3l0.1,-0.1c0,-0.133 -0.067,-0.233 -0.2,-0.3c-0.267,-0 -0.467,-0.133 -0.6,-0.4c0,-0.333 -0.2,-0.333 -0.6,-0l-0.3,0.2l0,-0.5l0.5,-0.5l0.2,-0.3c-0.2,-0 -0.4,-0.6 -0.3,-0.7l-0.3,-0.4c-0.267,-0.067 -0.3,-0.133 -0.1,-0.2c0.133,-0 0.167,-0.1 0.1,-0.3l-0.2,0.2c0,0.1 -0.5,0.2 -0.6,-0c0,-0.133 0.1,-0.233 0.3,-0.3c0.2,-0.067 0.233,-0.133 0.1,-0.2l0,-1.1c-0.067,-0.333 -0.133,-0.333 -0.2,-0l0,0.2c-0.2,-0 -0.1,-0.5 0,-0.6l0,-0.4c-0.133,-0 -0.2,-0.2 -0.2,-0.6l-0.1,-0c-0.133,-0 -0.2,0.067 -0.2,0.2l0,0.2l-0.1,0.3l-0.3,0.3l0.2,0.2l0,0.1l-0.1,0.3l-0.1,0.2c-0.2,0.2 -0.333,0.433 -0.4,0.7l-0.5,1l0,0.3c0,0.2 -0.133,0.333 -0.4,0.4l0,-0.3c0.2,-0.133 0.267,-0.3 0.2,-0.5l0.1,-0.5l0.2,-0.4l0,-0.9l0.1,-0l0.4,-1l0.1,-0.2c0.067,-0.267 0,-0.433 -0.2,-0.5l-0.3,-0l0,-0.2l-0.1,-0.5l0,-0.3l-0.2,-0.2l0,-0.2c-0.267,-0.133 -0.267,-0.267 0,-0.4l0.2,-0l-0.2,-0c-0.2,-0.067 -0.3,-0.2 -0.3,-0.4l0.3,0.1c0.133,0.067 0.233,-0 0.3,-0.2l-0.3,-0l-0.2,-0.1l0,-0.2c-0.2,-0.2 0.2,-0.2 0.3,-0l0.2,-0l-0.1,-0.2l-0.1,-0l-0.2,-0.2l0,-0.2l-0.6,-0.6c0,-0 -0.8,-0.8 -1,-0.8c-0.2,-0 -1.2,-1.1 -1.2,-1.4l0,-0.1l0.2,-0c0.2,-0 0.3,0.1 0.3,0.3c0,0.2 0.2,0.333 0.6,0.4c0.4,0.067 0.567,0.233 0.5,0.5c0,0.133 0.033,0.133 0.1,-0l0.4,-0c0.067,0.2 0.133,0.233 0.2,0.1l0.4,-0c0.133,0.2 0.267,0.233 0.4,0.1l0.4,-0l0,0.2l0.2,0.3c0.333,0.133 0.467,0.233 0.4,0.3l0.2,-0c0.2,-0 0.233,-0.1 0.1,-0.3l0,-0.4c-0.2,-0.133 -0.3,-0.267 -0.3,-0.4l0.2,-0c0.2,0.067 0.333,-0.033 0.4,-0.3l0,-0.5l-0.1,-0.1l0,-0.2l0.2,-0.2l0.4,-0.2c0.133,-0.2 0.267,-0.3 0.4,-0.3l0.1,-0.1l0.1,-0.2l0.2,-0l0,0.3c0.133,-0 0.233,-0.133 0.3,-0.4c0.067,-0.267 0.233,-0.367 0.5,-0.3c0.267,0.067 0.433,-0.033 0.5,-0.3c0.067,-0.267 0.267,-0.367 0.6,-0.3l0,0.2c-0.467,-0 -0.667,0.167 -0.6,0.5c0.4,0.467 0.8,0.467 1.2,-0l0.2,-0.2l0.2,-0.6l-0.2,-0l-0.4,-0.4l-0.1,-0.2l0.3,-0.2l0.2,-0c0.333,0.067 0.533,0.3 0.6,0.7c0,0.133 0.1,0.167 0.3,0.1l0,-0.3c-0.2,-0 -0.3,-0.7 -0.1,-0.8c0.133,-0.267 0.033,-0.333 -0.3,-0.2c-0.3,0.2 -0.2,-0.2 0.1,-0.4c0.2,-0.133 0.3,-0.267 0.3,-0.4c0.067,-0.267 0.167,-0.267 0.3,-0l0,0.1c0.1,-0 0,0.8 -0.2,1c-0.2,0.267 -0.2,0.433 0,0.5l0.3,-0.1c0,-0.133 0.067,-0.2 0.2,-0.2c0.133,-0 0.2,-0.067 0.2,-0.2c-0.067,-0.2 0.033,-0.267 0.3,-0.2l0.2,-0c0.2,-0 0.3,0.067 0.3,0.2c-0.067,0.333 -0.2,0.533 -0.4,0.6l-0.2,0.2l-0.3,0.1c-0.4,-0 -0.8,0.5 -0.6,0.7l0.2,-0c0.2,-0.2 0.333,-0.2 0.4,-0c0,0.2 -0.133,0.3 -0.4,0.3c-0.133,-0 -0.233,0.067 -0.3,0.2c-0.333,0.2 -0.433,0.367 -0.3,0.5c0.133,-0 0.133,0.067 0,0.2c-0.133,0.133 -0.233,0.267 -0.3,0.4c-0.067,0.133 -0.133,0.233 -0.2,0.3l0,0.2c0.067,0.067 0.233,-0 0.5,-0.2l0.2,-0.2l0.1,0.2c0.133,0.133 0.3,0.2 0.5,0.2c0.333,-0 0.533,0.133 0.6,0.4c0,0.133 0.067,0.133 0.2,-0l0.4,-0l0.1,-0.1c0.2,-0.067 0.2,-0.2 0,-0.4l-0.3,-0.2l-0.5,-0.2l-0.8,-0.1c-0.067,-0.267 0,-0.467 0.2,-0.6l0.2,-0.3l0.1,-0.2l0,-0.3c0,-0.2 0.1,-0.3 0.3,-0.3l0.2,-0.1l0.2,0.1c0,0.2 0.1,0.3 0.3,0.3l0.3,-0c0.3,-0 0.8,0.6 0.7,0.7c0,0.2 -0.4,0.2 -0.4,-0l-0.1,-0l-0.1,-0.2c0,-0.3 -0.8,-0.1 -0.8,0.2l0.2,0.1c0.333,0.067 0.533,0.2 0.6,0.4l0,0.1l0.2,0.2c0,0.4 1.2,0.3 1.4,-0.2c0.267,-0.267 0.4,-0.167 0.4,0.3c0.067,0.467 -0.067,0.667 -0.4,0.6c-0.133,-0 -0.2,-0.067 -0.2,-0.2l0,-0.2l-0.4,-0c-0.2,-0 -0.367,0.067 -0.5,0.2l-0.4,0.2c-0.333,0.133 -0.533,0.333 -0.6,0.6l1.2,-0l0.2,0.1c0.2,-0.067 0.3,0.067 0.3,0.4c0,0.333 0.1,0.467 0.3,0.4c0.4,-0 0.467,0.1 0.2,0.3l-0.3,0.2c-0.267,0.067 -0.267,0.2 0,0.4c0.467,0.267 0.367,0.4 -0.3,0.4c-0.467,-0 -0.7,0.1 -0.7,0.3c0.133,0.133 0.3,0.2 0.5,0.2c0.2,-0 0.233,0.033 0.1,0.1l0.1,0.6l0,0.2c-0.133,0.333 0.067,0.467 0.6,0.4c0.733,-0 0.933,0.1 0.6,0.3l-1,-0l-1.2,0.4c-0.333,-0 -0.333,0.067 0,0.2l0.3,-0c0,-0.2 0.1,-0.2 0.3,-0c0.267,0.133 0.2,0.267 -0.2,0.4c-0.267,0.067 -0.467,0.233 -0.6,0.5l0,0.1l-0.1,0.1c0,0.2 -0.1,0.267 -0.3,0.2c-0.3,-0.2 -1.5,-0.2 -1.5,-0l-0.2,0.3c-0.2,0.133 -0.2,0.267 0,0.4c0.267,-0 0.4,0.133 0.4,0.4l0,0.2l-0.2,-0l-0.6,-0.5c-0.133,-0.133 -0.2,-0.133 -0.2,-0l0,0.3l0.2,0.3l0.2,0.2l-0.2,-0c-0.333,0.067 -0.5,0.2 -0.5,0.4l-0.2,0.2c-0.2,0.2 0.3,0.6 0.6,0.5c0.2,-0 0.3,0.1 0.3,0.3l0,0.2l-0.2,0.1c0,0.333 0.1,0.4 0.3,0.2c0.2,-0.267 0.333,-0.233 0.4,0.1c0.133,0.467 0.267,0.7 0.4,0.7c0.733,-0 0.933,-0.067 0.6,-0.2l-0.1,-0.2l-0.2,-0.2c-0.267,-0 -0.333,-0.167 -0.2,-0.5c0,-0.2 0.133,-0.233 0.4,-0.1l0.3,-0c0.333,-0.267 0.533,-0.3 0.6,-0.1c0.133,0.133 0.133,0.2 0,0.2c-0.4,0.067 -0.533,0.233 -0.4,0.5c0,0.3 0.6,0.2 0.7,-0c0,-0.267 0.1,-0.333 0.3,-0.2l0.3,-0.2c0.133,-0.133 0.067,-0.233 -0.2,-0.3c-0.2,-0 -0.2,-0 0,-0c0.4,-0 0.533,-0.133 0.4,-0.4c0,-0.4 0.2,-0.5 0.6,-0.3c0.267,0.2 0.367,0.2 0.3,-0c0.133,-0.067 0.267,-0.067 0.4,-0c0.2,0.667 0.5,0.867 0.9,0.6c0.2,-0.267 0.3,-0.267 0.3,-0c0,0.267 0.1,0.333 0.3,0.2l0.2,-0c0.067,0.067 0.133,-0 0.2,-0.2c0.067,-0.2 0.233,-0.3 0.5,-0.3c0.267,-0 0.333,0.1 0.2,0.3c-0.267,0.133 -0.333,0.233 -0.2,0.3c-2.914,1.284 -6.025,2.062 -9.2,2.3l-0.1,0.1l-0.6,0Zm-6.5,-0.4l0.4,0l0.6,-0.1l0.4,-0.1l0.5,0.1l0.5,0l1.1,0.2c0,0.2 -0.067,0.233 -0.2,0.1l-0.4,0.1c-1,0 -1.967,-0.1 -2.9,-0.3m7.3,0l-0.2,0l0,-0.1l0.2,0.1Zm-6,-0.8l0,0.5c0.267,0 0.4,-0.1 0.4,-0.3c0,-0.333 -0.133,-0.4 -0.4,-0.2m8.3,0c0.133,0.333 0,0.467 -0.4,0.4c-0.267,-0.067 -0.4,-0.2 -0.4,-0.4l0.8,0Zm-1.6,0l-0.3,0.4l0.1,-0.4l0.2,0Zm-9.8,0.2c0,0.067 0.033,0.067 0.1,0l-0.1,0Zm0.7,-0.6c0.267,0.133 0.367,0.133 0.3,0l0,-0.1l-0.5,0l0.2,0.1Zm9.9,-0.2l-0.3,0c-0.267,0 -0.367,-0.067 -0.3,-0.2l0.6,0.2Zm0.8,-0.1c0.133,0 0.133,0.033 0,0.1l-0.4,-0.1l0.4,0Zm-5.1,-0.3c0,0.267 0.133,0.4 0.4,0.4c0.2,0 0.167,-0.133 -0.1,-0.4l-0.3,0Zm9.3,-0.6c0.067,0.2 0.033,0.367 -0.1,0.5l-0.3,0.3l-0.1,0l0,-0.4c0.133,-0.333 0.3,-0.467 0.5,-0.4m1.1,0.6l-0.3,0l0.3,0Zm-4.2,-0.1l-0.3,0c-0.067,-0.2 0,-0.233 0.2,-0.1m-7,-0.3c-0.2,0.2 -0.133,0.333 0.2,0.4c0.4,0 0.433,-0.1 0.1,-0.3l-0.3,-0.1Zm0,0l-0.2,0m-4,-0.1c-0.133,0.067 -0.133,0.133 0,0.2l0.2,0c0.2,-0.2 0.133,-0.267 -0.2,-0.2m10.4,-0.6l-0.2,0.2c-0.2,0.267 -0.1,0.4 0.3,0.4c0.4,0 0.467,-0.167 0.2,-0.5c-0.2,-0.133 -0.3,-0.133 -0.3,0m-5.8,0.4l0,0.1l0.1,0l-0.1,-0.1Zm0.7,-0.4l0.1,0.3c0.133,0 0.2,-0.067 0.2,-0.2c0,-0.133 -0.1,-0.167 -0.3,-0.1m1.6,-1.7c0.133,0.267 0.3,0.433 0.5,0.5c0.133,0.133 0.167,0.3 0.1,0.5l-0.3,0.1c-0.267,0.133 -0.233,0.2 0.1,0.2c0.333,0 0.4,0.1 0.2,0.3l-0.3,0.2c-0.333,0.2 -0.467,0.133 -0.4,-0.2l0,-0.2c-0.133,-0.067 -0.133,-0.2 0,-0.4l0,-0.3l-0.3,-0.7c0,-0.267 0.133,-0.267 0.4,0m11.2,1.9l0,-0.3l0.6,-0.4l0.2,0l0.2,-0.3c0.2,0 0.2,-0.067 0,-0.2l0,-0.3c0.133,-0.2 0.267,-0.2 0.4,0c0.067,0.2 0.2,0.233 0.4,0.1l0.5,0l-2.3,1.4Zm-2.1,-0.4l-0.2,0.2l0,0.1l0.1,0l0.3,-0.1c0.133,0 0.2,-0.067 0.2,-0.2c-0.067,-0.2 -0.2,-0.2 -0.4,0m1.5,0.2c0,0.067 0.033,0.067 0.1,0l0.2,0l0,-0.1l-0.3,0.1Zm-8.3,-0.4l0,0.2c0,0.067 0.033,0.067 0.1,0l0.1,-0.1c0.133,-0.067 0.133,-0.133 0,-0.2l-0.2,0.1Zm2.7,-0.3c0,0 0,0.4 0.2,0.4c0.2,0 0.3,-0.4 0,-0.4l-0.2,0Zm-20.4,0.2c-0.133,0 -0.133,0.033 0,0.1l0.1,0l-0.1,0m21.8,-0.3l0,0.3c0.333,0 0.5,-0.1 0.5,-0.3l-0.5,0Zm-0.6,-1l-0.3,0l0.5,0.6l0.3,0c0.133,0.2 0.233,0.2 0.3,0l0.3,0.1c0.1,0.2 0.6,0.2 0.6,0c-0.133,-0.267 -0.3,-0.367 -0.5,-0.3c-0.267,0.133 -0.4,0.1 -0.4,-0.1l0,-0.4c-0.133,-0.133 -0.4,-0.167 -0.8,-0.1m-2.2,0.7c0.267,0.067 0.4,0.067 0.4,0c-0.067,-0.067 -0.2,-0.067 -0.4,0m-1.7,-0.9l0,0.3l-0.2,0.5l0,0.2l-0.3,0c-0.533,0 -0.767,-0.1 -0.7,-0.3l-0.2,-0.4c-0.133,-0.333 -0.067,-0.367 0.2,-0.1c0.333,0.2 0.5,0.2 0.5,0l0.2,0l0.2,-0.2l0.3,0Zm2.6,0.4c-0.133,0.067 -0.167,0.133 -0.1,0.2l0.4,-0.1l0,-0.2l-0.3,0.1Zm3.2,-0.4l0.2,0.4l0.5,0c0.2,0 -0.4,-0.5 -0.7,-0.4m-4.3,0.1c-0.133,0.2 -0.033,0.3 0.3,0.3c0.2,0 0.2,-0.067 0,-0.2l-0.3,-0.1Zm1,-0.2l0.1,0.2c0,0.2 0.067,0.233 0.2,0.1l0,0.1c0.133,0 0.133,-0.067 0,-0.2c-0.067,-0.133 -0.2,-0.133 -0.4,0m4.6,-0.4l0.1,0l-0.1,0Zm0,0c0,-0.067 0,-0.067 0,0m-7.6,-0.7c0.333,0.2 0.533,0.2 0.6,0l0,0.3l-0.2,0c0,0.4 -0.8,0.3 -1,0c-0.267,-0.467 -0.067,-0.567 0.6,-0.3m2.2,-0.5l0.3,0.1c0.067,0 0.067,0.067 0,0.2l0.1,0.3c0.267,0.333 0.167,0.4 -0.3,0.2c-0.2,-0.133 -0.367,-0.133 -0.5,0c-0.333,0.067 -0.467,-0.033 -0.4,-0.3c0.067,-0.533 0.333,-0.7 0.8,-0.5m6.3,0.3l0,0.2l0.2,0c0.067,-0.133 0,-0.2 -0.2,-0.2m3.2,-0.2c-0.267,0.2 -0.3,0.333 -0.1,0.4c0.267,-0.067 0.4,-0.2 0.4,-0.4l-0.3,0Zm-18,-1l0.1,0.4l0.2,0.3l0,0.1c0.2,0 0.233,-0.067 0.1,-0.2l0.1,-0.3c0.2,-0.133 0.2,-0.2 0,-0.2l-0.1,-0.1l-0.4,0Zm-4,0.6l0.2,0l-0.2,0Zm6.4,-3.1c0.133,0.133 0.133,0.233 0,0.3l0.1,0.2l0.3,0l0.1,0.1l0.3,0c0.4,-0.333 0.667,-0.433 0.8,-0.3l0.1,0.1c0.2,0 0.233,-0.067 0.1,-0.2c0,-0.133 0.067,-0.233 0.2,-0.3c0.133,-0.067 0.167,0 0.1,0.2c0,0.267 0.067,0.4 0.2,0.4c0.267,0.067 0.433,0.233 0.5,0.5l0.3,0.3c0.4,0 0.5,0.5 0,0.6c-0.2,0 -0.2,0.2 0,0.6c0.267,0.333 0.2,0.433 -0.2,0.3c0,-0.067 -0.133,-0.067 -0.4,0l-1,0l-0.2,-0.1l-0.3,-0.1l-0.3,0c-0.267,0 -0.4,-0.1 -0.4,-0.3l-0.2,-0.2c-0.3,-0.1 -0.3,-0.7 0,-1l0.2,-0.2l-0.2,-0.2l-0.2,-0.3l0,-0.2c-0.267,-0.333 -0.267,-0.4 0,-0.2m17,2.5l0.1,0.1l0,-0.1c0,-0.2 -0.033,-0.2 -0.1,0m-9.7,-0.2c0.267,0.133 0.2,0.233 -0.2,0.3l-0.2,-0.1l0,-0.3c-0.4,0 0.1,-0.1 0.4,0m-7.8,-0.1c0.2,0 0.2,0.1 0,0.3c-0.133,0 -0.167,-0.1 -0.1,-0.3l0.1,0Zm-15.2,0c0,0.2 0.033,0.233 0.1,0.1l0,-0.2c0,-0.133 -0.033,-0.133 -0.1,0m27.3,0c-0.133,0 -0.1,0.033 0.1,0.1l0.2,-0.1c0,-0.2 -0.1,-0.2 -0.3,0m-3,-0.8l0.2,0l0,0.3c0.3,0.1 0,0.7 -0.4,0.6c-0.133,0 -0.133,-0.133 0,-0.4c0.067,-0.133 -0.1,-0.233 -0.5,-0.3l-0.4,0c0.267,-0.2 0.533,-0.3 0.8,-0.3l0.3,0.1Zm-13.3,0.8l0.2,0l-0.2,0Zm6.4,-1.2c-0.6,0.4 -0.4,1.3 0.3,1.2l0.4,0c0.333,0 0.5,-0.1 0.5,-0.3l0,-0.2c0,-0.267 -0.1,-0.5 -0.3,-0.7l-0.9,0Zm5,0.4c0.067,0.2 -0.167,0.333 -0.7,0.4l-0.3,0l0.2,-0.4c0,-0.1 0.7,-0.1 0.8,0m14.2,0.2l0,-0.2l0,0.2Zm-16.4,0l-0.2,0c0,-0.067 0.067,-0.067 0.2,0m-6.6,-0.4c0,0.133 0.067,0.167 0.2,0.1l0.1,-0.1l-0.3,0Zm9.7,0l-0.2,0.1c-0.2,0 -0.2,-0.1 0,-0.3c0.133,0 0.2,0.067 0.2,0.2m-20.4,-0.2l0,0.2l0.1,-0.1c0,-0.067 -0.033,-0.067 -0.1,0m31.2,0l0.1,0l-0.1,0Zm-13,0l-0.2,0c-0.133,0 -0.133,-0.033 0,-0.1l0.2,0.1Zm-7.4,-0.3l0.4,0.2c-0.067,-0.2 -0.2,-0.267 -0.4,-0.2m19.8,0c0,0.2 0.067,0.2 0.2,0l0.1,0l-0.3,0Zm4.7,-0.1c-0.2,0.133 -0.233,0.2 -0.1,0.2l0.3,-0.3l-0.2,0.1Zm-1.4,-1.8l-0.6,0c-0.2,0 -0.433,0.167 -0.7,0.5l-0.4,0.5l-0.1,0.2l-0.3,0.1l-0.3,0.2l-0.2,0.1c-0.267,0 -0.367,0.067 -0.3,0.2l1.4,0l0.3,-0.3l0.3,-0.2l0.2,-0.1c0.2,0 0.333,-0.1 0.4,-0.3c0,-0.133 -0.1,-0.2 -0.3,-0.2c-0.2,0 -0.267,-0.1 -0.2,-0.3l0,-0.3l0.4,0l0.4,-0.1Zm-4.5,1.5l0,0.3c0.133,0 0.2,-0.067 0.2,-0.2c0,-0.133 -0.067,-0.167 -0.2,-0.1m-9.4,-0.4c0.067,0.2 -0.1,0.333 -0.5,0.4l-0.4,0.2l-0.2,0l0.4,-0.4l0.2,-0.1c0.133,-0.2 0.3,-0.2 0.5,0m9.8,0.1c-0.133,0.2 -0.1,0.333 0.1,0.4l0.7,0l-0.5,-0.4l-0.1,0c-0.067,-0.133 -0.133,-0.133 -0.2,0m-8,-1c0,0.533 -0.1,0.833 -0.3,0.9c0,0.267 -0.233,0.4 -0.7,0.4c-0.467,0 -0.6,-0.067 -0.4,-0.2l-0.2,-0.2l0.1,-0.1c0,-0.267 0.167,-0.4 0.5,-0.4c0.333,0 0.5,-0.033 0.5,-0.1c0,-0.067 0.067,-0.133 0.2,-0.2l0.1,-0.2c0,-0.2 0.067,-0.2 0.2,0m-9.8,-0.3c0.067,0.2 0.2,0.333 0.4,0.4c0.1,0 0.6,0.6 0.6,0.8l0,0.2l-0.2,0.1l-0.5,-0.5l-0.5,-0.4l-0.2,-0.6c0.067,-0.067 0.2,-0.067 0.4,0m12.6,0.2c-0.067,0.2 -0.033,0.367 0.1,0.5c0.133,0.133 0.133,0.267 0,0.4l0,0.2c0.067,0.267 0.267,0.267 0.6,0l0.2,-0.3l-0.2,0c-0.2,-0.133 -0.2,-0.3 0,-0.5l0,-0.3l-0.7,0Zm-14.9,1l0.2,0.1l-0,-0.2l-0.2,0.1Zm-10.4,-0.4c-0,0.2 0.133,0.333 0.4,0.4c0.133,-0.067 0.133,-0.2 -0,-0.4l-0.4,0Zm-0.6,-0.4l-0.1,0.2l-0.1,0.1c-0.133,0.267 -0.067,0.4 0.2,0.4c0.4,-0.2 0.5,-0.8 -0,-0.7m28.7,0.1l-0,0.3c0.267,0 0.367,-0.067 0.3,-0.2l-0.3,-0.1Zm-7.7,-0.4l-0.2,0c0.133,-0.2 0.2,-0.2 0.2,0m12.1,-0.2c-0.2,0 -0.2,0.033 -0,0.1l0.5,0c-0,-0.2 -0.167,-0.2 -0.5,0m-34.5,-0.5c0.067,0.267 0.233,0.467 0.5,0.6c0.133,0 0.133,-0.067 -0,-0.2c-0.267,-0.333 -0.433,-0.467 -0.5,-0.4m30,0.6l0.1,0l-0.1,0Zm-28.6,-0.3l0.1,0.2c0.133,-0.067 0.133,-0.133 -0,-0.2c-0,-0.067 -0.033,-0.067 -0.1,0m10.8,0l-0,0.2l0.1,0c-0,-0.133 -0.033,-0.167 -0.1,-0.1m18.5,-0.2l-0,0.2l-0,-0.2Zm-0,0c0.2,-0.133 0.2,-0.167 -0,-0.1m-11.9,0l-0.1,0.2l-0.2,-0.3l0.3,0.1Zm3.2,0l-0.4,0.1c0.133,-0.2 0.267,-0.233 0.4,-0.1m9.2,-0.3c-0.067,0.133 -0,0.233 0.2,0.3c0.267,-0.133 0.267,-0.233 -0,-0.3l-0.2,0Zm-35.3,-1.7c-0.267,0.2 -0.6,0.2 -1,0l-0.3,0c-0,0.267 0.067,0.4 0.2,0.4c0.2,0 0.3,0.5 0.2,0.5c-0.2,0 0.2,0.5 0.5,0.5l0.1,0c0.1,0.4 1,0.5 1.1,0.3l-0.1,-0.7l-0.2,-0.2c-0,-0.133 -0.067,-0.2 -0.2,-0.2c-0.267,-0.267 -0.267,-0.4 -0,-0.4c0.2,0 0.267,-0.067 0.2,-0.2c-0.133,-0.2 -0.3,-0.2 -0.5,0m19.4,1.6l-0,0.2l0.2,-0.1l-0.2,-0.1Zm22,0l-0,0.2l0.1,-0.1l-0,-0.1l0.1,0l-0.2,0Zm-3,0c0.267,0.067 0.333,0.033 0.2,-0.1l-0.2,0.1Zm-34.7,-0.2c-0.2,0.2 -0.2,0.267 -0,0.2c0.267,0 0.333,-0.067 0.2,-0.2l-0,-0.2l-0.2,0.2Zm28.6,0l-0.1,0.2l0.1,0l0.3,-0.1l-0,-0.1c0.2,0 0.233,-0.033 0.1,-0.1c-0.067,-0.133 -0.2,-0.1 -0.4,0.1m-10.6,-0.4l-0.3,0.5c-0.267,-0.133 -0.267,-0.3 -0,-0.5l0.3,0Zm19.2,-0.1c-0.2,0.133 -0.267,0.267 -0.2,0.4l0.3,-0.2c0.2,-0.333 0.2,-0.4 -0,-0.2m-8.2,0l-0,0.2c0.2,0 0.3,-0.1 0.3,-0.3l-0.3,0.1Zm9.5,0l0.1,0l-0,-0.2l-0.1,0.2Zm-11.3,-0.4c-0.333,0.133 -0.467,0.233 -0.4,0.3c0.067,0.067 0.267,0 0.6,-0.2c-0,-0.133 -0.067,-0.133 -0.2,0m-31.3,0.1c-0,-0.2 0.067,-0.2 0.2,0m45.2,-6.9l-0,0.4c-0,0.8 -0.2,1.4 -0.5,1l-0.8,0c-0.2,0 -0.233,0.067 -0.1,0.2l-0,1c0.133,0.2 0.1,0.433 -0.1,0.7l-0,0.3c0.067,0.2 -0,0.433 -0.2,0.7l-0.2,0.2l-0.3,0.2l-0.2,0.2l0.1,0c0.267,0 0.433,0.1 0.5,0.3c0.067,0.2 0.1,0.2 0.1,0l0.2,0c0.133,0 0.133,0.067 -0,0.2l-0.1,0.2l-0.2,0.2c-0.333,0.2 -0.533,0.433 -0.6,0.7l-0.1,0.2c-0.133,0.133 -0.133,0.2 -0,0.2c0.2,0.067 0.267,0.067 0.2,0l0.1,-0.2c0.2,0 0.3,-0.067 0.3,-0.2c-0,-0.133 0.333,-0.367 1,-0.7c0.333,-0.133 0.333,-0.233 -0,-0.3l-0.2,0l0.4,-0.2l0.1,0l0.3,-0.2l0.1,0l0.2,-0.2l0.4,-0.3c0.067,-0.2 0.2,-0.367 0.4,-0.5l0.1,-0.5c-0,-0.267 0.067,-0.467 0.2,-0.6l0.4,-0.7l0.2,-0.5l-0,-0.1l-0.3,0.4c-0,0.133 -0.1,0.2 -0.3,0.2l-0.3,0l-0.2,0.2c-0.133,0 -0.133,-0.133 -0,-0.4c0.4,-0.533 0.367,-0.867 -0.1,-1c-0.267,0 -0.4,-0.2 -0.4,-0.6l-0.1,-0.5Zm-0,0l-0,-0.1l-0,0.1Zm-44,6.4l0.1,0.3c0.2,0.2 0.267,0.2 0.2,0c-0,-0.333 -0.067,-0.433 -0.2,-0.3m29,0.2c0.133,0 0.233,-0.067 0.3,-0.2c-0.067,-0.067 -0.133,-0.067 -0.2,0m1.7,-0.2l0.3,0c-0,-0.133 -0.033,-0.133 -0.1,0m-4.7,0c-0.067,0.133 -0.2,0.167 -0.4,0.1l0.4,-0.1Zm17.3,-0.3c-0.133,0.267 -0.133,0.4 -0,0.4l0.3,-0.3c-0,-0.2 -0.1,-0.2 -0.3,0m-12,-0.4c-0.2,0.2 -0.2,0.7 0.1,0.6c0.467,-0.267 0.567,-0.467 0.3,-0.6l-0.4,0Zm-1.3,0c-0.267,0.333 -0.133,0.433 0.4,0.3l0.2,-0.1l-0.2,-0.2c-0.2,-0.133 -0.333,-0.133 -0.4,0m-33.4,0c-0,0.2 0.1,0.3 0.3,0.3l-0.1,-0.3l-0.2,0Zm27.8,-0.1l-0,0.3l-0.2,0l-0,-0.3l0.2,0Zm3.4,-0.1l-0.1,0.2l0.2,-0.2c0.067,-0.133 0.033,-0.133 -0.1,0m3.9,-1.2l0.1,0.4c0.267,0.2 0.167,0.333 -0.3,0.4l-0.3,0l-0,0.3l0.1,0.2l0.9,-0.3l0.2,-0.2c0.333,-0.2 0.333,-0.3 -0,-0.3c-0.333,0 -0.433,-0.067 -0.3,-0.2c-0,-0.333 -0.133,-0.433 -0.4,-0.3m-10.1,1c-0.2,0 -0.2,0.067 -0,0.2l0.2,0c-0,-0.133 -0.067,-0.2 -0.2,-0.2m5.1,-0.7l-0.9,0.3l-0,0.4l0.4,0c0.467,0 0.633,-0.067 0.5,-0.2l0.2,-0.3c0.267,-0.4 0.2,-0.467 -0.2,-0.2m7.5,0.1l-0.3,0.2c-0.333,0.133 -0.4,0.233 -0.2,0.3l0.2,-0.2l0.2,0c0.267,-0.067 0.4,-0.167 0.4,-0.3l-0.3,0Zm-12.3,0l-0,0.3l0.3,0c0.267,0 0.3,-0.067 0.1,-0.2l-0.2,0c-0.067,-0.067 -0.133,-0.067 -0.2,0m20.8,-0.5c-0,0.267 -0.133,0.433 -0.4,0.5c-0.2,0 -0.2,-0.133 -0,-0.4c0.2,-0.2 0.333,-0.233 0.4,-0.1m-40,-0.1c0.133,0.067 0.167,0 0.1,-0.2c-0.067,-0.067 -0.133,-0.067 -0.2,0m41.9,-0.4l0.1,0.3c0.2,0 0.267,-0.067 0.2,-0.2c-0.067,-0.133 -0.167,-0.167 -0.3,-0.1m-21.3,0.2l0.2,0l-0.2,0Zm15.3,-0.4c-0.2,0.2 -0.2,0.333 -0,0.4c0.267,0 0.367,-0.1 0.3,-0.3c-0,-0.2 -0.1,-0.2 -0.3,0m-10.6,0.2l-0,0.2l0.1,-0.1c-0,-0.133 -0.033,-0.133 -0.1,0m0.3,-1.2l-0.2,0.1l-0.4,0c-0.4,0 -0.6,0.1 -0.6,0.3l-0.1,0.2l0.1,0.1l0.2,0.4c-0,0.333 0.133,0.333 0.4,0c0.133,-0.133 0.233,-0.167 0.3,-0.1c0.267,0 0.433,-0.133 0.5,-0.4l0.2,-0.3c-0,-0.267 -0.133,-0.367 -0.4,-0.3m4.7,0.3l-0.2,0.1c-0.2,0 -0.9,0.6 -0.9,0.8l0.7,-0.1l0.4,-0.4l0.2,-0.1c0.2,0 0.267,-0.1 0.2,-0.3l-0.4,0Zm10.2,0.7l-0.2,0l0.2,0Zm-8.9,-0.2l0.1,0.2c0.133,0 0.133,-0.067 -0,-0.2c-0,-0.067 -0,-0.067 -0,0m-7.8,-0.2l-0,0.3c0.133,0 0.167,-0.1 0.1,-0.3l-0.1,0Zm19.4,-1.2l-0.2,0.5l-0.2,0.4c-0,0.2 -0.1,0.333 -0.3,0.4c-0.2,0 -0.2,-0.1 -0,-0.3l0.2,-0.3l0.1,-0.3l0.4,-0.4Zm-17.9,1l-0,0.2c-0.267,0.067 -0.367,0.033 -0.3,-0.1c0.067,-0.133 0.167,-0.167 0.3,-0.1m15.3,0.1c-0.2,0.133 -0.2,0.067 -0,-0.2l-0,0.2Zm-14.2,-0.5l-0,0.1l0.1,0.2c-0,0.067 0.033,0.067 0.1,0c0.133,-0.333 0.067,-0.433 -0.2,-0.3m3,0.2l-0,0.1l0.1,0c-0,-0.2 -0.033,-0.2 -0.1,0m-4.8,-0.6l-0,0.2c0.2,0 0.267,-0.1 0.2,-0.3l-0.2,0.1Zm8.2,-2.1l-0.3,0.4l-0.4,0.3l-0.2,0.2c-0.133,0.267 -0.233,0.267 -0.3,0l-0.1,-0.2l-0,0.4c-0.067,0.333 -0.233,0.567 -0.5,0.7c-0.133,0 -0.167,0.1 -0.1,0.3c-0,0.2 0.133,0.2 0.4,0l0.2,-0.2l-0,0.2c0.2,0.067 0.333,0.033 0.4,-0.1l0.3,-0.4l0.2,-0.4l0.3,-0.3l0.2,-0.1l0.4,-0.8c-0,-0.333 -0.167,-0.333 -0.5,-0m-38.6,1.9l0.1,0.3c0.2,-0 0.267,-0.1 0.2,-0.3l-0.3,-0Zm40.1,-0c-0,0.2 0.067,0.233 0.2,0.1l-0,-0.3c-0.2,-0 -0.267,0.067 -0.2,0.2m5.8,-0l-0.1,-0.1l0.1,0.1Zm-7.4,-0.3l-0,0.2c0.133,-0 0.2,-0.067 0.2,-0.2c-0.067,-0.067 -0.133,-0.067 -0.2,-0m-6,-0.3l-0,0.5l0.1,-0.2l0.1,-0.1l-0,-0.3l-0.2,0.1Zm8.2,0.2c0.2,-0.067 0.2,-0.133 -0,-0.2l-0,0.2Zm-7.2,-0.5l0.3,-0l-0.2,-0m14.2,-0.1l0.1,-0l-0,-0.1m-4.2,-0.5c-0,0.067 -0,0.067 -0,-0m-16.1,-1l0.4,0.2c0.2,-0.2 0.067,-0.367 -0.4,-0.5l-0.2,-0l0.2,0.3Zm0.6,-0.2c0.067,0.2 0.167,0.2 0.3,-0l-0.3,-0Zm-30.2,-0.5l-0,0.5l-0,-0.5Zm38.8,-0l-0,0.2c0.2,-0 0.267,-0.067 0.2,-0.2c-0.067,-0.133 -0.133,-0.133 -0.2,-0m3.2,-0l0.3,-0l-0.3,-0Zm-9,-0.7c-0.2,0.133 -0.233,0.267 -0.1,0.4c0.133,0.133 0.267,0.133 0.4,-0c0.133,-0.4 0.033,-0.533 -0.3,-0.4m7.3,-1.9c-0.2,0.133 -0.3,0.267 -0.3,0.4l-0.2,0.2l-0.2,0.4l-0.2,0.3c-0.2,0.267 -0.167,0.367 0.1,0.3l0.3,-0l-0,0.1c-0,0.2 0.1,0.3 0.3,0.3l0.2,0.1l0.2,0.2c0.067,-0.067 0.067,-0.2 -0,-0.4c-0,-0.133 0.1,-0.267 0.3,-0.4c0.2,-0.133 0.2,-0.3 -0,-0.5c-0.2,-0.067 -0.233,-0.2 -0.1,-0.4l-0,-0.5c-0.133,-0.2 -0.267,-0.2 -0.4,-0m-3.1,1.8c-0.133,0.067 -0.133,0.2 -0,0.4l0.1,-0.2l-0.1,-0.2Zm-3,-0.2l-0,0.2l0.2,-0c0.067,-0.133 0.033,-0.2 -0.1,-0.2m4.5,-2.6l-0.2,0.4l-0.2,0.5l-0,0.3l0.3,0.3c0.267,0.267 0.433,0.3 0.5,0.1l0.2,-0.2c0.267,-0.133 0.467,-0.3 0.6,-0.5l-0.2,-0c-0.267,0.067 -0.367,-0 -0.3,-0.2l-0.2,-0.5c-0.267,-0.333 -0.433,-0.4 -0.5,-0.2m-3,1.5l0.1,-0l-0.1,-0Zm-0.4,-2.2l-0.1,0.6l-0.1,0.5c-0.133,0.2 -0.067,0.333 0.2,0.4l0.3,-0.3l0.1,-0.3l0.2,-0.2c-0,-0.133 0.067,-0.167 0.2,-0.1c0.2,-0 0.3,-0.133 0.3,-0.4c-0.2,-0.133 -0.333,-0.133 -0.4,-0c-0,0.2 -0.067,0.2 -0.2,-0l-0.3,-0.2l-0.2,-0Zm1.4,0.4c-0.067,0.133 -0,0.233 0.2,0.3l0.3,-0l-0.2,-0.2c-0,-0.2 -0.1,-0.233 -0.3,-0.1m0.9,-1.2l-0,0.3l-0.2,-0c-0.067,-0.133 -0.133,-0.133 -0.2,-0l-0,0.5c-0.133,0.2 -0,0.333 0.4,0.4l0.2,-0l-0,-0.3l0.1,-0.4l0.3,-0l-0.1,-0.4l-0.5,-0.1Zm2.3,0.9c0.067,0.2 0.2,0.267 0.4,0.2l-0,-0.2c-0.2,-0.2 -0.333,-0.2 -0.4,-0m-8.1,-1.1l-0.3,-0c-0.2,-0 -0.3,0.067 -0.3,0.2l-0.1,0.3c-0.133,0.067 -0.133,0.267 -0,0.6l0.3,-0c0.067,-0.2 0.2,-0.333 0.4,-0.4l0.2,-0l0.1,-0.4c0.2,-0.133 0.233,-0.233 0.1,-0.3c-0.133,-0.067 -0.267,-0.067 -0.4,-0m7.8,0.6l0.1,0.3c0.2,-0.133 0.2,-0.233 -0,-0.3l-0.1,-0Zm-3.5,-2.5l-0,0.6l-0.2,0.3l-0.2,0.2c-0.2,0.2 -0.2,0.3 -0,0.3c0.267,-0 0.367,-0.067 0.3,-0.2c-0,-0.133 0.133,-0.1 0.4,0.1c-0,0.2 0.133,0.2 0.4,-0l0.3,-0l-0,-0.7c-0,-0.4 -0.8,-1 -1,-0.8m-11.6,1.1l-0,0.2c0.133,0 0.133,-0.067 -0,-0.2m21,-0.3c-0.133,0.067 -0.133,0.2 -0,0.4l0.1,-0.2l-0,-0.2l-0.1,0Zm-1.2,-0.6c-0.067,0.2 -0,0.367 0.2,0.5c0.133,0 0.167,-0.133 0.1,-0.4c-0,-0.133 -0.1,-0.133 -0.3,0m-7.1,-0.1c-0.133,0 -0.133,0.033 -0,0.1l0.3,-0.1c-0.133,-0.2 -0.233,-0.2 -0.3,0m-6.6,-0.3c-0.2,0.067 -0.2,0.167 -0,0.3c0.133,0 0.167,-0.133 0.1,-0.4m6.3,-0.9c-0.133,0.2 -0.067,0.367 0.2,0.5c0.267,0.067 0.333,-0.033 0.2,-0.3c-0.2,-0.2 -0.333,-0.267 -0.4,-0.2m-5.1,-1.8l0.2,0.2c0.067,0.2 0.133,0.233 0.2,0.1c-0.067,-0.267 -0.2,-0.367 -0.4,-0.3m10.4,-0.2c-0.067,0.2 -0.033,0.3 0.1,0.3c0.133,0 0.2,-0.1 0.2,-0.3l-0.3,0Zm-7.1,-0.6l0.1,0.2l-0,-0.1c-0,-0.133 -0.033,-0.133 -0.1,0m-19,-1l0.3,0l-0.3,0Zm-12.2,-4.6c-0.133,0.133 -0.133,0.3 -0,0.5c0.267,0.067 0.4,-0.1 0.4,-0.5l-0.4,0Zm28.7,-1l-0,0.2l0.3,-0.2l-0.3,0Zm12.6,-0.8l0.1,0.2l0.3,0.4l-0,-0.4l-0.2,-0.3l-0.1,-0.1c-0.133,0 -0.133,0.067 -0,0.2m-1,-1.7l-0.4,0.2l0.2,0c0.4,0.6 1.1,1 1.3,0.7l-0,-0.6l-0.9,0l-0.2,-0.3Zm-2.5,-1.2c-0,0.133 0.1,0.167 0.3,0.1l-0,-0.1c-0.2,-0.133 -0.3,-0.133 -0.3,-0m-2.5,-2l0.2,0.3c0.2,-0 0.267,-0.1 0.2,-0.3c-0,-0.067 -0.133,-0.067 -0.4,-0m3.1,-1.6c-0.1,0.1 -0,0.6 0.1,0.6c0.267,-0 0.367,-0.167 0.3,-0.5c-0.067,-0.2 -0.2,-0.233 -0.4,-0.1m-1.4,-0.2l-0,0.2c0.133,-0 0.133,-0.067 -0,-0.2c-0,-0.067 -0,-0.067 -0,-0m2.9,-0.2c0.067,0.267 0.133,0.367 0.2,0.3l-0,-0.3c-0.133,-0.133 -0.2,-0.133 -0.2,-0m-2.5,-0.6c0.067,0.333 0.2,0.467 0.4,0.4l-0,-0.3l-0.4,-0.1Zm1.2,-1.9c-0.067,0.267 0.033,0.467 0.3,0.6l-0,0.1c0.133,0.133 0.3,0.133 0.5,-0c-0,-0.2 -0.067,-0.3 -0.2,-0.3l-0.6,-0.4Zm-3.2,0.2c-0.133,-0 -0.133,0.033 -0,0.1l0.2,-0c-0,-0.2 -0.067,-0.233 -0.2,-0.1m2.8,-1c-0,0.2 0.067,0.3 0.2,0.3c0.067,-0 0.067,-0.067 -0,-0.2c-0.133,-0.2 -0.2,-0.2 -0.2,-0m-35,-1.6l-0,0.2c0.2,-0 0.3,-0.067 0.3,-0.2l-0.3,-0Zm30.2,-0.8c-0,0.133 0.067,0.2 0.2,0.2l-0,-0.2l-0.2,-0Zm-0.6,-0.4c0.2,0.267 0.333,0.333 0.4,0.2c0.067,-0.133 -0.033,-0.233 -0.3,-0.3l-0.1,0.1Zm-27.5,-0.4c-0,0.2 -0.1,0.267 -0.3,0.2l0.3,-0.2Zm0.8,-0.5l-0,0.3c-0.133,-0 -0.2,-0.067 -0.2,-0.2l0.2,-0.1Zm2.3,-1.2l0.2,0.2l-0,0.2l-0.2,-0c-0,0.2 -0.133,0.267 -0.4,0.2c-0.4,0.5 -1.1,1 -1.2,0.7l-0.3,-0.1l-0.2,-0l2.1,-1.2Zm24,0.3l0.1,0.4c0.2,-0 0.2,-0.1 -0,-0.3c-0,-0.067 -0.033,-0.067 -0.1,-0m-1.7,-0.3c0.133,0.267 0.3,0.4 0.5,0.4l-0.5,-0.4Zm-4.1,-1.9l1.6,0.5c-0.267,-0.067 -0.4,-0.067 -0.4,-0c-0,0.3 0.8,0.5 1,0.3l0.5,-0c0.4,0.267 0.4,0.367 -0,0.3l-0.1,-0c-0,0.267 0.1,0.4 0.3,0.4l0.2,-0l0.2,0.2l0.3,-0c-0,0.067 0.033,0.067 0.1,-0l0.1,-0.1l0.1,0.3l-0.1,0.1c-0.2,0.067 -0.367,0.033 -0.5,-0.1l-0.3,-0l-0.4,-0.1c-0.2,-0.2 -0.333,-0.233 -0.4,-0.1c-0.067,0.133 -0.233,0.067 -0.5,-0.2c0.133,-0.133 -0.067,-0.267 -0.6,-0.4l-0.1,0.1l-0,0.1l-0.1,-0.1c-0.133,-0.267 -0.3,-0.367 -0.5,-0.3l-0.3,-0l-0.4,-0.2c-0.467,-0.067 -0.533,-0.133 -0.2,-0.2l0.6,-0.2l-0.1,-0.3Zm-17.5,1.6l-0.2,-0l0.2,-0Zm10.5,-2.3c-0,0.133 -0.133,0.233 -0.4,0.3c-0.533,-0 -0.667,0.133 -0.4,0.4l-0.5,0.2c-0.333,-0 -0.5,0.1 -0.5,0.3l-0.2,0.1c-0.133,-0 -0.2,0.1 -0.2,0.3c-0.1,0.4 -1.2,0.5 -1.6,-0l-0.6,-0l-0.6,0.2c-0.667,0.267 -1.1,0.367 -1.3,0.3c-0.2,-0.2 -0.333,-0.2 -0.4,-0c-0.467,0.2 -0.667,0.133 -0.6,-0.2l0.1,-0.3l0.3,-0.1l0.1,-0c-0,-0.3 -0.6,-0 -0.6,0.2l-0.2,-0l-0.7,0.1c-0.6,-0 -1.067,0.1 -1.4,0.3l-0.5,0.1l-0.2,-0c3.2,-1.333 6.667,-2.067 10.4,-2.2m0.3,0.6l0.8,-0l-0.8,-0Zm0.2,-0.6l-0.2,-0l0.2,-0Z"
          style="fill:#fff;fill-rule:nonzero;"/></svg>