<svg xmlns="http://www.w3.org/2000/svg" xml:space="preserve" style="fill-rule:evenodd;clip-rule:evenodd;stroke-linejoin:round;stroke-miterlimit:2" viewBox="0 0 672 1024"><path d="M289.512 601.721c3.581 7.589 7.736 14.56 10.143 23.741-9.558-3.165-14.373-10.881-21.722-15.245 4.416 8.71 10.685 16.09 13.893 25.315-10.447-5.303-16.743-15.131-25.347-22.577 6.432 14.637 16.796 25.775 29.446 35.001 1.167.851 2.461.863 3.791.976 2.817.24 5.907-.092 8.388.971 7.533 3.229 13.545.751 20.396-2.801 27.498-14.255 55.938-26.827 80.974-45.396 17.8-13.203 35.343-26.724 48.2-45.326 5.309-7.682 8.5-15.505 8.272-25.034-.247-10.298.604-20.621.916-30.936.063-2.086.77-4.293-.83-6.464-2.484.65-2.897 3.053-3.837 4.77-14.426 26.365-37.642 42.061-64.554 53.24-2.301.955-5.553 2.974-7.266.182-1.778-2.898 1.711-4.634 3.563-6.287 9.343-8.341 19.952-15.031 29.924-22.556 21.992-16.593 33.903-38.8 37.852-65.699 1.327-9.037 2.811-18.051 4.058-27.098.533-3.867 1.871-5.717 5.783-3.314 3.221 1.978 6.301 1.474 9.447-.237 2.669-1.452 5.293-3.061 7.022-5.523 8.884-12.649 19.086-24.41 26.654-37.93 4.88-8.717 5.132-18.648 5.858-28.682-6.141 3.199-8.792 7.621-9.395 14.097-.687 7.381-4.788 13.502-9.9 19.844-1.817-4.118.169-6.972.492-9.914.236-2.143.909-4.251 1.005-6.391.091-2.01.674-5.109-2.599-4.759-2.499.267-5.523.848-5.153 5.164.897 10.48-3.834 18.665-11.571 25.303-1.325 1.137-2.929 2.724-4.86 1.361-2.031-1.433-2.18-3.598-1.307-5.841 1.629-4.186 3.287-8.361 4.883-12.56 1.276-3.355 1.362-6.776.639-10.295-.446-2.17-1.38-3.875-3.6-4.287-15.812-2.938-19.445-15.282-21.343-28.392-1.473-10.177-1.466-20.562-2.727-30.779-.854-6.922-2.879-13.669-6.104-19.975-.7-1.369-2.087-3.25-.015-4.387 2.007-1.102 3.548.511 4.477 2.122 6.079 10.536 16.347 15.368 26.911 19.638 16.707 6.754 32.924 4.269 48.852-3.037 5.439-2.494 10.539-5.385 14.325-10.579 2.569 2.921 1.496 4.822.377 6.65-2.801 4.576-7.056 7.576-11.701 9.871-18.605 9.195-37.647 13.182-57.587 4.093-.751-.342-1.573-.601-2.566.217.34 2.552 2.583 3.532 4.396 4.823 13.596 9.677 28.39 8.769 43.579 5.052 13.978-3.421 25.143-11.932 36.696-19.787 2.39-1.625 4.237-4.239 8.706-4.604-4.002 10.346-11.063 17.277-18.414 24.115 15.817-3.646 27.759-12.974 38.227-24.966 11.048-12.657 11.887-28.334 13.374-43.664 3.485-.251 3.988 1.907 4.795 3.666 3.864 8.424 3.866 17.238 1.582 25.904-2.521 9.562-6.628 18.515-13.507 25.891-1.905 2.043-2.837 3.612-1.687 6.916 7.372 21.164 1.173 42.06-16.101 53.543-3.183 2.115-3.583 4.444-3.794 8.132-.957 16.687-8.659 29.507-23.873 37.146-3.427 1.72-5.197 3.681-5.751 7.712-1.488 10.82-6.982 19.391-16.61 24.813-4.802 2.704-7.972 7.007-11.85 10.614-7.794 7.249-16.714 11.414-27.583 10.355-3.878-.378-3.901 2.208-3.916 4.812-.055 9.5-.068 18.999-.106 28.499-.007 1.666.128 3.36-.122 4.992-.731 4.778.637 8.183 5.072 10.772 4.455 2.6 6.654 7.321 8.782 11.89 6.705 14.399 13.71 28.593 26.722 38.632.262.202.529.435.698.712 8.728 14.222 23.843 19.764 37.487 27.049 23.21 12.394 46.799 24.079 70.185 36.146 3.097 1.598 5.918 3.726 8.911 5.536 2.166 1.309 2.965 3.295 2.311 5.541-.819 2.807-3.447 3.05-5.761 2.758-4.664-.589-9.035-2.428-13.214-4.42-27.212-12.971-54.483-25.834-80.694-40.791-1.66-.946-3.143-2.552-5.675-2.032.123 8.855 2.361 17.389 3.713 26.022 3.315 21.175 6.898 42.307 10.353 63.46 1.019 6.239-1.34 10.114-7.762 12.695-12.666 5.091-25.777 9.037-38.187 14.784-1.464.678-3.194.995-4.312 2.733 1.992 3.06 5.501 4.099 8.326 5.968 8.328 5.513 16.771 10.855 25.209 16.199 7.981 5.054 8.623 7.216 3.099 15.097-10.519 15.005-21.132 29.95-31.97 44.726-16.86 22.984-35.45 44.587-53.579 66.559-14.21 17.222-28.383 34.465-44.178 50.286a51.5 51.5 0 0 1-5.253 4.607c-1.359 1.033-2.903 3.008-4.723 1.234-1.503-1.464.073-3.108.834-4.493 3.626-6.603 8.493-12.343 12.93-18.38 24.289-33.038 51.165-64.04 76.063-96.593 12.545-16.403 24.276-33.428 36.415-50.144 1.756-2.418 2.049-4.128-.889-6.077-13.046-8.658-25.944-17.539-38.929-26.288-2.127-1.433-4.387-2.787-4.233-5.689.16-3 2.682-4.001 5.037-4.911 16.309-6.302 32.574-12.728 48.987-18.75 4.267-1.566 5.479-3.62 4.831-8.034-4.305-29.277-9.592-58.391-14.185-87.615-1.385-8.811-5.178-15.08-11.944-20.316-11.654-9.02-19.88-20.47-24.011-34.777-.897-3.109-1.603-6.511-4.414-8.758-2.071.518-1.824 2.24-1.955 3.631-3.008 32.094-12.268 62.66-23.417 92.643-17.763 47.767-37.224 94.836-58.102 141.36-15.191 33.85-27.924 68.767-40.767 103.61-8.512 23.092-15.587 46.792-26.915 68.79-.997 1.936-1.435 4.497-4.641 5.47-1.905-6.775 1.183-12.977 1.634-18.587-7.354 7.045-15.048 14.382-22.698 21.766-2.034 1.963-3.839 4.17-5.923 6.074-1.288 1.177-2.946 2.917-4.752 1.326-1.924-1.694-.156-3.328.947-4.716 1.45-1.825 2.958-3.614 4.562-5.304a339 339 0 0 1 27.994-26.359c3.046-2.555 4.333-5.721 5.224-10.352-2.094 1.899-3.679 3.199-5.109 4.652-13.081 13.291-27.001 25.767-38.978 40.136-1.369 1.643-3.047 3.087-4.783 4.346-1.122.814-2.641 1.995-4.045.643-1.404-1.351-.385-2.764.522-3.992.888-1.204 1.766-2.427 2.763-3.538 15.695-17.495 32.211-34.186 49.595-49.997 3.139-2.855 5.142-5.993 5.924-11.006-5.147 4.747-9.956 8.87-14.408 13.347-14.919 15.001-29.691 30.148-44.579 45.181-1.648 1.665-3.762 4.922-6.018 2.847-2.619-2.409.743-4.656 2.357-6.481 19.555-22.102 40.166-43.166 62.017-63.016 5.519-5.014 5.758-5.605 6.675-9.447-2.295-.362-3.127 1.614-4.305 2.802-23.114 23.309-46.171 46.674-69.284 69.983-2.019 2.036-3.79 4.631-7.314 4.959-1.189-3.476 1.404-5.174 2.917-7.045 9.752-12.062 20.783-22.968 31.324-34.318 16.22-17.464 33.109-34.264 50.367-50.693 2.753-2.62 3.436-5.923 4.561-9.868-2.284.74-3.257 2.264-4.412 3.464-29.354 30.483-58.383 61.283-88.703 90.823-2.262 2.204-4.587 4.357-7.029 6.354-1.035.846-2.503 1.154-3.631-.064-1.186-1.28-.502-2.467.438-3.531 5.074-5.737 9.951-11.664 15.273-17.161 27.117-28.006 54.35-55.901 81.541-83.836 3.481-3.577 6.979-7.138 10.427-10.747 2.087-2.185 3.767-4.614 4.205-8.579-3.48 1.999-5.949 4.292-8.301 6.676-24.574 24.907-49.086 49.874-73.685 74.755-11.479 11.612-23.14 23.044-34.651 34.625-2.341 2.355-4.939 3.721-8.242 3.718-1.599-2.482.164-3.826 1.513-5.232 12.912-13.467 25.849-26.911 38.762-40.378 11.179-11.657 22.067-23.609 33.567-34.94 17.199-16.95 34.086-34.222 51.791-50.662 3.799-3.528 7.856-7.182 8.99-12.679l-1.191-1.174c-1.622 1.992-3.121 4.1-4.884 5.958-15.611 16.452-32.984 31.072-49.044 47.06-24.323 24.212-47.767 49.268-71.378 74.165-2.863 3.019-5.912 5.865-8.942 8.72-1.299 1.223-2.654 2.585-5.839 1.514 5.456-14.593 19.711-21.633 28.298-34.387-6.41 5.428-11.294 11.053-16.501 16.351a1089 1089 0 0 1-16.663 16.567c-1.578 1.537-3.057 3.735-7.245 1.835 14.245-18.033 29.771-34.284 45.698-50.205-16.27 13.656-30.005 30.059-46.571 43.691-2.539-3.557-.798-5.39.57-7.196 7.484-9.878 16.906-17.92 25.513-26.731 7.218-7.389 14.699-14.521 22.072-21.758 2.062-2.024 3.827-4.024.287-6.254-1.864.434-2.816 1.888-3.984 3.037-15.206 14.945-29.916 30.406-46.181 44.246-.76.648-1.474 1.355-2.269 1.956-.942.712-2.058 1.488-3.168.61-1.468-1.159-.388-2.342.269-3.494 4.204-7.37 10.676-12.733 16.523-18.638 10.318-10.419 20.737-20.738 31.045-31.167 1.122-1.136 3.811-2.327 1.835-4.314-1.808-1.819-3.377.555-4.532 1.664-11.055 10.618-21.956 21.397-33.015 32.011-3.357 3.221-7.061 6.083-10.625 9.087-1.2 1.011-2.53 1.833-3.996.522-1.487-1.33-.772-2.771.139-4.015 3.157-4.31 6.756-8.227 10.595-11.947 11.486-11.129 22.913-22.32 34.36-33.488q.537-.525 1.045-1.075c1.044-1.126 2.266-2.329.611-3.774-1.42-1.24-2.484.02-3.395.929-3.419 3.416-6.907 6.774-10.137 10.364-9.265 10.298-19.772 19.335-29.447 29.216-2.677 2.734-5.388 5.087-5.548 9.545-.075 2.07-1.182 4.789-3.509 6.498-2.766-2.038-3.014-5.095-3.408-7.991-3.818-28.031-2.558-56.125-1.301-84.252.869-19.457 2.845-38.814 4.253-58.221.72-9.942 1.769-19.861 2.673-29.789.123-1.344.343-2.821-.894-3.703-6.158-4.388-6.259-11.266-6.568-17.582-.678-13.848 1.126-27.569 4.124-41.091 1.257-5.673 2.93-11.26 4.596-16.832.984-3.292 2.827-6.111 6.269-7.313 1.81-.632 2.696-1.733 3.015-3.551 1.582-8.999 3.215-17.988 4.787-26.989.104-.598-.145-1.258-.328-2.627-6.856 3.979-12.486 8.837-18.442 13.224-23.411 17.246-38.833 41.398-55.702 64.305-2.256 3.065-2.123 5.261 1.676 6.998 6.964 3.185 13.756 6.746 20.73 9.906 5.575 2.527 6.302 5.626 1.183 9.239-9.249 6.527-18.724 12.755-28.327 18.754-12.404 7.75-12.329 7.568-9.635 22.055 7.443 40.022 20.016 78.644 31.684 117.522 4.068 13.555 10.209 26.423 13.174 40.322.528 2.473 1.929 4.987.495 7.656-2.873.472-3.352-1.903-4.345-3.428-9.719-14.938-15.833-31.548-21.486-48.251-11.527-34.062-21.903-68.479-29.089-103.772-1.493-7.33-2.993-14.66-4.319-22.02-1.423-7.897-.427-9.785 6.487-13.775 8.513-4.911 17.01-9.853 25.499-14.806 1.263-.736 2.764-1.265 3.22-2.966-.616-2.487-2.966-3.019-4.787-3.974-4.129-2.164-8.386-4.081-12.591-6.1-6.562-3.151-7.596-6.275-3.434-12.088 7.851-10.969 15.936-21.77 23.894-32.663.948-1.298 2.172-2.514 2.251-4.373-2.387-.97-3.973.61-5.617 1.475-18.722 9.845-37.393 19.789-56.116 29.632-2.343 1.232-4.865 2.172-7.384 3.007-2.374.787-4.752.614-6.11-1.869-1.286-2.351-.611-4.721 1.205-6.394 1.812-1.668 3.957-3.063 6.145-4.221 29.148-15.428 57.3-32.722 87.269-46.611 5.128-2.377 8.391-7.027 12.597-10.53 3.711-3.09 6.875-6.986 10.917-9.503 11.999-7.469 20.073-18.233 27.195-30.053 1.88-3.12 1.831-5.299.276-8.61-9.358-19.929-23.638-36.628-35.576-54.85-5.06-7.724-9.458-15.691-12.565-24.341-1.196-3.328-3.083-5.484-6.138-7.363-5.775-3.551-11.517-7.479-12.144-15.054.856-1.211 1.692-.8 2.464-.603 6.228 1.596 7.918.234 6.402-5.839-3.321-13.309-3.569-27.018-5.578-40.495-1.714-11.499-2.962-23.067-4.485-34.596-.921-6.969-1.074-13.912.073-20.873.665-4.037.925-7.85-5.01-7.815-1.261.007-2.788-.458-3.75-1.245-8.658-7.089-18.455-13.217-22.521-24.456-.969-2.68-2.235-4.568-4.735-6.008-7.884-4.539-12.764-11.11-12.742-20.573.005-2.319-1.344-3.557-2.834-4.958-15.094-14.192-18.116-32.392-8.036-50.304 1.762-3.131 1.234-4.896-.803-7.383-4.175-5.097-6.138-10.814-3.577-17.755 2.654 1.003 2.881 3.161 3.645 4.847 4.535 10.006 13.004 13.517 23.391 10.194 12.898-4.127 18.898-14.552 24.362-25.616.854-1.731 1.147-3.894 3.476-4.706.32.338.884.648.92 1.011 1.981 19.794-16.334 39.579-36.191 39.139-8.443-.187-9.597.746-11.491 9.294-3.701 16.707 2.486 29.887 17.271 36.791 10.048 4.693 24.135-.354 28.999-10.459-2.008-1.47-3.366.307-4.869 1.022-9.31 4.429-18.117 3.487-26.335-2.587-4.297-3.176-6.558-7.467-5.951-12.978.129-1.169.213-2.437 1.697-2.704 1.14-.205 1.944.537 2.434 1.412 6.357 11.363 24.289 9.363 32.419.094 4.87-5.553 9.129-11.483 12.236-18.176 1.929-4.156 2-8.501.817-12.945-2.189.424-2.464 2.065-3.132 3.335-5.457 10.389-13.581 18.001-24.047 23.198-3.485 1.73-7.134 3.002-11.036 2.654-3.834-.342-7.152-1.658-7.262-6.317.421-.372.669-.78.906-.773 20.093.566 30.518-12.232 38.742-28.035 2.438-4.685 2.368-10.875 8.234-13.511.453-.204.671-1.137.823-1.773 5.034-21.028 17.521-37.07 33.788-50.596.617-.514 1.106-1.182 1.778-1.912-1.449-1.283-2.648-.374-3.691.113-10.55 4.932-19.975 11.37-27.076 20.783-1.564 2.073-3.495 3.376-6.856 4.684.741-8.373 2.86-15.389 7.82-21.178 8.117-9.474 17.86-17.108 29.235-22.213 14.019-6.291 27.138-1.935 39.481 5.153 8.651 4.968 16.708 10.968 25.976 14.868 4.734 1.992 9.601 3.415 15.961 3.706-12.025-8.753-20.172-20.267-31.935-27.754-11.376-7.241-23.734-10.27-37.154-8.913-2.121.215-4.92 1.025-5.495-1.677-.551-2.587 2.349-3.464 4.297-4.032 14.041-4.089 27.382-2.045 39.871 5.318 8.132 4.793 14.443 11.74 20.824 18.566 7.549 8.077 16.253 14.443 27.346 16.5 7.783 1.443 15.465.846 23.402-3.784-8.977-1.583-16.865-3.291-24.42-6.616-10.853-4.777-19.528-11.958-26.524-21.378-6.06-8.16-13.258-15.026-22.847-18.833-18.405-7.308-34.278-1.159-48.819 10.023-8.816 6.78-16.492 15.172-27.624 18.419-9.398 2.741-18.448 2.012-26.955-3.081-3.782-2.265-6.197-5.589-6.739-9.997-.273-2.221.277-4.653 2.622-5.402 2.16-.69 2.421 1.758 3.245 3.078 4.856 7.786 13.018 10.291 23.833 7.648 10.709-2.617 18.72-9.44 26.03-16.976 8.921-9.196 19.954-13.664 32.068-16.041 7.394-1.45 14.623.033 21.496 2.905 11.128 4.652 20.492 11.665 27.957 21.216 10.413 13.321 23.58 22.347 40.381 25.73 11.06 2.227 20.675-1.705 30.014-6.767 12.664-6.864 25.95-9.685 39.957-5.433 10.058 3.054 19.153 8.144 26.913 15.343-1.587 3.539-4.272 3.073-6.655 2.758-4.171-.551-8-2.248-11.709-4.181-17.194-8.963-33.544-6.86-48.747 4.409-11.664 8.647-24.144 15.679-38.197 19.066-17.702 4.265-34.709 1.644-50.277-8.221-5.213-3.303-10.368-6.607-16.252-8.682-13.863-4.888-25.601-.821-35.808 8.683-12.298 11.45-22.705 24.421-29.256 40.07-2.451 5.857-3.46 12.147-3.464 18.536-.008 12.654.082 25.309-.011 37.962-.039 5.354-1.061 10.578-2.875 15.649-1.896 5.298-.88 10.661-.814 16.322 4.149-1.897 4.149-1.897 1.357-7.354 2.26-1.916 5.904-3.258 4.164-7.524-.152-.373.892-1.78 1.418-1.802 7.066-.303 12.78-8.685 20.756-3.52.162.105.589-.2.931-.328 1.737-2.288-1.963-3.74-.884-6.07 2.323-1.294 4.418.168 6.459.99 9.756 3.927 19.186 8.511 27.96 14.362 5.121 3.415 10.077 7.102 16.119 8.887 3.369.995 4.834 4.439 7.53 6.45 3.308-2.699 2.992-7.45 6.463-10.577 3.844 4.647 2.756 9.895 2.065 14.727-.476 3.333-.265 6.064 1.238 9.067 4.216 8.421 2.611 16.971-.552 25.192-4.791 12.451-8.81 25.139-12.326 37.982-2.151 7.854-3.952 15.821-5.522 23.813-1.866 9.497 1.348 19.341 7.623 22.154 10.361 4.646 19.167 5.416 27.505-3.115 2.33-2.383 4.715-4.712 7.108-7.031 5.693-5.518 12.23-8.653 20.362-6.871 1.659.364 2.88.01 4.09-1.09 3.121-2.838 5.146-12.466 2.861-16.476-2.462-4.319-6.374-6.479-11.646-6.263-3.863.159-7.165 2.228-11.05 3.117 1.858-8.787 14.919-12.659 22.29-9.613 10.937 4.52 20.031 11.886 29.413 18.754 11.02 8.066 21.696 16.604 32.494 24.972 8.296 6.43 14.343 14.329 16.059 24.999.08.492.26.976.285 1.469.104 2.066.014 4.263-2.287 5.011-2.309.75-3.291-1.313-4.019-2.911-4.765-10.46-12.758-18.273-21.27-25.521-10.896-9.279-22.051-18.262-33.267-27.155-5.826-4.619-7.106-3.955-8.068 3.119-.764 5.626-3.044 10.512-7.249 14.439-2.084 1.946-3.009 3.899-.27 6.232 9.284 7.908 17.428 16.94 25.452 26.087 1.062 1.21 2.058 2.68 4.702 2.532-1.75-5.846-5.389-10.29-8.822-14.825-3.418-4.515-6.978-8.923-10.395-13.438-1.295-1.71-2.569-3.55-1.027-6.286 6.019 2.533 9.121 9.072 15.772 11.429-.661-4.759-4.972-7.069-5.98-11.052 3.178-1.748 5.56-.18 7.8 1.096 15.167 8.645 29.718 17.988 37.873 34.386 1.505 3.027 3.766 5.515 6.548 7.436 4.603 3.176 6.74 2.78 10.131-1.591.961-1.238 1.424-3.026 3.804-3.57 1.803 5.817.559 10.898-2.67 15.561-8.879 12.824-28.734 17.149-42.955 8.31-6.529-4.059-11.004-4.276-17.986-.706-15.068 7.704-31.119 7.069-47.671 3.618-9.388-1.957-19.794-2.236-29.325.656-9.987 3.03-19.788 5.963-30.323 4.064-2.045-.369-3.517.551-5.145 1.377-4.083 2.073-8.204 4.067-12.498 5.279-1.492-2.064 1.219-3.372-.249-5.631-7.57 2.417-15.584 3.913-23.772 3.679-.59 3.563 1.088 5.805 2.268 8.088 4.136 8 8.573 15.828 14.619 22.599 1.174 1.314 1.84 3.589 4.015 3.294 2.363-.322 1.877-2.806 2.551-4.4.249-.587.63-1.117.954-1.678 3.373.43 4.469 3.128 5.487 5.436 2.078 4.71 4.1 9.507 5.473 14.455 5.983 21.555 18.79 34.269 42.314 34.327 13.304.033 26.614 1.371 39.909 1.187 23.206-.321 40.549-11.326 52.764-30.82a611 611 0 0 1 9.229-14.266c.974-1.463 2.021-3.522 4.263-2.427 1.965.959 1.142 2.869.697 4.452-2.776 9.872-6.93 19.151-13.244 27.23-13.046 16.69-28.682 30.192-49.064 37.166a51.1 51.1 0 0 1-21.657 2.502c-1.307-.128-2.629-.554-3.985.238-1.244 1.741.374 3.049.985 4.864m92.315 168.615c2.496-2.903 5.008-5.757 6.576-9.352 6.588-15.106 13.325-30.147 19.878-45.268 2.283-5.269 4.191-10.699 6.605-16.918-7.483 7.246-14.164 13.694-20.813 20.175-1.243 1.212-1.492 2.888-1.939 4.511-2.165 7.867-6.295 10.632-14.398 9.564-6.621-.873-13.002-2.72-19.256-5.07-12.091-4.544-22.9-11.332-33.577-19.3-3.839 4.759-9.103 6.558-14.699 7.831-5.668 1.291-11.27.694-16.868-.192-3.885-.614-5.868.939-6.718 4.71-1.352 6-2.972 11.939-4.451 17.911-6.404 25.859-9.553 52.298-14.03 78.501-.692 4.053-1.215 8.251-3.212 12.098-2.416-1.353-2.121-3.183-2.35-4.768-2.151-14.904.779-29.561 2.744-44.168 2.99-22.242 7.489-44.238 14.04-65.753.851-2.796-.059-4.624-2.216-6.5-2.189-1.903-3.797-1.032-5.798.044-14.448 7.768-29.655 13.558-45.759 16.743-3.392.67-3.568 2.404-3.045 4.918 4.337 20.841 9.382 41.481 16.746 61.509 9.411 25.592 21.815 49.649 36.521 72.57 1.984 3.091 3.757 4.25 7.014 1.43 16.111-13.95 32.43-27.654 48.198-42.006 18.017-16.399 34.168-34.544 50.807-53.22M204.256 417.815c8.054-9.758 16.309-19.357 22.266-30.657 1.798-3.411 4.502-6.221 7.695-8.422 1.847-1.273 3.792-2.924 6.274-1.199.634 2.288-.753 3.892-1.657 5.623-2 3.834-4.221 7.563-5.099 11.883-.906 4.46 1.131 8.217 5.573 10.166 1.432-.698 1.486-2.166 1.759-3.412 4.686-21.445 9.958-42.738 16.094-63.821 1.424-4.892 1.052-9.907-1.106-14.66-.935-2.061-1.224-4.675-4.239-4.937-.868-.076-1.814.068-2.145.916-.984 2.52.653 4.436 1.658 6.509.958 1.977 3.519 3.317 2.477 6.305-.573.127-1.268.516-1.807.362-4.428-1.261-7.136-5.264-11.301-7.483-.693 1.417-1.282 2.577-1.835 3.755-3.197 6.808-9.929 10.465-17.131 9.296-9.554-1.551-12.135-4.217-13.02-13.867-.295-3.212-1.676-4.214-4.588-2.937-2.698 1.183-5.172 2.614-4.3 6.277.635 2.666-.721 3.916-3.14 3.793-3.28-.167-5.696 1.455-8.194 3.156-4.061 2.767-8.194 5.394-13.216 2.262-4.186 9.884-7.226 31.537-5.813 42.449a8038 8038 0 0 0 8.903 66.682c.622 4.508 1.045 9.181 3.962 13.653 6.345-6.459 11.313-13.957 13.441-21.7 1.929-7.022 4.284-13.381 8.489-19.992m197.03 247.674-3.756 34.138c4.177-2.905 6.575-6.128 9.137-9.106 8.888-10.328 18.674-20.141 24.532-32.59 12.355-26.254 21.473-53.734 29.184-81.678.479-1.737 1.679-3.69.373-5.549-1.172-.335-1.703.351-2.24.97-21.443 24.748-47.625 43.431-75.954 59.367-17.287 9.725-35.518 17.54-53.256 26.352-4.72 2.346-4.902 3.127-1.723 7.905 1.396-.88 2.776-1.798 4.201-2.641 18.013-10.649 36.924-18.4 58.346-18.005 8.8.162 12.43 4.202 11.683 12.948-.197 2.32-.349 4.643-.527 7.889m-129.051-25.218c-7.043-7.326-13.903-14.793-19.852-23.08-5.863-8.166-8.726-17.865-13.382-27.704-1.021 1.778-1.503 2.293-1.628 2.883-3.13 14.788-7.738 29.244-9.907 44.248-.472 3.266.539 4.716 4.058 5.278 13.24 2.114 25.989 5.554 36.828 14.182 2.861 2.278 5.395 5.441 9.603 6.197 1.843-3.714 4.77-6.387 7.681-9.367-4.471-4.197-8.694-8.161-13.401-12.637M172.582 315.04l2.175 18.151c2.544-.02 4.311-.831 5.674-2.37 2.308-2.608 4.671-5.192 6.733-7.99 6.227-8.449 14.524-13.29 24.775-15.323 3.398-.674 7.111-.114 10.824-2.056-4.761-2.725-9.571-3.409-14.107-4.856-16.946-5.406-26.936-1.567-36.074 14.444m64.65 520.724c-9.09 9.504-18.197 18.991-27.255 28.525-1.793 1.887-3.681 3.889-1.802 6.802.622-.139 1.043-.103 1.238-.296a17468 17468 0 0 0 34.026-33.758c2.292-2.281.914-4.114-.673-5.994-2.376.829-3.249 3.075-5.534 4.721m-1.858 18.115c-8.764 8.879-17.542 17.744-26.281 26.647-1.783 1.816-3.889 3.69-1.103 6.97 2.342-2.398 4.382-4.528 6.466-6.613 10.706-10.709 21.454-21.375 32.104-32.14 1.674-1.692 4.558-3.341 1.677-7.011-4.229 3.998-8.288 7.836-12.863 12.147m-10.608-433.875c11.952-3.339 12.11-3.842 4.195-12.25-1.973-2.096-3.651-2.514-5.748-.078-4.227 4.909-8.647 9.65-12.919 14.521-1.018 1.16-2.725 2.048-2.056 4.934a5153 5153 0 0 1 16.528-7.127m2.34 407.6c-5.422 5.867-10.812 11.766-16.281 17.589-2.479 2.639-3.307 5.431-1.573 9.272 9.656-10.272 19.011-20.154 28.27-30.127 1.882-2.028.622-3.57-1.836-5.103-2.672 2.586-5.39 5.215-8.58 8.369m252.692-488.8c9.047 4.016 18.152 5.903 28.582.615-7.953-1.677-15.215-1.25-21.821-4.383-6.456-3.063-11.776-7.768-18.227-12.117 1.649 7.202 4.994 12.243 11.466 15.885M312.669 422.81c-1.185-2.09-2.727-4.618-5.286-2.876-2.573 1.753.032 3.835 1.021 5.528 3.51 6.012 7.037 12.02 10.778 17.889 2.77 4.345 6.334 7.961 11.135 10.227-4.105-11.142-11.985-19.892-17.648-30.768m-94.681 34.362c-.552 1.413-1.294 2.8-.927 4.782 10.569-8.361 14.385-20.374 19.828-31.405-9.775 6.12-14.251 16.012-18.901 26.623m-17.712 10.351c7.962-9.217 12.807-20.299 18.764-30.737-12.758 7.398-14.694 21.894-22.756 32.808 2.08.186 2.648-.986 3.992-2.071m25.547 352.799 6.347-6.37c1.95-1.956 1.852-3.676-.823-5.468-7.087 7.335-14.635 14.112-20.867 22.162-1.074 1.388-1.736 2.801-.008 4.825 4.997-4.938 9.917-9.8 15.351-15.149m351.286-491.739c1.495-2.16 2.888-4.362 3.108-8.109-10.025 11.215-21.806 18.368-35.326 22.756 12.47-.615 23.358-4.635 32.218-14.647m-448.611-15.196c8.367 1.532 15.662-.169 21.302-7.208-9.751 4.557-19.534 3.614-29.462.066 1.594 3.822 4.291 5.589 8.16 7.142m97.449 491.037c1.95-2.013 4.395-3.965.956-6.75-10.524 7.132-17.442 16.417-15.458 21.799 4.83-5.007 9.426-9.771 14.502-15.049m11.528-350.442c1.853-4.755 5.677-8.757 5.938-14.462-5.58 1.91-12.748 16.335-11.091 21.704 2.955-1.239 3.372-4.296 5.153-7.242m-23.301 345.387c2.907-2.949 5.806-5.906 8.724-8.843 1.627-1.638 2.232-3.207-.03-4.792-7.284 5.677-11.523 11.712-10.794 17.214.878-1.661 1.269-2.4 2.1-3.579M485.376 354.55l-12.425-6.739c2.282 6.157 8.067 9.313 13.867 7.917-.169-.228-.321-.474-.516-.678-.108-.113-.291-.155-.926-.5m-180.338 85.749c.15 5.665 3.157 10.19 8.436 11.463-2.217-4.664-4.231-8.62-8.436-11.463m-33.479 451.723 13.663-14.92c-5.775 7.097-13.5 12.232-19.25 19.341l1.023 1.028a231 231 0 0 1 4.564-5.449m-9.345-212.878-11.877-1.118c6.972 1.453 13.894 3.664 21.017 2.576l.056-1.388c-2.785 0-5.571 0-9.196-.07m-44.692 100.704c1.389-1.659 3.442-3.184 1.096-5.91-2.314 2.674-5.367 4.642-5.282 9.684 1.822-1.61 2.773-2.45 4.186-3.774m326.943-384.725c1.209-.849 2.675-1.466 3.441-3.614l-11.284 7.283.368.579a379 379 0 0 0 7.475-4.248m-249.412 49.743c-.158-.041-.34-.149-.468-.104a.53.53 0 0 0-.289.376c-.246 2.949.787 5.33 3.576 6.957-.828-2.276-1.657-4.551-2.819-7.229" style="fill-rule:nonzero"/><path d="M453.556 107.637c1.2 3.676 2.267 6.985 3.455 10.669 8.695-2.396 17.315-2.131 26.007.21 17.673 4.759 29.636 15.89 36.958 32.353 3.988 8.967 7.405 18.19 13.902 25.843 7.895 9.298 17.837 9.764 26.122.953 1.018-1.083 1.87-2.601 3.673-1.86 1.688.694 1.548 2.395 1.683 3.874.652 7.144-3.402 12.102-8.265 16.263-10.094 8.639-21.995 10.27-33.661 4.824-16.373-7.642-30.019-19.121-39.972-34.47-2.225-3.431-5.058-6.565-6.551-10.91 3.235-.477 4.704 1.761 6.309 3.377 9.29 9.351 19.046 18.171 29.506 26.194 8.257 6.333 17.122 10.971 29.011 9.466-15.79-4.772-22.482-16.514-26.798-30.306-4.786-15.297-12.56-28.47-27.569-35.715-9.769-4.716-20.033-7.032-30.714-2.414-3.035 1.312-4.18-.818-5.07-3.17-2.242-5.919-4.541-11.808-7.623-17.364-2.048-3.692-4.725-6.852-7.825-9.665-6.107-5.543-13.049-7.856-21.173-5.218-7.833 2.542-15.249 5.823-21.052 11.964-1.189 1.258-2.196 3.422-4.426 2.236-2.188-1.163-1.401-3.278-.625-4.868 1.466-3.004.063-5.48-.983-8.084-5.475-13.642-15.52-22.58-28.903-28.075-.451-.185-.964-.262-1.454-.295-.307-.02-.626.135-1.257.288.522 2.061 2.171 3.201 3.552 4.447 4.839 4.365 9.533 8.904 13.248 14.251 4.1 5.903 6.667 12.315 4.446 19.77-2.833-.344-2.855-2.349-3.714-3.671-11.357-17.473-25.185-32.285-44.993-40.192-7.462-2.979-15.348-2.664-23.075-.459-1.692.483-3.679.586-4.681 2.437.132 2.206 1.994 2.6 3.437 3.192 10.304 4.234 18.359 11.199 25.21 19.874 8.662 10.969 19.093 19.95 31.466 26.589 2.045 1.097 2.012 1.16 3.287 3.921-1.532 2.056-3.337.704-4.94.241-14.126-4.082-25.04-12.846-34.428-23.802-4.224-4.931-8.187-10.141-13.982-13.425-1.367-.775-2.529-2.276-5.657-1.138 15.239 15.633 23.703 37.216 46.72 44.328-1.606 2.997-4.041 3.162-6.548 3.034-6.36-.324-11.425-3.391-15.747-7.784-6.569-6.676-11.979-14.327-17.351-21.927-10.847-15.346-25.132-24.984-43.743-28.014-4.423-.72-8.687-2.417-13.266-2.173-1.606.085-3.347-.359-4.982 1.376 1.947 5.291 8.961 7.602 9.073 14.262-3.068 1.124-5.165-.826-6.847-2.272-18.508-15.914-52.189-.563-60.122 16.624-3.399 7.363-6.584 14.426-12.79 19.803-6.845 5.932-14.568 9.235-23.798 8.28-6.643-.687-11.819-5.632-11.43-10.941.112-1.519.182-3.04 1.889-3.558 1.103-.101 1.619.576 2.168 1.201 5.888 6.691 7.679 7.221 15.877 4.008 9.582-3.756 17.059-8.852 20.344-20.004 4.983-16.916 27.216-31.983 45.143-32.223 4.6-.061 8.57-.852 12.731-3.168 7.905-4.401 16.781-3.47 25.401-2.571 3.941.411 7.803 1.593 11.698 2.436 4.134.896 7.862.667 11.907-1.421 11.456-5.913 23.564-9.14 36.632-6.386 6.974 1.47 13.131 4.697 18.917 8.697 2.291 1.583 4.345 2.917 7.2 1.002 1.555-1.042 3.511-.552 5.353-.19 15.958 3.139 27.334 11.736 32.703 27.437 1.19 3.478 2.52 5.254 6.336 2.592 23.731-16.55 45.641-4.401 54.651 19.417M347.27 283.089c3.131-.817 5.845-1.644 8.615-2.182 3.332-.646 6.32-2.506 10.112.485 2.015 1.588 6.418.222 9.737.061 3.174-.153 6.099-.118 5.746 4.227l13.596 1.322c-1.215 12.497 9.382 5.408 14.26 8.71-1.28 3.472-1.649 6.711 1.318 9.913 1.949 2.105.298 3.6-2.33 3.704-3.605.143-6.889-1.315-10.132-2.453-19.525-6.855-38.851-6.004-58.132.9-5.01 1.793-10.094 3.381-15.1 5.185-4.911 1.77-9.918 3.057-15.14 2.325-4.182-.586-6.61 1.236-8.238 4.793a175 175 0 0 1-3.277 6.734c-.723 1.419-1.209 3.175-3.668 3.078-1.902-3.394-1.27-6.938.535-9.826 3.442-5.506 1.984-9.035-2.749-13.02-6.071-5.112-10.078-11.915-11.787-19.838-.371-1.723-1.167-3.584 1.309-5.549 5.837 8.308 10.639 17.945 21.342 20.742 1.643-1.396.923-2.577.947-3.691.135-6.284 2.094-7.815 8.129-8.022 10.724-.369 20.804-4.165 31.153-6.531 1.134-.259 2.242-.63 3.754-1.067m-198.815-99.645c-6.384 6.849-10.284 14.675-13.037 23.168-1.912 5.901-4.406 11.485-9.056 15.865-3.251 3.061-6.954 5.157-11.405 5.684-7.197.852-12.282-4.476-11.211-11.626.227-1.517.494-3.108 2.257-3.489 1.582-.342 2.484.874 3.003 2.111 1.678 3.993 4.6 4.614 8.109 2.858 4.158-2.082 5.539-6.109 3.652-9.951-3.212-6.536-7.281-12.639-8.324-20.157-1.794-12.94 3.668-22.53 13.229-30.408a17 17 0 0 1 3.803-2.377c4.354-1.947 5.01-4.399 2.218-8.503-6.229-9.158-4.792-18.597.025-27.834 1.871-3.589 5.012-5.861 9.157-7.28-5.469 9.599-8.808 19.388-2.796 29.528 5.836 9.843 15.864 12.426 26.468 13.016.144 2.934-1.752 2.943-3.305 3.252-5.086 1.012-10.201 1.479-15.366.627-.491-.081-.979-.266-1.468-.264-13.479.061-25.941 21.537-19.273 33.182.591 1.032 1.225 1.97 3.048 2.366 5.29-6.789 11.384-13.111 19.92-16.262 1.633-.603 3.283-1.759 5.666-.81-1.006 2.897-3.236 4.841-5.314 7.304" style="fill-rule:nonzero"/><path d="M421.315 329.234c-7.232 6.922-14.932 12.208-24.819 13.582-3.134.436-5.979.148-8.558-1.696-18.698-13.369-39.262-13.874-60.634-8.821-2.905.687-5.769 1.602-8.705 2.082-1.353.221-3.156.303-3.9-1.45-.613-1.444.367-2.546 1.17-3.602 1.549-2.037 3.594-3.445 5.913-4.47 21.002-9.282 41.689-8.561 61.88 2.317 3.347 1.803 6.138 2.465 9.77.955 6.592-2.742 13.579-4.548 19.626-8.552.821-.543 1.732-1.059 3.048-.124-.605 4.778-5.33 6.548-7.646 10.234 7.554-1.189 11.607-7.314 17.011-13.167 1.67 6.015-1.629 9.061-4.156 12.712m114.89-75.032c-5.35-1.637-10.204-3.378-14.363-6.581-2.361-1.82-4.09-3.916-2.492-7.083 2.431-.856 3.967.766 5.701 1.574 12.329 5.747 25.033 6.831 37.808 2.114 15.074-5.567 22.537-17.591 22.005-34.319-.099-3.121-.376-6.237-.638-10.423 4.563 3.005 7.368 6.44 8.708 10.632 2.142 6.704 2.975 13.571.796 20.592-4.696 15.132-12.869 27.349-27.88 33.902-3.414 1.491-7.06 2.923-11.324.123 3.536-4.628 10.381-5.091 13.197-11.744-10.846 2.35-20.963 3.38-31.518 1.213m-88.774 18.307c-7.994-10.437-9.137-22.357-8.54-34.422.277-5.594-.142-10.884-1.523-16.202-.288-1.109-.915-2.197.678-3.883 4.621 4.058 6.248 9.561 7.214 15.146 1.325 7.663 1.243 15.553 4.397 22.9 5.705 13.29 15.018 22.987 28.221 28.889 13.497 6.033 27.302 8.32 41.751 2.613 1.226 3.312-1.019 4.223-2.671 5.358-10.489 7.21-22.024 6.951-33.529 3.811-14.473-3.949-26.83-11.495-35.998-24.21m12.629-54.523a2576 2576 0 0 0 17.266 5.765c-.351 2.989-2.455 3.167-4.335 3.632-13.606 3.361-26.342-1.379-34.161-13.572-7.248-11.302-10.525-23.59-6.459-37.032 1.604-5.303 2.571-10.819 4.892-16.15 3.693 1.492 3.779 4.198 4.019 6.783.436 4.695-.793 9.254-1.378 13.843-1.809 14.178 6.903 30.529 20.156 36.731m-40.706 218.831c3.332 9.623 3.396 18.937.993 28.353-3.558 13.939-8.318 27.349-17.229 38.897-1.661 2.152-3.238 4.676-6.474 4.837-1.603-2.333.075-3.952 1.031-5.542 5.855-9.727 10.387-20.037 14.054-30.767 5.876-17.196 3.497-34.006-2.096-50.709-.513-1.53-1.675-2.905-1.255-4.695 4.738.556 6.431 3.55 10.976 19.626m-140.44-205.674c-8.661.655-16.301-1.958-23.84-4.444-14.701-4.847-29.281-5.509-43.994-.34-1.069.375-2.242.48-3.378.622-.214.026-.48-.369-1.004-.803 1.596-2.946 4.487-4.193 7.337-5.33 13.316-5.311 27.175-6.317 40.54-1.58 15.73 5.575 31.277 7.287 47.435 3.113.798-.207 1.618-.446 2.372.156-2.233 4.576-12.442 8.086-25.468 8.606m-25.468 267.516c-1.721-1.243-3.771-1.623-4.134-3.865 1.375-2.364 3.46-1.339 5.306-1.051 17.357 2.714 34.696 3.621 52.003-.379 1.992-.461 4.404-.973 5.387 1.135 1.197 2.568-1.558 3.417-3.157 4.227-18.318 9.286-36.707 9.065-55.405-.067m22.861-398.942c-3.353-3.132-8.099-3.935-10.558-8.239 3.355-1.704 6.349-.633 9.202.36 10.161 3.537 18.424 9.954 25.31 17.994 5.613 6.552 10.6 13.643 15.854 20.502.697.909 1.578 1.801.56 3.448-3.836.49-6.646-1.833-9.143-4.365-3.847-3.901-7.508-7.994-11.107-12.129-5.827-6.694-12.606-12.271-20.118-17.571" style="fill-rule:nonzero"/><path d="M565.934 272.985c15.849-6.174 24.367-18.187 28.811-35.176 3.896 6.589 3.818 12.452 1.595 17.315-6.063 13.263-16.264 22.258-30.953 24.977-4.524.838-9.541.936-13.367-4.307 4.855-1.514 9.563-.538 13.914-2.809m.828-54.119c-7.565 5.083-15.134 8.304-23.997 4.71-.262-2.743 1.755-2.534 3.24-3.029 9.567-3.191 17.776-8.132 22.993-17.224 2.829-4.932 4.755-9.839 2.896-15.617-.42-1.306-.77-2.904.72-4.776 4.262 3.054 6.185 7.172 6.629 12.06.949 10.433-4.378 17.7-12.481 23.876m-212.317 21.69c-16.958.81-33.059 4.094-49.092 8.947-.257-3.673 1.736-4.227 3.331-4.839 18.19-6.984 36.795-11.365 56.498-9.024 4.586.545 8.639 2.339 12.573 4.515 1.363.754 3.046 1.589 2.177 4.43-7.997-3.651-16.393-4.764-25.487-4.029m175.577 25.122c2.296.469 4.183.912 6.07 1.355l-.198 1.596c-10.272 3.647-20.364 1.41-30.135-2.63-10.774-4.456-18.911-11.937-24.616-22.383 3.57-1.911 4.803.032 6.178 1.321 11.985 11.231 26.005 18.282 42.701 20.741m-156.045 81.28c3.372-1.22 5.883-3.865 9.642-3.339.735 2.623-1.075 3.86-2.475 5.036-10.236 8.596-21.879 11.484-34.86 8.009-8.514-2.28-15.361-8.377-24.038-10.695 3.701-3.044 7.465-1.45 10.825-.069 7.792 3.203 15.716 5.11 24.198 4.902 5.75-.14 11.197-1.17 16.708-3.844m100.363-86.304c9.955 9.845 21.099 16.872 35.704 18.681-6.394 5.422-15.981 4.447-25.743-1.914-10.865-7.081-20.79-14.94-22.493-28.754l1.659-1.343c3.54 4.362 7.081 8.723 10.873 13.33m-46.254-136.651c6.778 10.187 7.419 23.37 1.504 28.203-2.458-.994-1.719-3.313-1.987-5.129-.95-6.44-1.936-12.838-5.978-18.269-3.774-5.07-9.124-7.599-14.932-9.417-1.697-.531-3.408-1.02-5.396-1.612 6.787-5.656 18.161-2.917 26.789 6.224" style="fill-rule:nonzero"/><path d="M438.376 115.711c6.851 10.16 7.976 21.891 2.031 28.234-.524-8.002-3.393-14.529-7.09-20.718-3.844-6.435-9.771-10.173-17.122-12.215 5.775-5.433 13.907-3.575 22.181 4.699m37.926 91.986c.691.749 1.195 1.202 1.576 1.741 1.259 1.783 4.73 3.198 2.985 5.569-1.896 2.576-4.79.218-6.495-1.161-12.513-10.131-20.02-22.874-19.627-39.47.01-.401.455-.791 1.569-2.613 4.117 14.067 9.397 26.393 19.992 35.934m-77.554-76.463c-3.275-1.094-6.606-.856-9.088-2.883.059-2.118 1.515-2.449 2.775-2.39 11.295.53 21.744 2.961 28.573 13.209 2.5 3.753 3.45 7.87 3.033 12.316-.137 1.464-.179 3.25-2.093 3.488-2.125.265-2.13-1.613-2.481-3.023-2.711-10.885-10.161-17.102-20.719-20.717M288.734 528.295c-7.323-.503-14.098.365-20.873 1.202-1.459.18-3.215.944-3.808-1.073-.621-2.114 1.215-2.854 2.713-3.569 8.243-3.934 16.761-3.897 25.318-1.381 3.856 1.134 8.23 1.306 11.911 5.495-5.534 1.831-10.156-.838-15.261-.674M396.665 357.3c-2.598-1.171-4.895-2.125-7.15-3.167-1.392-.644-2.919-1.55-2.409-3.303.557-1.913 2.385-1.463 3.822-1.16 7.973 1.684 14.213 6.376 19.726 12.005 2.886 2.947 5.164 6.502 7.62 9.853 1.088 1.485 1.921 3.148-.193 5.872-6.591-7.273-12.479-15.159-21.416-20.1m20.408-4.21c-3.629-1.366-6.898-2.587-10.135-3.886-1.245-.499-2.67-1.205-2.394-2.784.355-2.024 2.219-1.759 3.638-1.614 8.176.829 15.304 4.213 21.722 9.206.909.708 1.88 1.673 1.135 2.962-.899 1.553-2.275 1.068-3.476.376-3.191-1.837-6.581-3.163-10.49-4.26m3.751-14.967c-.598-1.112-.783-1.934.108-2.494 3.133-1.97 15.181.967 17.563 4.254-4.797 3.8-12.238 3.181-17.671-1.76m-97.592 602.976c-3.614 3.978-6.676 8.059-11.479 10.931-.054-4.126 7.445-13.76 10.319-13.867 1.94-.072 2.175 1.104 1.16 2.936m-84.364-595.36c-.698 5.118-5.412 5.95-8.714 7.863-8.587 4.975-17.917 5.658-27.322 2.361-3.807-1.335-7.043-3.551-6.94-8.074 1.242-1.258 2.268-1.015 3.112-.503 10.639 6.453 21.342 4.228 32.087.344 2.463-.891 4.756-2.405 7.777-1.991" style="fill-rule:nonzero"/></svg>