<?xml version="1.0" encoding="UTF-8" standalone="no"?><!DOCTYPE svg PUBLIC "-//W3C//DTD SVG 1.1//EN" "http://www.w3.org/Graphics/SVG/1.1/DTD/svg11.dtd"><svg width="100%" height="100%" viewBox="0 0 1500 400" version="1.1" xmlns="http://www.w3.org/2000/svg" xmlns:xlink="http://www.w3.org/1999/xlink" xml:space="preserve" xmlns:serif="http://www.serif.com/" style="fill-rule:evenodd;clip-rule:evenodd;stroke-linejoin:round;stroke-miterlimit:2;"><g id="Layer8"><g id="heaven"><path d="M-2.069,-0.338l2.069,403.761l1500,-7.686l-2.069,-403.762l-1500,7.687Z" style="fill:#00a7ff;"/></g><g id="back"><g id="_100" serif:id="100"><g id="lichtscheid"><path d="M524.001,154.018l9.026,-0.04l0.394,5.381l-9.885,0.21l0.465,-5.551Z" style="fill:#601107;"/><path d="M510.865,161.33l0.039,4.224c-0,0 0.008,0.208 0.16,0.427c1.319,1.904 5.679,3.983 8.079,6.458c2.482,2.558 6.805,5.294 6.811,8.892c0.01,5.372 -0.107,12.957 -0.107,12.957l6.619,0.266c-0,-0 -0.348,-8.029 -0.424,-12.693c-0.062,-3.735 3.723,-6.801 6.732,-8.96c2.818,-2.022 6.713,-4.305 8.885,-5.788c0.454,-0.31 0.438,-0.974 0.438,-0.974l0.151,-4.343c-2.435,-1.381 -9.037,-2.85 -13.308,-3.463c-4.285,-0.614 -9.031,-0.675 -12.983,-0.228l-0.623,0.094c-6.267,1.091 -10.469,3.131 -10.469,3.131Z" style="fill:#ca3949;"/><path d="M510.865,161.33l0.039,4.224c-0,0 8.701,-3.829 18.297,-3.712c10.776,0.131 18.896,4.297 18.896,4.297l0.156,-4.498c0,-0 -8.673,-4.119 -18.995,-4.158c-10.384,-0.04 -18.393,3.847 -18.393,3.847Z" style="fill:#ea6467;"/></g><path id="hill" d="M362.632,269.547c-0,0 32.249,-36.504 42.342,-44.261c5.163,-3.969 12.815,-7.335 17.086,-9.472c2.735,-1.368 5.794,-2.007 8.541,-3.35c2.926,-1.43 6.638,-3.821 9.013,-5.231c1.764,-1.047 3.59,-2.332 5.239,-3.226c1.501,-0.814 3.178,-1.785 4.654,-2.14c1.363,-0.328 2.826,0.259 4.206,0.009c1.601,-0.291 4.084,-1.102 5.402,-1.752c0.987,-0.488 1.494,-1.714 2.504,-2.152c1.225,-0.53 3.382,-0.859 4.842,-1.031c1.297,-0.153 2.692,0.453 3.917,-0c1.247,-0.462 2.226,-2.488 3.568,-2.77c1.342,-0.281 3.066,1.266 4.484,1.079c1.419,-0.187 2.585,-1.687 4.026,-2.198c1.977,-0.703 5.923,-1.416 7.838,-2.017c1.267,-0.397 2.358,-1.454 3.654,-1.586c1.296,-0.132 2.738,0.983 4.124,0.793c2.242,-0.309 6.239,-2.268 9.326,-2.643c3.044,-0.37 6.137,0.251 9.193,0.391c3.048,0.139 6.1,0.229 9.143,0.448c3.289,0.236 7.211,0.3 10.589,0.969c3.317,0.656 6.508,1.864 9.679,3.039c4.463,1.653 13.904,4.773 17.101,6.882c1.706,1.125 0.55,4.41 2.078,5.768c1.576,1.402 4.831,2.061 7.378,2.641c3.652,0.833 10.176,0.919 14.537,2.352c4.18,1.374 8.035,3.709 11.628,6.249c3.742,2.644 8.981,5.158 10.822,9.62c2.331,5.65 19.798,45.913 19.798,45.913l-266.712,-2.324Z" style="fill:#b2a900;"/></g><g id="_200" serif:id="200"><g id="university"><path id="rosa" d="M644.258,154.433l-0.006,0l-0,-0.825l-3.239,-0l0.023,16.001l-3.485,0.005l0,8.079l-1.611,0l-0,-7.89l-10.683,0l0.001,-0.905l-3.014,-0l0.101,9.243l-6.95,0.014l0,-3.699l-3.537,-0l0,9.505l-16.013,-0l-0.043,-5.779l-3.446,-0l-0.002,0.518l-3.463,0.011l0,7.346l-1.888,0.007l0,-4.446l-4.903,-0l-0,4.446l-0.717,0l0,-4.668l-2.079,0l0,2.792l-3.977,-0l0,-0.227l-20.766,-0l-0.03,1.225l-1.579,0l0,-1.183l-2.498,-0l-0,24.897l2.498,0.022l0,8.037l1.497,-0l-0.102,30.293l214.029,0.127l0,-46.787l2.205,-0l0,-24.343l-3.443,-0l-0.007,-0.344l-3.627,0.061l-0.021,1.727l-8.636,-0.093l0.113,-13.117l-6.397,0l0,-6.371l-4.755,-0l-0,-5.684l-1.739,0l0,0.391l-2.958,0l-0.001,-0.44l-3.269,0l0.029,12.22l-14.677,0.041l0.034,-11.821l-5.077,0l-0,1.268l-3.168,-0.003l0,4.028l-0.151,-0l-0,0.103l-3.372,0.088l0.006,11.488l-13.562,0.012l-0,-14.026l-4.582,-0l0.014,-0.794l-3.046,-0.013l-0.004,5.771l-0.587,0l-0,-0.551l-2.486,-0.07l-0.119,15.5l-9.25,0l0,-18.907l-5.667,0l0.001,-0.723l-4.215,0.063l0.05,5.384l-1.382,-0.031l0.003,0.612l-8.241,0l-0.033,-1.131l-1.653,0.035l-0,-1.089l-5.292,-0.016l0.097,-6.416l-2.213,0l0.004,1.022l-3.044,0l-0,0.01Z" style="fill:#fc815d;"/><path d="M554.531,185.186l-1.579,0l0,31.773l1.579,-0l0,-31.773Zm145.521,-11.75l-6.473,0l0,42.195l6.473,0l0,-42.195Zm-29.887,42.195l0,-39.72l5.678,-0l0,-19.198l-5.678,0l0,5.305l-3.32,0l-0,10.802l-2.158,-0l-0,-10.802l-8.295,0l0,3.336l-1.686,-0l-0,7.466l-5.499,-0l-0,6.182l17.638,-0l-0,36.629l3.32,0Zm41.424,-27.21l0,-18.784l-1.918,-0l0,18.784l-4.448,0l0,23.566l2.894,-0l-0,-21.668l20.953,-0l0,9.441l2.503,0l0,-11.339l-19.984,0Zm-132.247,-4.233l-5.686,-0l0,27.155l5.686,-0l0,-27.155Zm16.46,-6.006l-3.446,-0l-0,30.67l3.446,-0l0,-30.67Zm41.749,9.147l0,-4.344l8.234,-0l0,-17.631l8.921,-0l-0,-5.521l-7.362,-0l-0,-5.41l-3.086,0l-0,15.191l-6.707,-0l0,9.573l-2.734,-0l-0,10.179l-0.94,0l-0,14.289l3.674,-0l0,-12.252l19.203,0l-0,-4.074l-19.203,0Zm133.03,-11.08l-3.448,-0l-0,24.343l3.448,-0l0,-24.343Zm-183.578,5.369l-4.903,-0l-0,4.581l4.903,0l0,-4.581Zm165.406,-11.904l0,7.886l2.438,-0l-0,-7.89l0.098,0l0.015,-5.227l-6.397,0l0,-6.371l-5.829,-0l-0,-5.293l-3.985,0l0,11.664l-12.949,0l0.033,5.271l26.576,-0.04Zm-61.153,-13.937l0,4.964l-3.563,0l-0,14.938l3.818,-0.038l-0.081,-5.807l4.473,-0.019l-0,-14.038l-4.647,-0Zm29.895,13.977l0.076,-16.935l-5.077,0l-0,5.293l-3.319,-0l-0.017,11.63l8.337,0.012Z" style="fill:#809672;"/><path d="M581.383,181.396l-2.079,0l0,27.552l2.079,-0l0,-27.552Zm-28.431,2.607l-2.498,-0l-0,24.897l2.498,0.022l0,-24.919Zm39.375,-5.292l-3.436,-0l0,7.346l3.436,-0l-0,-7.346Zm23.068,-4.255l-3.537,-0l0,9.561l3.537,0l0,-9.561Zm9.863,-5.558l-3.014,-0l0.101,9.243l2.902,-0l0.011,-9.243Zm141.873,7.007l-3.627,0.061l-0.022,1.798l3.685,-0.039l-0.036,-1.82Zm-79.433,-15.715l-2.486,-0.07l-0.119,15.507l2.613,0.123l-0.008,-15.56Zm-20.851,1.267l-2.217,-0.051l0.057,11.418l2.155,0.001l0.005,-11.368Zm-22.595,-7.849l-3.239,-0l0.024,15.987l3.215,-0.01l-0,-15.977Zm81.611,10.951l-4.67,0.081l-0.048,5.194l4.685,-0.053l0.033,-5.222Zm-12.881,-6.347l-3.523,0.091l0.006,11.488l3.332,0.043l0.185,-11.622Zm30.826,-5.784l-1.739,0l0,12.386l1.739,0l-0,-12.386Zm-4.698,-0.049l-3.269,0l0.019,12.123l3.273,0.031l-0.023,-12.154Zm-82.751,8.508l-1.658,0.035l0.017,4.442l1.676,0.012l-0.035,-4.489Zm13.818,-4.897l-4.215,0.063l0.055,5.971l4.152,0.014l0.008,-6.048Zm-20.666,-2.589l-2.213,0l0.025,6.43l2.091,-0.014l0.097,-6.416Zm41.824,1.582l-3.046,-0.013l-0.004,5.773l2.943,0.074l0.107,-5.834Zm24.926,-0.896l-3.279,-0.003l0,4.128l3.227,-0.086l0.052,-4.039Z" style="fill:#3f4f2d;"/></g><path id="hill1" serif:id="hill" d="M684.735,308.887c0,-0 12.642,-48.697 17.6,-54.991c5.448,-6.916 13.788,-15.701 19.314,-21.519c4.422,-4.654 10.789,-11.111 13.843,-13.39c1.201,-0.895 3.124,0.345 4.486,-0.279c1.496,-0.685 2.696,-3.025 4.491,-3.83c1.975,-0.886 4.944,-0.83 7.359,-1.485c2.438,-0.661 5.745,-1.588 7.268,-2.482c0.987,-0.579 1.199,-2.425 1.868,-2.881c0.593,-0.404 1.565,0.563 2.148,0.146c0.998,-0.713 2.422,-3.339 3.838,-4.423c1.351,-1.035 3.449,-1.824 4.661,-2.084c0.868,-0.185 1.725,0.595 2.609,0.526c1.095,-0.085 2.937,-0.875 3.962,-1.037c0.721,-0.114 1.531,0.383 2.189,0.067c0.816,-0.391 1.552,-2.046 2.702,-2.416c1.166,-0.375 3.171,0.534 4.293,0.166c1.079,-0.354 1.305,-2.374 2.438,-2.376c1.134,-0.002 3.031,1.959 4.365,2.364c1.16,0.352 2.466,0.381 3.637,0.065c1.211,-0.326 2.427,-1.336 3.629,-2.024c1.452,-0.832 3.275,-2.21 5.086,-2.967c1.903,-0.797 4.312,-1.813 6.332,-1.811c2.02,0.002 4.096,1.438 5.788,1.82c1.428,0.322 2.975,0.927 4.366,0.47c1.888,-0.619 5.001,-3.016 6.96,-4.189c1.594,-0.954 2.936,-2.85 4.795,-2.844c1.859,0.006 4.615,2.389 6.36,2.882c1.32,0.372 2.779,-0.243 4.113,0.073c1.78,0.421 4.624,2.366 6.562,2.454c1.805,0.082 3.452,-1.829 5.068,-1.926c1.604,-0.096 3.071,0.953 4.629,1.347c1.623,0.411 3.837,1.201 5.114,1.119c1.003,-0.065 1.545,-1.653 2.549,-1.611c1.146,0.048 3.003,1.419 4.33,1.898c1.181,0.425 2.441,0.593 3.636,0.975c1.28,0.41 2.669,1.074 4.046,1.481c1.438,0.425 3.109,0.524 4.578,1.067c3.413,1.263 11.931,5.426 15.898,6.511c2.54,0.695 5.305,-0.443 7.901,-0c3.091,0.527 8.01,3.163 10.645,3.163c2.019,-0 3.842,-3.026 5.165,-3.163c1.202,-0.125 1.563,2.338 2.772,2.338c1.424,0 3.703,-2.496 5.773,-2.338c2.208,0.168 5.316,2.091 7.475,3.346c1.985,1.155 3.484,3.054 5.474,4.186c1.99,1.133 4.498,1.97 6.466,2.609c1.737,0.564 4.053,0.639 5.34,1.224c1.001,0.455 1.514,2.035 2.38,2.285c0.866,0.249 2.017,-0.9 2.817,-0.787c0.801,0.114 1.322,1.256 1.987,1.469c0.639,0.205 1.442,-0.46 2.003,-0.188c0.562,0.271 0.644,1.588 1.367,1.818c0.908,0.29 3.145,-0.438 4.08,-0.081c0.84,0.321 0.749,1.774 1.529,2.221c0.906,0.52 2.582,0.719 3.907,0.896c1.412,0.189 3.097,0.391 4.563,0.237c1.455,-0.152 2.939,-0.869 4.233,-1.159c1.165,-0.261 2.353,-0.757 3.534,-0.581c1.605,0.24 5.071,1.405 6.097,2.017c0.474,0.283 -0.409,1.359 0.057,1.656c0.825,0.526 3.732,1.502 4.894,1.502c0.855,0 1.258,-1.262 2.078,-1.502c0.857,-0.25 2.091,-0.32 3.059,-0c1.163,0.385 2.929,1.161 3.92,2.308c5.392,6.24 29.176,80.725 29.176,80.725l-355.602,0.933Z" style="fill:#6c850f;"/></g><g id="_300" serif:id="300"><g id="nächsebreck"><path d="M1105.25,163.573l13.149,-0.05l0.574,6.896l-14.401,0.269l0.678,-7.115Z" style="fill:#af3b24;"/><path d="M1086.11,172.944l0.057,5.414c0,0 0.012,0.267 0.233,0.548c1.922,2.439 8.273,5.105 11.77,8.276c3.615,3.279 9.912,6.785 9.921,11.396c0.015,6.885 -0.155,16.606 -0.155,16.606l9.641,0.34c-0,0 -0.506,-10.289 -0.618,-16.267c-0.09,-4.787 5.424,-8.716 9.807,-11.483c4.105,-2.592 9.778,-5.517 12.942,-7.417c0.663,-0.398 0.639,-1.249 0.639,-1.249l0.22,-5.566c-3.548,-1.77 -13.165,-3.653 -19.386,-4.438c-6.241,-0.787 -13.155,-0.866 -18.912,-0.292l-0.908,0.12c-9.129,1.399 -15.251,4.012 -15.251,4.012Z" style="fill:#6c0705;"/><path d="M1086.11,172.944l0.057,5.414c0,0 12.676,-4.906 26.653,-4.757c15.699,0.167 27.527,5.507 27.527,5.507l0.228,-5.765c-0,0 -12.635,-5.279 -27.671,-5.329c-15.127,-0.05 -26.794,4.93 -26.794,4.93Z" style="fill:#d44431;"/></g><path id="hill2" serif:id="hill" d="M997.036,238.969c0.902,-0.323 4.743,-2.051 5.202,-2.963c0.73,-1.453 2.412,-1.527 3.743,-2.463c1.324,-0.931 2.253,-3.423 3.464,-4.42c1.11,-0.914 2.521,-0.339 3.302,-1.078c1.628,-1.54 4.582,-1.954 5.954,-3.124c1.145,-0.977 1.358,-2.947 2.278,-3.899c0.861,-0.89 2.178,-1.51 3.243,-1.811c1.009,-0.285 2.147,0.322 3.147,0.006c1.125,-0.355 2.679,-1.614 3.607,-2.138c0.638,-0.36 1.244,-0.832 1.957,-1.003c0.745,-0.179 1.728,0.222 2.512,-0.072c1.11,-0.417 2.89,-2.138 4.148,-2.43c1.127,-0.261 2.366,0.316 3.403,0.679c1.005,0.351 1.785,1.344 2.822,1.497c1.038,0.153 2.506,-0.093 3.402,-0.579c0.896,-0.486 1.17,-1.993 1.974,-2.339c0.805,-0.345 1.904,0.158 2.852,0.265c1.398,0.159 3.681,0.813 5.536,0.687c1.938,-0.133 4.166,-1.512 6.092,-1.482c1.904,0.029 4.036,1.673 5.465,1.66c1.186,-0.01 1.929,-1.587 3.106,-1.735c1.83,-0.231 5.764,0.108 7.877,0.349c1.632,0.187 3.188,1.399 4.802,1.099c1.701,-0.316 3.792,-1.949 5.402,-2.995c1.502,-0.976 2.539,-2.927 4.256,-3.279c1.718,-0.353 4.027,0.976 6.048,1.164c2.018,0.188 4.438,0.767 6.079,-0.035c1.642,-0.802 2.149,-4.346 3.77,-4.777c1.621,-0.431 3.964,1.478 5.955,2.191c2.025,0.725 4.084,1.619 6.196,2.159c2.112,0.54 4.29,0.982 6.476,1.081c2.981,0.134 7.607,-0.381 11.41,-0.276c4.033,0.11 8.556,0.759 12.789,0.938c4.201,0.177 8.555,0.7 12.612,0.132c4.045,-0.566 8.202,-2.981 11.731,-3.538c3.11,-0.49 6.352,-0.405 9.441,0.199c4.188,0.82 11.072,2.968 15.682,4.718c4.146,1.573 8.734,4.902 11.98,5.78c2.419,0.653 5.04,-0.992 7.499,-0.515c2.703,0.524 5.593,3.233 8.715,3.661c3.828,0.525 10.463,-1.285 14.259,-0.512c3.25,0.662 5.337,4.292 8.515,5.15c3.178,0.858 7.049,-0.306 10.553,-0c3.919,0.343 8.851,1.47 12.966,2.056c3.899,0.554 7.8,1.127 11.725,1.457c5.795,0.488 15.782,-0.016 23.045,1.468c7.134,1.457 13.758,5.18 20.537,7.438c6.655,2.217 13.326,4.434 20.138,6.11c6.896,1.696 15.584,1.495 21.239,4.071c5.172,2.356 12.693,11.383 12.693,11.383l0,73.545l-339.756,-1.89l-96.909,0.444c-0,-0 -5.984,0.826 -8.136,-9.469c-1.426,-6.822 -2.952,-14.951 -2.904,-20.707c0.04,-4.731 2,-10.619 3.193,-13.829c0.78,-2.101 3.247,-3.776 3.961,-5.432c0.596,-1.383 -0.083,-3.245 0.323,-4.505c0.379,-1.178 1.287,-2.316 2.11,-3.056c0.779,-0.702 2.067,-0.66 2.825,-1.385c0.853,-0.816 1.691,-2.632 2.292,-3.511c0.414,-0.605 0.75,-1.296 1.314,-1.765c0.589,-0.489 1.648,-0.563 2.222,-1.174c0.811,-0.864 1.648,-3.194 2.648,-4.012c0.896,-0.732 2.262,-0.76 3.353,-0.893c1.057,-0.129 2.195,0.418 3.193,0.097c0.999,-0.321 2.208,-1.19 2.797,-2.022c0.589,-0.832 0.169,-2.305 0.738,-2.97c0.569,-0.665 1.777,-0.699 2.676,-1.022c1.324,-0.475 3.661,-0.896 5.27,-1.829c1.68,-0.974 3.07,-3.196 4.811,-4.02c1.721,-0.814 2.928,-3.961 4.204,-4.603c1.06,-0.533 6.173,-5.211 8.176,-5.927Z" style="fill:#b4a700;"/></g><g id="_400" serif:id="400"><path id="hill3" serif:id="hill" d="M442.347,323.967c-0,-0 54.376,-68.565 67.389,-80.395c3.323,-3.021 10.11,-2.64 12.781,-4.259c1.81,-1.097 1.561,-4.178 3.248,-5.457c1.787,-1.355 5.235,-1.266 7.478,-2.671c2.503,-1.568 5.076,-5.209 7.538,-6.735c2.16,-1.339 5.031,-1.145 7.231,-2.419c2.258,-1.308 3.929,-4.54 6.319,-5.429c2.389,-0.888 5.345,0.082 8.018,0.097c2.845,0.016 6.099,0.622 9.051,-0.001c3.093,-0.653 6.284,-3.117 9.509,-3.916c3.197,-0.791 7.179,-0.339 9.842,-0.875c2.145,-0.432 4.123,-1.478 6.134,-2.342c2.443,-1.049 6.062,-3.474 8.525,-3.951c2.077,-0.402 4.226,1.099 6.252,1.091c2.004,-0.007 3.901,-1.182 5.905,-1.134c2.244,0.054 4.997,1.588 7.561,1.456c2.923,-0.151 7.454,-2.172 9.978,-2.362c1.765,-0.133 3.414,0.982 5.168,1.221c2.04,0.278 4.812,0.804 7.07,0.448c2.259,-0.355 4.222,-2.524 6.482,-2.58c2.26,-0.056 4.697,1.814 7.079,2.247c2.368,0.43 4.847,-0.097 7.212,0.349c3.631,0.686 10.325,2.53 14.571,3.765c3.679,1.07 8.213,3.005 10.903,3.644c1.699,0.404 3.916,-0.275 5.236,0.19c1.174,0.413 1.697,1.841 2.683,2.597c0.986,0.756 1.995,1.722 3.232,1.939c1.279,0.225 2.96,-0.783 4.442,-0.592c1.62,0.209 3.54,1.178 5.281,1.846c2.26,0.867 5.614,2.021 8.276,3.354c3.288,1.647 8.194,5.016 11.455,6.525c2.571,1.191 5.666,1.105 8.113,2.533c2.552,1.49 4.935,4.128 7.201,6.405c3.873,3.891 12.003,10.293 16.036,16.94c5.142,8.477 11.505,24.735 14.82,33.92c4.009,11.106 9.285,44.133 9.285,44.133l-347.304,-9.582Z" style="fill:#6b7f03;"/></g><g id="_500" serif:id="500"><path id="hill4" serif:id="hill" d="M429.248,284.464c9.763,-10.639 27.713,-18.535 36.711,-23.001c5.282,-2.622 11.402,-3.303 17.278,-3.797c8.25,-0.693 25.756,-0.148 32.222,-0.361c2.213,-0.073 4.829,-0.898 6.577,-0.919c1.33,-0.017 2.581,0.793 3.911,0.792c1.403,-0.002 2.981,-0.728 4.505,-0.803c1.621,-0.081 3.729,0.501 5.221,0.32c1.321,-0.16 2.683,-0.95 3.734,-1.407c0.886,-0.385 1.671,-1.681 2.573,-1.334c1.072,0.412 2.445,3.022 3.863,3.807c1.38,0.764 3.239,0.536 4.646,0.904c1.294,0.339 2.704,0.531 3.794,1.305c1.236,0.878 2.392,2.662 3.619,3.962c2.051,2.174 5.836,6.474 8.688,9.079c2.625,2.398 6.35,5.022 8.419,6.549c1.281,0.945 2.709,1.955 3.998,2.615c1.178,0.603 2.591,0.681 3.735,1.345c1.458,0.846 3.43,2.861 5.01,3.729c1.376,0.757 3.602,0.798 4.47,1.483c0.715,0.564 0.209,1.89 0.739,2.63c0.618,0.861 1.989,1.68 2.966,2.539c1.104,0.972 2.48,2.683 3.659,3.288c1.017,0.522 2.428,-0.238 3.412,0.344c1.099,0.65 1.847,2.692 3.183,3.556c1.552,1.004 4.297,1.252 6.133,2.471c2.088,1.387 4.927,4.223 6.394,5.848c1.025,1.135 1.689,2.555 2.408,3.904c1.153,2.164 4.509,9.079 4.509,9.079l-221.173,6.098c0,-0 14.545,-32.854 24.796,-44.025Z" style="fill:#145a30;"/></g><g id="_600" serif:id="600"><path id="hill5" serif:id="hill" d="M24.766,201.74c-0,-0 48.943,-2.446 60.754,-3.62c3.541,-0.352 7.398,-3.203 10.113,-3.422c2.168,-0.175 4.283,2.196 6.176,2.107c1.893,-0.089 3.243,-2.69 5.18,-2.64c2.592,0.069 7.31,3.319 10.373,3.049c3.064,-0.27 6.163,-4.492 8.009,-4.667c1.574,-0.149 1.494,3.445 3.066,3.619c2.281,0.253 7.821,-2.129 10.62,-2.104c2.192,0.019 3.987,2.191 6.178,2.251c2.94,0.082 8.222,-0.743 11.466,-1.763c2.895,-0.909 6.224,-2.742 7.996,-4.353c1.463,-1.329 1.357,-4.986 2.636,-5.312c1.28,-0.325 3.037,3.101 5.039,3.357c3.802,0.485 12.905,0.031 17.768,-0.445c3.869,-0.378 8.701,-1.501 11.412,-2.409c1.81,-0.605 3.483,-2.868 4.856,-3.035c1.305,-0.159 2.072,2.173 3.379,2.035c1.62,-0.172 3.999,-2.865 6.337,-3.066c2.801,-0.241 6.938,1.715 10.467,1.621c3.665,-0.097 9.25,-1.268 11.521,-2.204c1.235,-0.509 1.183,-2.999 2.103,-3.412c0.92,-0.412 2.273,1.226 3.417,0.934c2.329,-0.592 7.209,-3.579 10.555,-4.489c3.078,-0.836 6.418,-0.222 9.52,-0.966c4.285,-1.028 11.794,-3.796 16.19,-5.2c3.392,-1.084 7.844,-2.88 10.186,-3.224c1.331,-0.196 2.529,1.013 3.866,1.158c1.378,0.15 3.358,0.081 4.402,-0.261c0.819,-0.268 1.004,-1.831 1.864,-1.79c0.941,0.045 2.412,1.628 3.78,2.062c1.953,0.62 5.335,1.609 7.935,1.655c2.594,0.045 5.09,-1.731 7.661,-1.383c3.137,0.426 8.329,3.526 11.156,3.934c1.978,0.286 4.591,-1.468 5.807,-1.485c0.679,-0.009 0.908,1.038 1.49,1.388c0.598,0.36 1.387,0.898 2.102,0.773c0.715,-0.125 1.317,-1.706 2.187,-1.525c0.957,0.199 2.119,2.314 3.555,2.717c2.137,0.601 6.732,1.242 9.264,0.886c2.197,-0.309 4.439,-2.844 5.929,-3.021c1.19,-0.142 1.927,1.457 3.016,1.957c2.271,1.042 8.733,2.892 10.612,4.295c1.115,0.832 -0.379,3.197 0.661,4.122c1.232,1.095 5.394,1.324 6.733,2.453c1.15,0.969 0.202,3.295 1.303,4.319c1.12,1.041 3.702,1.51 5.413,1.924c1.583,0.383 3.767,0.027 4.854,0.562c0.935,0.46 0.807,2.055 1.666,2.645c0.942,0.647 2.783,0.868 3.982,1.233c1.069,0.325 2.505,0.453 3.213,0.954c0.626,0.443 0.407,1.636 1.038,2.053c0.631,0.418 2.298,-0.315 2.749,0.452c0.451,0.767 -0.978,3.132 -0.042,4.15c1.075,1.17 5.335,2.127 6.488,2.864c0.453,0.29 -0.072,1.355 0.427,1.556c0.981,0.396 3.847,0.154 5.458,0.82c1.611,0.667 3.036,2.356 4.208,3.179c0.907,0.636 1.965,1.054 2.824,1.754c0.992,0.808 1.792,2.493 3.131,3.095c1.426,0.641 4.371,0.02 5.429,0.753c1.03,0.714 -0.099,2.913 0.918,3.645c1.249,0.899 4.532,0.761 6.574,1.747c2.124,1.025 4.37,3.203 6.169,4.404c1.5,1.001 3.262,2.371 4.626,2.804c1.131,0.359 2.657,-0.616 3.555,-0.207c0.899,0.409 0.884,2.158 1.836,2.661c0.975,0.515 2.747,0.629 4.014,0.43c1.267,-0.2 2.645,-1.979 3.59,-1.626c0.945,0.353 1.137,3.103 2.081,3.744c0.944,0.64 2.54,-0.258 3.584,0.099c1.044,0.356 1.629,1.642 2.679,2.04c1.862,0.706 6.91,1.282 8.495,2.196c0.995,0.574 0.123,2.57 1.016,3.292c1.305,1.054 4.837,2.364 6.813,3.034c1.622,0.551 3.427,0.419 5.042,0.989c1.712,0.604 3.715,1.781 5.229,2.635c1.331,0.752 2.554,1.682 3.852,2.489c1.48,0.919 3.23,2.253 5.025,3.029c1.892,0.818 4.581,0.537 6.324,1.876c2.597,1.995 6.769,7.661 9.255,10.092c1.721,1.683 3.771,3.803 5.658,4.491c1.778,0.648 4.453,-0.584 5.665,-0.366c0.761,0.137 1.39,0.932 1.605,1.675c0.267,0.923 -0.789,2.844 -0,3.861c1.036,1.334 4.595,3.115 6.215,4.143c1.139,0.724 2.47,1.16 3.503,2.027c1.104,0.925 2.182,2.637 3.119,3.527c0.748,0.71 1.567,1.386 2.504,1.814c2.12,0.967 6.971,2.303 10.214,3.987c4.719,2.45 13.75,6.755 18.097,10.711c3.767,3.428 9.745,30.316 9.745,30.316l-576.805,3.461l10.325,-131.91Z" style="fill:#295e25;"/></g><g id="_700" serif:id="700"><g id="Lila-turm" serif:id="Lila turm"><path d="M173.971,224.878c-0,0 2.627,-52.564 3.976,-63.86c1.34,-11.222 20.375,-10.325 21.09,-0.469c0.235,3.237 3.826,64.036 3.826,64.036l-28.892,0.293Z" style="fill:#cba09f;"/><path d="M189.453,207.839c-0.416,-0.858 -2.447,-0.858 -2.863,0c-0.477,0.985 -0.477,4.926 0,5.911c0.416,0.858 2.447,0.858 2.863,-0c0.477,-0.985 0.477,-4.926 0,-5.911Z" style="fill:#3d242e;"/><path d="M189.453,186.376c-0.416,-0.859 -2.447,-0.859 -2.863,0c-0.477,0.985 -0.477,4.925 0,5.91c0.416,0.859 2.447,0.859 2.863,0c0.477,-0.985 0.477,-4.925 0,-5.91Z" style="fill:#3d242e;"/><path d="M188.412,172.564c-1.272,0.063 -3.018,0.299 -3.181,1.439c-0.81,5.656 -1.602,43.955 -1.817,50.875l-2.726,0c0.534,-10.128 1.569,-40.212 1.815,-49.873c0.06,-2.355 -3.896,-2.579 -3.988,-0.57c-0.474,10.355 -1.707,40.734 -2.271,50.443l-2.273,0c0.233,-3.911 0.822,-15.715 1.104,-20.945c0.862,-15.986 1.971,-35.331 2.573,-40.9c0.675,-6.254 5.765,-8.762 10.764,-8.466c4.999,-0.296 10.09,2.212 10.765,8.466c0.798,7.391 2.74,45.682 3.686,61.549l-2.286,0.037c-0.564,-9.709 -1.864,-39.651 -2.267,-50.184c-0.061,-1.589 -4.072,-1.703 -3.988,0.57c0.356,9.697 1.254,39.572 1.788,49.699l-2.738,-0.002c-0.215,-6.92 -0.968,-45.043 -1.778,-50.699c-0.163,-1.14 -1.909,-1.376 -3.182,-1.439Z" style="fill:#3d242e;"/></g><g id="Layer18"><path d="M318.206,213.055l2.374,-94.705l2.782,-0.95c-0,-0 0.458,-11.014 0.507,-13.28c0.112,-5.109 1.997,-5.302 2.174,-0.053c0.079,2.327 0.635,13.74 0.635,13.74l2.088,1.045l-0.491,94.774l-10.069,-0.571Z" style="fill:#2f1927;"/><path d="M320.05,141.441c0,0.364 -0.017,0.748 -0.017,0.748c0,-0 -0.003,-0.002 -0.005,-0.004c-0.882,-0.504 -1.416,-1.164 -1.416,-1.886c-0,-1.586 2.579,-2.874 5.755,-2.874c3.176,0 5.754,1.288 5.754,2.874c0,0.735 -0.578,1.366 -1.465,1.915c-0.021,0.013 0.007,-0.408 0.007,-0.772c-0,-1.19 -1.914,-2.156 -4.296,-2.156c-2.383,-0 -4.317,0.965 -4.317,2.155Z" style="fill:#867474;"/><path d="M320.221,133.52c0,0.364 -0.017,0.748 -0.017,0.748c0,-0 -0.003,-0.003 -0.005,-0.004c-0.867,-0.505 -1.392,-1.165 -1.392,-1.887c-0,-1.585 2.535,-2.873 5.657,-2.873c3.123,-0 5.657,1.288 5.657,2.873c0,0.736 -0.568,1.367 -1.441,1.916c-0.02,0.012 0.007,-0.408 0.007,-0.772c0,-1.19 -1.881,-2.157 -4.223,-2.157c-2.342,0 -4.243,0.966 -4.243,2.156Z" style="fill:#867474;"/><path d="M320.377,126.589c-0,0.364 -0.017,0.748 -0.017,0.748c-0,-0 -0.004,-0.003 -0.006,-0.004c-0.86,-0.505 -1.381,-1.165 -1.381,-1.887c-0,-1.585 2.516,-2.873 5.616,-2.873c3.1,-0 5.617,1.288 5.617,2.873c-0,0.736 -0.565,1.367 -1.431,1.916c-0.02,0.012 0.007,-0.408 0.007,-0.772c-0,-1.19 -1.868,-2.157 -4.193,-2.157c-2.325,0 -4.212,0.966 -4.212,2.156Z" style="fill:#867474;"/><path d="M320.499,120.634c-0,0.364 -0.017,0.748 -0.017,0.748c0,-0 -0.003,-0.003 -0.005,-0.004c-0.842,-0.505 -1.353,-1.165 -1.353,-1.886c0,-1.586 2.464,-2.874 5.499,-2.874c3.035,-0 5.498,1.288 5.498,2.874c0,0.735 -0.552,1.366 -1.4,1.915c-0.02,0.012 0.006,-0.408 0.006,-0.772c0,-1.19 -1.828,-2.157 -4.104,-2.157c-2.276,0 -4.124,0.966 -4.124,2.156Z" style="fill:#867474;"/></g><path id="hill6" serif:id="hill" d="M464.125,330.189l-464.125,-1.303l0,-131.941c0,0 3.112,-1.218 4.489,-1.626c1.454,-0.431 3.038,-2.674 4.421,-2.722c1.383,-0.047 2.706,2.11 3.877,2.436c1.024,0.284 2.313,-0.957 3.152,-0.483c0.839,0.474 0.951,2.458 1.883,3.328c1.078,1.005 3.032,1.848 4.586,2.705c1.737,0.959 3.739,2.401 5.837,3.044c2.523,0.774 7.111,1.105 9.304,1.601c1.33,0.301 2.562,0.938 3.854,1.374c1.842,0.622 4.78,2.026 7.197,2.357c2.416,0.33 4.893,-0.023 7.307,-0.374c2.542,-0.37 5.361,-2.008 7.948,-1.844c2.587,0.165 5.418,2.448 7.573,2.83c1.768,0.312 3.591,-0.85 5.36,-0.541c1.775,0.309 3.493,1.68 5.292,2.397c2.189,0.872 5.572,2.528 7.843,2.833c1.939,0.26 4.298,-0.55 5.784,-1.006c1.14,-0.349 2.124,-1.467 3.132,-1.727c0.943,-0.244 1.965,0.373 2.916,0.164c1.488,-0.327 4.132,-1.849 6.013,-2.127c1.746,-0.257 3.965,0.816 5.274,0.461c1.177,-0.319 1.428,-2.338 2.583,-2.59c1.154,-0.251 2.91,0.67 4.344,1.083c2.405,0.693 6.841,1.905 10.087,3.075c3.195,1.151 6.098,3.119 9.392,3.946c5.35,1.344 16.656,3.842 22.71,4.117c4.606,0.209 9.778,-1.399 13.612,-2.468c3.271,-0.912 6.197,-2.795 9.391,-3.946c3.247,-1.17 7.682,-2.381 10.088,-3.074c1.434,-0.413 3.19,-1.335 4.344,-1.083c1.154,0.251 1.405,2.271 2.582,2.589c1.309,0.355 3.528,-0.718 5.274,-0.461c1.881,0.278 4.526,1.8 6.014,2.127c0.95,0.209 1.973,-0.407 2.915,-0.164c1.008,0.261 1.993,1.378 3.133,1.727c1.486,0.456 3.844,1.266 5.784,1.006c2.271,-0.305 5.653,-1.961 7.843,-2.833c1.799,-0.716 3.516,-2.088 5.291,-2.397c1.769,-0.309 3.592,0.854 5.36,0.541c2.156,-0.382 4.987,-2.665 7.573,-2.83c2.587,-0.164 5.406,1.475 7.949,1.844c2.413,0.351 4.89,0.704 7.307,0.374c2.417,-0.331 5.355,-1.735 7.196,-2.357c1.293,-0.436 2.524,-1.073 3.854,-1.374c2.194,-0.495 6.781,-0.826 9.305,-1.601c2.098,-0.643 4.1,-2.085 5.837,-3.043c1.554,-0.858 3.507,-1.701 4.585,-2.706c0.932,-0.869 1.044,-2.854 1.884,-3.328c0.839,-0.474 2.127,0.767 3.151,0.483c1.172,-0.325 2.494,-2.483 3.878,-2.436c1.383,0.048 2.967,2.292 4.421,2.722c1.376,0.408 3.122,-0.44 4.305,-0.137c1.1,0.282 1.766,1.751 2.791,1.956c1.025,0.205 2.268,-1.077 3.358,-0.725c1.494,0.482 3.657,2.581 5.601,3.617c1.94,1.033 4.702,2.277 6.063,2.595c0.716,0.168 1.565,-0.813 2.098,-0.688c0.533,0.124 0.527,1.25 1.101,1.433c0.645,0.206 2.167,-0.444 2.771,-0.198c0.58,0.236 0.364,1.525 0.851,1.674c0.488,0.15 1.353,-0.935 2.076,-0.779c0.722,0.156 1.368,1.401 2.261,1.714c0.942,0.33 2.671,-0.061 3.393,0.265c0.587,0.266 0.381,1.366 0.937,1.691c0.761,0.443 2.689,0.142 3.625,0.971c1.253,1.109 2.563,4.254 3.89,5.684c1.133,1.221 3.115,1.532 4.072,2.895c1.021,1.453 1.069,4.367 2.054,5.822c0.903,1.332 2.983,2.123 3.857,2.905c0.562,0.503 1.144,1.101 1.389,1.787c0.245,0.686 -0.293,1.852 0.083,2.329c0.375,0.477 1.756,-0.087 2.17,0.532c0.757,1.132 1.474,4.393 2.375,6.258c0.839,1.736 1.582,3.656 3.031,4.928c2.194,1.924 7.318,5.279 10.129,6.618c2.073,0.987 4.831,1.261 6.74,1.415c1.574,0.127 3.134,-0.546 4.713,-0.491c1.751,0.061 3.874,0.913 5.794,0.856c1.92,-0.056 4.026,-0.889 5.726,-1.193c1.482,-0.266 3.101,-0.763 4.473,-0.634c1.332,0.125 2.55,0.835 3.76,1.408c1.833,0.867 4.879,2.431 7.237,3.796c3.643,2.108 10.77,5.764 14.623,8.854c3.35,2.687 5.78,6.767 8.493,9.689c2.505,2.698 5.811,5.586 7.781,7.84c1.53,1.749 3.211,3.511 4.04,5.682c1.673,4.383 5.735,42.852 5.735,42.852Z" style="fill:#657e0f;"/></g><g id="_800" serif:id="800"><g id="turm"><path d="M887.462,176.98c-0.571,0.34 -1.111,0.697 -1.614,1.069l0.124,-3.056c4.28,-3.106 11.043,-5.113 18.647,-5.113c7.807,0 14.726,2.115 18.983,5.364l0.125,3.06c-0.561,-0.437 -1.17,-0.853 -1.823,-1.248l1.178,47.824l-37.546,0l1.926,-47.9Z" style="fill:#893532;"/><path d="M912.806,174.579c2.381,0.416 4.597,1.042 6.579,1.842l0.917,37.506c-2.178,-0.56 -4.715,-1.009 -7.496,-1.316l0,-38.032Zm-16.007,0.454l0,37.459c-2.805,0.27 -5.348,0.693 -7.506,1.238l1.459,-36.574c1.795,-0.872 3.832,-1.592 6.047,-2.123Zm2.914,-0.572c1.971,-0.305 4.047,-0.468 6.191,-0.468c1.36,-0 2.693,0.065 3.989,0.191l-0,38.166c-1.525,-0.107 -3.104,-0.173 -4.723,-0.193c-1.879,-0.022 -3.707,0.018 -5.457,0.115l-0,-37.811Z" style="fill:#f1ab97;"/><rect x="902.513" y="200.701" width="4.627" height="11.502" style="fill:#f1ab97;"/><path d="M909.64,200.701c0,-1.38 -1.119,-2.5 -2.5,-2.5l-4.627,0c-1.381,0 -2.5,1.12 -2.5,2.5l0,11.502c0,1.381 1.119,2.5 2.5,2.5l4.627,0c1.381,0 2.5,-1.119 2.5,-2.5l0,-11.502Zm-2.5,0l-4.627,0l0,11.502l4.627,0l0,-11.502Z" style="fill:#893532;"/><rect x="902.513" y="217.158" width="4.627" height="4.007" style="fill:#f1ab97;"/></g><path d="M888.777,222.447c2.974,-0.629 7.037,-1.605 8.784,-1.449c1.31,0.118 1.353,2.625 2.512,3.102l0.232,0.048l0.188,0.037c1.711,0.105 5.15,-1.714 6.812,-1.466c0.96,0.143 1.472,1.226 2.111,2.055l0.449,-0.028c0.224,-0.016 0.447,-0.031 0.671,-0.047l0.251,-0.018c0.27,-0.267 0.574,-0.462 0.944,-0.517c0.54,-0.081 1.268,0.057 2.064,0.276c1.1,-0.09 2.195,-0.179 3.282,-0.247c1.312,-0.629 2.642,-1.652 3.647,-1.748c0.169,-0.016 0.329,0.008 0.484,0.06c0.083,-0.032 0.171,-0.053 0.267,-0.062c1.078,-0.097 3.038,0.238 5.081,0.657c0.357,-0.121 0.7,-0.233 1.011,-0.315c0.033,-0.009 -0.097,0.144 -0.38,0.446c2.18,0.459 4.359,0.972 5.576,1.121c1.19,0.146 2.655,-0.829 3.594,-0.085c1.176,0.933 1.756,4.267 3.464,5.682c1.97,1.631 6.218,3.496 8.352,4.105c1.434,0.409 3.533,-0.782 4.452,-0.45c0.836,0.303 0.519,1.964 1.062,2.446c0.543,0.482 1.498,0.437 2.196,0.444c0.679,0.007 1.423,-0.763 1.996,-0.4c1.027,0.652 2.332,3.516 4.165,4.31c2.622,1.135 8.669,1.219 11.562,2.501c2.372,1.052 3.566,3.873 5.798,5.195c2.237,1.325 5.637,2.257 7.624,2.753c1.392,0.348 3.475,-0.228 4.3,0.227c0.754,0.416 0.091,1.844 0.648,2.501c0.71,0.839 2.36,1.936 3.612,2.532c1.214,0.577 2.868,0.176 3.898,1.041c1.814,1.521 4.662,5.385 6.983,8.087c0.282,0.329 0.699,1.787 1.224,4.16c11.076,4.672 32.74,13.64 48.689,18.58c20.345,6.302 52.279,14.522 70.085,17.838c12.062,2.246 24.514,1.147 36.75,2.057c12.659,0.942 27.679,0.422 39.207,3.596c10.833,2.982 20.543,9.317 29.962,15.445c10.798,7.025 34.83,26.707 34.83,26.707l1.808,46.376l-612.089,0l-0.167,-47.728c0,0 63.575,-32.548 94.616,-50.18c18.22,-10.349 40.674,-24.207 59.963,-36.146c0.613,-1.189 1.03,-1.928 1.22,-2.15c2.321,-2.701 5.169,-6.566 6.983,-8.087c1.03,-0.864 2.684,-0.463 3.898,-1.041c1.252,-0.595 2.902,-1.692 3.612,-2.531c0.557,-0.658 -0.106,-2.086 0.648,-2.502c0.825,-0.455 2.908,0.121 4.3,-0.227c1.987,-0.496 5.386,-1.428 7.623,-2.752c2.233,-1.323 3.426,-4.144 5.799,-5.195c2.893,-1.283 8.94,-1.366 11.561,-2.502c1.834,-0.794 3.139,-3.658 4.166,-4.31c0.573,-0.363 1.317,0.408 1.996,0.401c0.698,-0.008 1.652,0.037 2.195,-0.445c0.543,-0.481 0.227,-2.143 1.063,-2.445c0.717,-0.26 2.153,0.409 3.43,0.52c3.784,-2.795 7.88,-6.076 11.718,-8.116c0.35,-0.758 0.696,-1.406 1.12,-1.742c0.783,-0.621 1.934,-0.044 2.985,0.078c1.043,-0.263 2.08,-0.405 3.113,-0.453Z" style="fill:#1d6232;"/></g></g><g id="center"><g id="behindetrack"><path d="M1223.52,310.768l7.384,0l8.746,-109.854l-3.764,-0.152l-12.366,110.006Z" style="fill:#5b5b5e;"/><path d="M514.081,313.835l5.07,-0c-4.834,4.626 -7.891,7.608 -7.891,7.608l-8.556,0.797c-0,0 4.534,-4.404 11.377,-10.908l0,2.503Zm252.181,-0c5.351,5.105 8.749,8.405 8.749,8.405l-8.556,-0.797c0,-0 -3.057,-2.982 -7.892,-7.608l7.699,-0Zm-248.181,-6.294c16.678,-15.763 42.449,-39.553 53.873,-47.119c10.691,-7.081 44.292,-15.249 44.292,-15.249l0.009,0.038c6.931,-1.813 14.422,-2.804 22.237,-2.804c1.455,0 2.899,0.035 4.329,0.102l0,-0.031c6.518,0.255 12.779,1.2 18.639,2.733l0.009,-0.038c-0,-0 33.6,8.168 44.292,15.249c11.424,7.566 37.194,31.356 53.873,47.119l-7.684,-0c-15.382,-14.555 -38.901,-36.238 -49.66,-43.197c-10.073,-6.515 -41.798,-14.855 -41.798,-14.855l0.02,-0.089c-4.467,-1.24 -9.2,-2.102 -14.12,-2.529l0,0.067c-2.582,-0.248 -5.22,-0.376 -7.9,-0.376c-7.509,-0 -14.689,1.006 -21.289,2.838l0.02,0.089c-0,-0 -31.725,8.34 -41.798,14.855c-10.759,6.959 -34.278,28.642 -49.66,43.197l-7.684,-0Z" style="fill:#4c4760;"/><g id="Wupper"><path d="M0,354.309l0,-42.321c0,-0 -0.566,-0.24 0.995,0.131c1.561,0.372 2.736,1.325 4.34,1.689c1.643,0.372 3.893,0.52 5.517,0.545c1.427,0.021 2.921,-0.05 4.233,-0.399c1.667,-0.444 3.696,-1.735 5.769,-2.265c2.073,-0.529 4.652,-0.996 6.667,-0.911c1.958,0.083 3.777,0.932 5.424,1.423c1.529,0.456 2.971,1.248 4.457,1.525c1.426,0.265 3.011,0.347 4.459,0.135c1.748,-0.256 3.934,-1.256 6.032,-1.67c2.583,-0.51 6.663,-1.435 9.465,-1.392c2.605,0.041 4.838,1.22 7.348,1.655c2.944,0.509 10.462,1.471 11.36,1.585c0.897,-0.114 8.416,-1.076 11.36,-1.585c2.51,-0.435 4.743,-1.614 7.348,-1.655c2.802,-0.043 6.882,0.882 9.465,1.392c2.098,0.414 4.283,1.414 6.032,1.67c1.448,0.212 3.033,0.13 4.459,-0.135c1.486,-0.277 2.928,-1.069 4.457,-1.525c1.647,-0.491 3.466,-1.34 5.424,-1.423c2.015,-0.085 4.594,0.382 6.667,0.911c2.073,0.53 4.102,1.821 5.769,2.265c1.311,0.349 2.806,0.42 4.232,0.399c1.625,-0.025 3.875,-0.173 5.518,-0.545c1.604,-0.364 2.779,-1.317 4.34,-1.689c1.561,-0.371 3.428,-0.486 5.025,-0.542c1.521,-0.052 3.109,-0.055 4.557,0.21c1.449,0.265 2.934,0.913 4.132,1.38c1.08,0.421 1.899,1.096 3.061,1.422c1.228,0.344 2.833,0.646 4.312,0.644c1.948,-0.002 5.259,-0.101 7.374,-0.659c2.103,-0.555 3.368,-2.287 5.316,-2.688c1.948,-0.402 4.342,0.072 6.373,0.279c1.979,0.201 4.175,0.502 5.814,0.959c1.505,0.42 2.768,1.356 4.025,1.787c1.094,0.375 2.296,0.952 3.522,0.8c1.403,-0.174 3.39,-1.26 4.896,-1.844c1.395,-0.541 2.545,-1.419 4.141,-1.664c1.623,-0.25 3.972,-0.017 5.598,0.168c1.451,0.166 2.779,0.617 4.157,0.946c1.58,0.377 3.506,0.963 5.324,1.315c1.818,0.352 3.676,0.742 5.583,0.797c1.927,0.055 4.059,-0.094 5.977,-0.464c1.943,-0.374 3.96,-1.324 5.682,-1.782c1.501,-0.4 3.122,-1.298 4.646,-0.969c1.525,0.329 2.906,2.278 4.501,2.945c1.479,0.618 3.313,0.872 5.071,1.057c2.108,0.222 5.729,0.528 7.576,0.275c1.478,-0.202 2.453,-1.106 3.716,-1.623c1.673,-0.684 3.916,-2.041 6.319,-2.481c3.113,-0.571 9.651,-1.247 13.367,-1.536c3.374,-0.262 6.808,0.166 10.171,0.477c3.742,0.346 9.067,1.62 12.283,1.601c2.512,-0.014 4.544,-1.426 7.013,-1.711c2.959,-0.342 7.825,-0.562 10.738,-0.339c2.403,0.184 4.367,1.384 6.742,1.676c2.815,0.345 6.881,0.955 10.147,0.395c3.876,-0.666 4.845,-1.786 7.703,-1.904c3.518,-0.146 7.223,1.015 9.464,1.461c2.762,0.549 6.082,1.166 8.374,1.393c1.771,0.174 3.61,0.146 5.379,-0.036c2.342,-0.241 5.541,-0.869 8.673,-1.41c2.51,-0.435 4.744,-1.614 7.348,-1.655c2.803,-0.043 6.883,0.882 9.465,1.392c2.098,0.414 4.284,1.414 6.032,1.67c1.449,0.212 3.034,0.13 4.459,-0.135c1.486,-0.277 2.928,-1.069 4.458,-1.525c1.646,-0.491 3.465,-1.34 5.423,-1.423c2.016,-0.085 4.595,0.382 6.667,0.911c2.073,0.53 4.103,1.821 5.769,2.265c1.312,0.349 2.806,0.42 4.233,0.399c1.625,-0.025 3.874,-0.173 5.517,-0.545c1.604,-0.364 2.78,-1.317 4.34,-1.689c1.561,-0.371 3.428,-0.486 5.025,-0.542c1.521,-0.052 3.11,-0.055 4.558,0.21c1.448,0.265 2.933,0.913 4.132,1.38c1.079,0.421 1.899,1.096 3.06,1.422c1.229,0.344 2.834,0.646 4.312,0.644c1.948,-0.002 5.259,-0.101 7.375,-0.659c2.103,-0.555 3.367,-2.287 5.315,-2.688c1.949,-0.402 4.342,0.072 6.374,0.279c1.979,0.201 4.174,0.502 5.814,0.959c1.504,0.42 2.767,1.356 4.025,1.787c1.094,0.375 2.295,0.952 3.521,0.8c1.403,-0.174 3.391,-1.26 4.897,-1.844c1.394,-0.541 2.545,-1.419 4.141,-1.664c1.623,-0.25 3.971,-0.017 5.597,0.168c1.452,0.166 2.78,0.617 4.158,0.946c1.58,0.377 3.506,0.963 5.323,1.315c1.818,0.352 3.676,0.742 5.584,0.797c1.926,0.055 4.059,-0.094 5.976,-0.464c1.943,-0.374 3.961,-1.324 5.682,-1.782c1.502,-0.4 3.122,-1.298 4.647,-0.969c1.524,0.329 2.905,2.278 4.5,2.945c1.479,0.618 3.313,0.872 5.071,1.057c2.108,0.222 5.73,0.528 7.576,0.275c1.478,-0.202 2.239,-1.276 3.503,-1.793c1.673,-0.684 4.151,-2.797 6.533,-2.311c3.773,0.769 4.473,2.421 10.47,2.285c3.655,-0.082 8.315,-1.055 11.448,-1.597c2.51,-0.434 4.743,-1.613 7.348,-1.654c2.802,-0.044 6.882,0.881 9.465,1.392c2.098,0.414 4.283,1.414 6.032,1.67c1.448,0.212 3.033,0.13 4.459,-0.136c1.486,-0.276 2.928,-1.068 4.457,-1.524c1.647,-0.491 3.466,-1.34 5.424,-1.423c2.015,-0.085 4.594,0.382 6.667,0.911c2.073,0.529 4.102,1.82 5.769,2.264c1.311,0.35 2.806,0.421 4.232,0.399c1.625,-0.024 3.875,-0.172 5.518,-0.545c1.604,-0.363 2.779,-1.316 4.34,-1.688c1.561,-0.372 3.427,-0.487 5.025,-0.542c1.521,-0.053 3.109,-0.055 4.557,0.21c1.449,0.265 2.934,0.913 4.132,1.38c1.08,0.42 1.899,1.096 3.061,1.422c1.228,0.344 2.833,0.646 4.312,0.644c1.948,-0.002 5.259,-0.102 7.374,-0.66c2.103,-0.554 3.368,-2.286 5.316,-2.688c1.948,-0.401 4.342,0.073 6.373,0.28c1.979,0.201 4.174,0.501 5.814,0.959c1.505,0.42 2.768,1.356 4.025,1.787c1.094,0.375 2.296,0.951 3.521,0.799c1.404,-0.174 3.391,-1.259 4.897,-1.844c1.395,-0.541 2.545,-1.418 4.141,-1.664c1.623,-0.249 3.972,-0.017 5.598,0.169c1.451,0.166 2.779,0.617 4.157,0.945c1.58,0.377 3.506,0.964 5.324,1.316c1.818,0.352 3.676,0.742 5.583,0.797c1.927,0.055 4.059,-0.095 5.977,-0.464c1.943,-0.374 3.96,-1.324 5.682,-1.783c1.501,-0.4 3.122,-1.298 4.646,-0.968c1.525,0.329 2.906,2.277 4.501,2.944c1.479,0.619 3.313,0.873 5.071,1.058c2.108,0.222 5.729,0.528 7.576,0.275c1.478,-0.202 2.239,-1.276 3.503,-1.793c1.672,-0.684 4.09,-1.961 6.532,-2.312c2.931,-0.42 3.688,-0.434 8.097,0c2.475,0.244 4.859,1.628 6.532,2.312c1.264,0.517 2.025,1.591 3.503,1.793c1.846,0.253 5.468,-0.053 7.576,-0.275c1.758,-0.185 3.592,-0.439 5.071,-1.058c1.595,-0.667 2.976,-2.615 4.5,-2.944c1.525,-0.33 3.145,0.568 4.647,0.968c1.721,0.459 3.739,1.409 5.682,1.783c1.918,0.369 4.05,0.519 5.977,0.464c1.907,-0.055 3.765,-0.445 5.583,-0.797c1.818,-0.352 3.744,-0.939 5.324,-1.316c1.377,-0.328 2.706,-0.779 4.157,-0.945c1.626,-0.186 3.975,-0.418 5.598,-0.169c1.596,0.246 2.746,1.123 4.14,1.664c1.507,0.585 3.494,1.67 4.897,1.844c1.226,0.152 2.427,-0.424 3.522,-0.799c1.257,-0.431 2.52,-1.367 4.024,-1.787c1.64,-0.458 3.836,-0.758 5.815,-0.959c2.031,-0.207 4.425,-0.681 6.373,-0.28c1.948,0.402 3.212,2.134 5.316,2.688c2.115,0.558 5.426,0.658 7.374,0.66c1.478,0.002 3.083,-0.3 4.312,-0.644c1.161,-0.326 1.981,-1.002 3.06,-1.422c1.199,-0.467 2.684,-1.115 4.132,-1.38c1.449,-0.265 3.037,-0.263 4.558,-0.21c1.597,0.055 3.464,0.17 5.025,0.542c1.561,0.372 2.736,1.325 4.34,1.688c1.643,0.373 3.892,0.521 5.517,0.545c1.427,0.022 2.921,-0.049 4.233,-0.399c1.667,-0.444 3.696,-1.735 5.769,-2.264c2.073,-0.529 4.652,-0.996 6.667,-0.911c1.958,0.083 3.777,0.932 5.424,1.423c1.529,0.456 2.971,1.248 4.457,1.524c1.425,0.266 3.011,0.348 4.459,0.136c1.748,-0.256 3.934,-1.256 6.032,-1.67c2.583,-0.511 6.663,-1.436 9.465,-1.392c2.604,0.041 4.838,1.22 7.348,1.654c2.629,0.455 8.908,1.271 10.859,1.522c1.951,-0.251 8.23,-1.067 10.859,-1.522c2.51,-0.434 4.744,-1.613 7.348,-1.654c2.803,-0.044 6.882,0.881 9.465,1.392c2.098,0.414 4.284,1.414 6.032,1.67c1.449,0.212 3.034,0.13 4.459,-0.136c1.486,-0.276 2.928,-1.068 4.457,-1.524c1.647,-0.491 3.466,-1.34 5.424,-1.423c2.015,-0.085 4.595,0.382 6.667,0.911c2.073,0.529 4.102,1.82 5.769,2.264c1.312,0.35 2.806,0.421 4.233,0.399c1.625,-0.024 3.874,-0.172 5.517,-0.545c1.604,-0.363 2.78,-1.316 4.34,-1.688c1.561,-0.372 3.428,-0.487 5.025,-0.542c1.521,-0.053 3.11,-0.055 4.558,0.21c1.448,0.265 2.933,0.913 4.132,1.38c1.079,0.42 1.899,1.096 3.06,1.422c1.229,0.344 2.834,0.646 4.312,0.644c1.948,-0.002 5.259,-0.102 7.374,-0.66c2.104,-0.554 3.368,-2.286 5.316,-2.688c1.948,-0.401 4.342,0.073 6.373,0.28c1.98,0.201 4.175,0.501 5.815,0.959c1.504,0.42 2.767,1.356 4.025,1.787c1.094,0.375 2.295,0.951 3.521,0.799c1.403,-0.174 3.391,-1.259 4.897,-1.844c1.394,-0.541 2.544,-1.418 4.141,-1.664c1.623,-0.249 3.971,-0.017 5.597,0.169c1.452,0.166 2.78,0.617 4.157,0.945c1.581,0.377 3.506,0.964 5.324,1.316c1.818,0.352 3.676,0.742 5.583,0.797c1.927,0.055 4.06,-0.095 5.977,-0.464c1.943,-0.374 3.961,-1.324 5.682,-1.783c1.502,-0.4 3.122,-1.298 4.647,-0.968c1.524,0.329 2.905,2.277 4.5,2.944c1.479,0.619 3.313,0.873 5.071,1.058c2.108,0.222 5.73,0.528 7.576,0.275c1.478,-0.202 2.239,-1.276 3.503,-1.793c1.673,-0.684 4.032,-2.413 6.533,-2.312c3.914,0.16 7.769,0.576 12.625,2.312c1.312,0.468 2.025,1.591 3.503,1.793c1.847,0.253 5.469,-0.053 7.576,-0.275c1.758,-0.185 3.592,-0.439 5.071,-1.058c1.595,-0.667 2.976,-2.615 4.501,-2.944c1.524,-0.33 3.145,0.568 4.646,0.968c1.722,0.459 3.739,1.409 5.682,1.783c1.918,0.369 4.05,0.519 5.977,0.464c1.908,-0.055 3.765,-0.445 5.583,-0.797c1.818,-0.352 3.744,-0.939 5.324,-1.316c1.378,-0.328 2.706,-0.779 4.157,-0.945c1.626,-0.186 3.975,-0.418 5.598,-0.169c1.596,0.246 2.746,1.123 4.141,1.664c1.506,0.585 3.494,1.67 4.897,1.844c1.225,0.152 2.427,-0.424 3.521,-0.799c1.258,-0.431 2.52,-1.367 4.025,-1.787c1.64,-0.458 3.835,-0.758 5.814,-0.959c2.031,-0.207 4.425,-0.681 6.373,-0.28c1.948,0.402 3.213,2.134 5.316,2.688c2.115,0.558 5.427,0.658 7.374,0.66c1.479,0.002 3.084,-0.3 4.312,-0.644c1.162,-0.326 1.981,-1.002 3.061,-1.422c1.198,-0.467 2.683,-1.115 4.132,-1.38c1.448,-0.265 3.036,-0.263 4.557,-0.21c1.598,0.055 3.464,0.17 5.025,0.542c1.561,0.372 2.737,1.325 4.34,1.688c1.643,0.373 3.893,0.521 5.518,0.545c1.426,0.022 2.921,-0.049 4.232,-0.399c1.667,-0.444 3.696,-1.735 5.769,-2.264c2.073,-0.529 4.652,-0.996 6.667,-0.911c1.958,0.083 3.777,0.932 5.424,1.423c1.529,0.456 2.971,1.248 4.457,1.524c1.426,0.266 3.011,0.348 4.459,0.136c1.749,-0.256 3.934,-1.256 6.032,-1.67c2.583,-0.511 6.663,-1.436 9.465,-1.392c2.605,0.041 4.838,1.22 7.348,1.654c2.944,0.509 10.463,1.472 11.36,1.586c0.898,-0.114 8.417,-1.077 11.36,-1.586c2.51,-0.434 4.744,-1.613 7.348,-1.654c2.802,-0.044 6.882,0.881 9.465,1.392c2.098,0.414 4.284,1.414 6.032,1.67c1.448,0.212 3.034,0.13 4.459,-0.136c1.486,-0.276 2.928,-1.068 4.457,-1.524c1.647,-0.491 3.466,-1.34 5.424,-1.423c2.015,-0.085 4.594,0.382 6.667,0.911c2.073,0.529 4.102,1.82 5.769,2.264c1.312,0.35 2.806,0.421 4.233,0.399c1.625,-0.024 3.874,-0.172 5.517,-0.545c1.604,-0.363 2.779,-1.316 4.34,-1.688c1.561,-0.372 3.428,-0.487 5.025,-0.542c1.521,-0.053 3.109,-0.055 4.558,0.21c1.448,0.265 2.933,0.913 4.132,1.38c1.079,0.42 2.087,-0.025 2.092,1.181c0.116,28.012 0,38.525 0,38.525l-1500,0.814Z" style="fill:#2b789b;"/><path id="Ufer" d="M1500,400l-1500,0c0,0 -0.337,-55.335 0,-71.609c0.198,-9.569 16.449,-0.783 23.985,-1.066c5.51,-0.207 13.2,-0.839 16.53,-0.546c1.379,0.121 2.1,2.024 3.455,2.304c2.291,0.474 6.914,0.582 10.294,0.539c3.34,-0.042 7.158,0.557 9.988,-0.795c2.83,-1.351 4.819,-6.257 6.99,-7.311c1.834,-0.891 4.467,0.378 6.036,0.984c1.334,0.515 1.95,2.516 3.374,2.649c2.257,0.211 6.809,-1.382 10.168,-1.384c3.36,-0.001 6.652,1.03 9.988,1.375c3.334,0.344 7.158,0.389 10.03,0.692c2.416,0.255 4.773,1.206 7.2,1.124c2.564,-0.086 5.939,-1.523 8.182,-1.64c1.783,-0.094 3.891,0.924 5.273,0.935c1.048,0.007 2.239,-0.895 3.019,-0.873c0.647,0.019 1.026,1.135 1.66,1.007c0.74,-0.15 1.823,-1.737 2.783,-1.905c0.96,-0.167 1.941,0.902 2.977,0.899c1.506,-0.005 4.021,-1.046 6.062,-0.926c2.09,0.122 4.249,1.745 6.476,1.662c2.358,-0.087 5.73,-2.331 7.669,-2.187c1.661,0.122 2.685,3.001 3.963,3.046c1.277,0.044 2.345,-2.688 3.7,-2.781c1.355,-0.092 2.778,2.182 4.43,2.224c2.008,0.052 12.196,1.607 13.856,0.62c1.455,-0.866 2.356,-2.455 3.722,-3.456c0.431,-0.315 2.263,1.123 5.14,3.884c0.701,-1.263 1.271,-2.565 1.985,-3.056c0.987,-0.679 2.383,0.394 3.579,0.329c2.496,-0.135 9.077,-1.505 11.393,-1.137c1.374,0.218 1.152,3.006 2.502,3.341c1.601,0.396 5.391,-1.338 7.102,-0.962c1.469,0.322 7.142,-2.17 8.849,-2.6c1.58,-0.397 3.347,-1.729 4.558,-1.761c1.042,-0.029 1.671,1.443 2.707,1.566c1.134,0.134 2.866,-0.527 4.097,-0.763c1.098,-0.209 2.428,-0.764 3.288,-0.65c0.761,0.101 1.121,1.259 1.874,1.334c0.753,0.076 1.887,-1.349 2.644,-0.88c0.756,0.469 0.592,3.228 1.895,3.694c1.495,0.534 5.711,-0.601 7.074,-0.485c0.536,0.046 0.567,1.233 1.103,1.179c1.052,-0.106 3.476,-1.654 5.212,-1.814c1.737,-0.16 3.784,0.672 5.204,0.854c1.099,0.141 2.23,0.02 3.316,0.239c1.254,0.254 2.747,1.373 4.211,1.282c1.561,-0.096 3.879,-2.016 5.156,-1.86c1.244,0.153 1.269,2.625 2.51,2.8c1.523,0.214 4.365,-1.436 6.631,-1.514c2.357,-0.081 5.359,0.801 7.51,1.028c1.793,0.188 3.99,0.58 5.399,0.328c1.168,-0.209 2.065,-1.781 3.051,-1.838c0.985,-0.056 1.785,1.499 2.863,1.502c1.103,0.002 2.724,-0.722 3.753,-1.488c1.028,-0.766 1.419,-2.982 2.42,-3.11c1.001,-0.127 2.451,2.218 3.585,2.346c1.133,0.127 2.128,-1.41 3.218,-1.581c1.09,-0.17 2.206,0.696 3.32,0.559c1.978,-0.241 6.714,-2.081 8.542,-2.009c1.148,0.045 1.305,2.218 2.431,2.441c1.646,0.326 5.382,-0.159 7.443,-0.485c1.691,-0.268 3.227,-1.224 4.922,-1.471c1.796,-0.262 4.118,-0.153 5.855,-0.101c1.528,0.045 3.043,0.3 4.567,0.41c1.738,0.125 3.908,0.491 5.858,0.342c2.055,-0.157 4.304,-1.657 6.471,-1.283c0.58,0.101 1.26,0.282 2.006,0.519c0.527,-0.996 1.006,-1.908 1.577,-2.301c0.987,-0.679 2.383,0.394 3.58,0.329c2.495,-0.135 9.076,-1.505 11.392,-1.137c1.374,0.218 1.152,3.006 2.503,3.341c1.6,0.396 5.39,-1.338 7.101,-0.962c1.469,0.322 1.713,2.823 3.164,3.216c1.475,0.401 3.979,-0.386 5.686,-0.816c1.579,-0.397 3.347,-1.729 4.557,-1.761c1.042,-0.029 1.672,1.443 2.707,1.566c1.134,0.134 2.867,-0.527 4.098,-0.763c1.097,-0.209 2.428,-0.764 3.288,-0.65c0.76,0.101 1.121,1.259 1.874,1.334c0.753,0.076 1.887,-1.349 2.643,-0.88c0.757,0.469 0.592,3.228 1.895,3.694c1.495,0.534 5.712,-0.601 7.074,-0.485c0.537,0.046 0.568,1.233 1.103,1.179c1.052,-0.106 3.477,-1.654 5.213,-1.814c1.736,-0.16 3.784,0.672 5.204,0.854c1.099,0.141 2.229,0.02 3.315,0.239c1.255,0.254 2.578,-1.013 4.043,-1.104c1.561,-0.096 4.047,-2.63 5.325,-2.474c1.244,0.153 1.268,2.625 2.509,2.8c1.523,0.214 4.365,-1.436 6.631,-1.514c2.357,-0.081 5.359,0.801 7.511,1.028c1.793,0.188 3.99,0.58 5.398,0.328c1.169,-0.209 2.065,-1.781 3.051,-1.838c0.986,-0.056 1.786,1.499 2.863,1.502c1.103,0.002 2.724,-0.722 3.753,-1.488c1.029,-0.766 1.42,-2.982 2.421,-3.11c1,-0.127 2.45,2.218 3.584,2.346c1.134,0.127 2.128,1.59 3.218,1.419c1.09,-0.17 2.207,0.696 3.321,0.559c1.977,-0.241 6.713,-2.081 8.542,-2.009c1.147,0.045 1.304,2.218 2.43,2.441c1.646,0.326 5.382,-0.159 7.443,-0.485c1.691,-0.268 3.228,-1.224 4.922,-1.471c1.797,-0.262 4.118,-0.153 5.855,-0.101c1.528,0.045 3.043,0.3 4.568,0.41c1.737,0.125 3.907,0.491 5.858,0.342c2.054,-0.157 4.303,-1.657 6.47,-1.283c3.227,0.558 9.557,3.632 12.888,4.626c2.307,0.689 5.108,1.612 7.098,1.342c1.875,-0.254 3.67,-2.59 4.843,-2.96c0.738,-0.233 1.665,0.178 2.201,0.735c0.35,0.364 0.505,1.141 0.742,1.874c0.325,-0.146 0.632,-0.238 0.917,-0.242c1.176,-0.018 1.712,1.898 2.752,2.305l0.677,0.053c1.641,-0.241 4.127,-2.401 6.342,-2.356c2.81,0.056 6.718,2.438 10.237,2.718c3.655,0.291 9.332,-0.284 11.689,-0.974c1.282,-0.376 1.493,-2.857 2.452,-3.17c0.959,-0.313 2.131,1.459 3.299,1.29c2.379,-0.343 7.547,-2.798 10.97,-3.348c3.15,-0.507 6.406,0.457 9.569,0.045c4.37,-0.569 12.129,-0.528 16.649,-1.46c3.488,-0.719 8.105,-2.034 10.47,-2.129c1.344,-0.054 2.407,1.275 3.722,1.56c1.354,0.295 3.331,0.436 4.405,0.206c0.843,-0.18 1.192,-1.715 2.043,-1.583c0.931,0.144 2.226,1.874 3.541,2.45c1.876,0.822 5.135,2.164 7.715,2.484c2.575,0.319 5.244,-3.184 7.765,-2.565c3.073,0.754 7.909,4.386 10.677,5.091c1.937,0.493 4.721,-3.975 5.932,-3.863c0.675,0.063 0.793,1.128 1.334,1.537c0.557,0.422 6.208,-3.769 7.593,-3.216c0.218,0.087 6.763,0.65 8.744,0.261c2.157,-0.424 4.44,1.024 6.498,1.134c1.953,0.104 4.114,-0.311 5.849,-0.477c1.521,-0.144 3.03,-0.434 4.557,-0.514c1.735,-0.091 4.053,-0.254 5.855,-0.033c1.7,0.209 3.258,1.129 4.955,1.358c2.068,0.279 5.814,0.679 7.452,0.315c1.121,-0.249 1.228,-2.425 2.374,-2.496c1.827,-0.114 6.603,1.617 8.586,1.814c1.117,0.11 2.213,-0.78 3.307,-0.635c1.093,0.145 2.122,1.66 3.253,1.506c1.131,-0.153 2.526,-2.531 3.53,-2.427c1.003,0.105 1.445,2.312 2.491,3.054c1.046,0.742 2.683,0.429 3.785,0.401c1.078,-0.027 1.842,-1.599 2.829,-1.566c0.987,0.034 1.919,1.586 3.092,1.768c1.414,0.219 3.601,-0.223 5.39,-0.452c2.145,-0.276 5.126,-1.226 7.484,-1.199c2.267,0.026 5.147,2.61 6.665,2.361c1.236,-0.203 1.204,-2.675 2.444,-2.856c1.274,-0.186 3.635,1.681 5.198,1.742c1.466,0.057 2.932,4.904 4.181,4.622c1.08,-0.244 2.213,-0.149 3.309,-0.315c1.415,-0.215 3.443,-1.094 5.183,-0.974c1.739,0.121 4.198,1.613 5.253,1.695c0.536,0.042 0.54,-1.146 1.075,-1.203c1.36,-0.147 5.601,0.891 7.084,0.322c1.291,-0.496 1.064,-3.25 1.809,-3.736c0.746,-0.486 1.912,0.912 2.663,0.82c0.751,-0.093 1.086,-1.259 1.843,-1.377c0.858,-0.134 2.2,0.39 3.302,0.575c1.236,0.207 2.984,0.828 4.114,0.668c1.033,-0.146 1.628,-1.632 2.671,-1.627c1.211,0.004 3.008,1.295 4.596,1.657c0.355,0.08 0.744,0.175 1.15,0.272l0.026,-0.007c1.54,-0.378 3.136,0.036 4.732,0.342c1.259,-0.591 1.495,-2.871 2.884,-3.21c1.702,-0.415 5.531,1.233 7.122,0.8c1.343,-0.366 1.057,-3.148 2.426,-3.398c2.307,-0.42 8.917,0.799 11.415,0.877c1.198,0.037 2.569,-1.067 3.571,-0.411c0.33,0.216 0.634,0.6 0.936,1.073c2.129,0.464 4.543,1.085 6.575,1.504c4.519,0.932 12.279,2.891 16.648,3.46c3.163,0.412 6.42,-0.552 9.569,-0.045c3.423,0.55 8.592,-1.995 10.97,-1.652c1.169,0.169 2.341,-1.603 3.3,-1.29c0.958,0.313 1.17,2.794 2.452,3.17c2.356,0.69 8.034,1.265 11.688,0.974c3.52,-0.28 7.427,-2.662 10.238,-2.718c2.214,-0.045 4.714,2.357 6.342,2.356c1.387,0 2.253,-2.376 3.428,-2.358c0.285,0.004 0.593,0.096 0.917,0.242c0.238,-0.733 0.393,-1.51 0.743,-1.874c0.536,-0.557 1.463,-0.968 2.2,-0.735c1.174,0.37 2.968,2.706 4.843,2.96c1.991,0.27 16.76,-0.41 19.986,-0.968c2.167,-0.374 4.416,1.126 6.471,1.283c1.95,0.149 4.12,-0.217 5.858,-0.342c1.524,-0.11 3.039,-0.365 4.567,-0.41c1.738,-0.052 4.059,-0.161 5.855,0.101c1.695,0.247 3.231,1.203 4.923,1.471c2.06,0.326 5.797,0.811 7.442,0.485c1.127,-0.223 1.283,-2.396 2.431,-2.441c1.829,-0.072 6.565,1.768 8.542,2.009c1.114,0.137 2.231,-0.729 3.32,-0.559c1.09,0.171 2.085,1.708 3.219,1.581c1.133,-0.128 2.583,-2.473 3.584,-2.346c1.001,0.128 1.392,2.344 2.421,3.11c1.028,0.766 2.649,1.49 3.752,1.488c1.078,-0.003 1.878,-1.558 2.864,-1.502c0.985,0.057 1.882,1.629 3.051,1.838c1.408,0.252 3.605,-0.14 5.398,-0.328c2.151,-0.227 5.153,-1.109 7.51,-1.028c2.266,0.078 5.108,1.728 6.632,1.514c1.241,-0.175 1.265,-2.647 2.509,-2.8c1.277,-0.156 3.595,1.764 5.156,1.86c1.465,0.091 2.957,-1.028 4.211,-1.282c1.087,-0.219 2.217,-0.098 3.316,-0.239c1.42,-0.182 3.468,-1.014 5.204,-0.854c1.736,0.16 4.16,1.708 5.213,1.814c0.535,0.054 0.566,-1.133 1.102,-1.179c1.363,-0.116 5.58,1.019 7.075,0.485c1.302,-0.466 1.138,-3.225 1.894,-3.694c0.757,-0.469 1.891,0.956 2.644,0.88c0.753,-0.075 1.114,-1.233 1.874,-1.334c0.86,-0.114 2.191,0.441 3.288,0.65c1.231,0.236 2.964,0.897 4.098,0.763c1.035,-0.123 1.664,-1.595 2.706,-1.566c1.211,0.032 2.978,1.364 4.558,1.761c1.707,0.43 4.211,1.217 5.686,0.816c1.451,-0.393 1.694,-0.894 3.163,-1.216c1.711,-0.376 5.501,1.358 7.102,0.962c1.351,-0.335 1.128,-3.123 2.503,-3.341c2.315,-0.368 8.897,1.002 11.392,1.137c1.196,0.065 2.592,-1.008 3.579,-0.329c0.571,0.393 1.05,1.305 1.578,2.301c0.745,-0.237 1.426,-0.418 2.006,-0.519c2.166,-0.374 4.416,-0.874 6.47,-0.717c1.951,0.149 4.121,-0.217 5.858,-0.342c1.525,-0.11 3.04,-0.365 4.568,-0.41c1.737,-0.052 4.058,-0.161 5.854,0.101c1.695,0.247 3.231,1.203 4.923,1.471c2.061,0.326 5.797,0.811 7.443,0.485c1.126,-0.223 1.283,-2.396 2.43,-2.441c1.829,-0.072 6.565,1.768 8.542,2.009c1.114,0.137 2.231,-0.729 3.321,-0.559c1.09,0.171 2.084,1.708 3.218,1.581c1.134,-0.128 2.584,-2.473 3.584,-2.346c1.001,0.128 5.071,1.6 6.173,1.598c1.078,-0.003 1.878,-1.558 2.864,-1.502c0.986,0.057 1.882,1.629 3.051,1.838c1.408,0.252 3.605,-0.14 5.398,-0.328c2.152,-0.227 5.154,-1.109 7.51,-1.028c2.267,0.078 5.109,1.728 6.632,1.514c1.241,-0.175 1.265,-2.647 2.509,-2.8c1.278,-0.156 3.595,-1.236 5.156,-1.14c1.465,0.091 2.957,-1.028 4.212,-1.282c1.086,-0.219 2.216,2.902 3.315,2.761c1.42,-0.182 3.468,-1.014 5.204,-0.854c1.736,0.16 4.161,1.708 5.213,1.814c0.535,0.054 0.566,-1.133 1.102,-1.179c1.363,-0.116 5.58,1.019 7.075,0.485c1.303,-0.466 1.138,-3.225 1.895,-3.694c0.756,-0.469 1.89,0.956 2.643,0.88c0.753,-0.075 1.114,1.767 1.874,1.666c0.86,-0.114 2.191,0.441 3.288,0.65c1.231,0.236 2.964,0.897 4.098,0.763c1.035,-0.123 1.665,-1.595 2.707,-1.566c1.21,0.032 2.978,1.364 4.557,1.761c1.707,0.43 4.211,1.217 5.686,0.816c1.451,-0.393 1.695,-2.894 3.164,-3.216c1.711,-0.376 5.501,3.358 7.101,2.962c1.351,-0.335 1.129,-3.123 2.503,-3.341c2.316,-0.368 8.897,1.002 11.392,1.137c1.197,0.065 2.592,-1.008 3.58,-0.329c0.714,0.491 1.283,1.793 1.984,3.056c2.878,-2.761 4.71,-4.199 5.141,-3.884c1.365,1.001 2.267,2.59 3.722,3.456c1.66,0.987 4.106,-0.208 6.238,0.466c2.309,0.73 5.61,1.966 7.618,1.914c1.651,-0.042 3.075,-2.316 4.43,-2.224c1.355,0.093 2.423,2.825 3.7,2.781c1.277,-0.045 2.301,-2.924 3.963,-3.046c1.938,-0.144 5.311,2.1 7.668,2.187c2.228,0.083 4.387,-1.54 6.477,-1.662c2.04,-0.12 4.555,0.921 6.062,0.926c1.036,0.003 2.016,-1.066 2.976,-0.899c0.96,0.168 2.043,1.755 2.784,1.905c0.634,0.128 1.013,-0.988 1.66,-1.007c0.779,-0.022 1.971,0.88 3.018,0.873c1.382,-0.011 3.491,-1.029 5.274,-0.935c2.242,0.117 5.617,1.554 8.181,1.64c2.428,0.082 4.785,-0.869 7.201,-1.124c2.871,-0.303 6.696,-0.348 10.029,-0.692c3.336,-0.345 6.629,-1.376 9.988,-1.375c3.36,0.002 7.912,1.595 10.169,1.384c1.424,-0.133 2.04,-2.134 3.374,-2.649c1.568,-0.606 3.757,-3.306 3.736,-1.267c-0.281,27.252 -0.051,74.767 -0.051,74.767Z" style="fill:#295e25;"/></g><g id="Layer23"><path d="M346.307,297.525c-6.912,-15.259 -26.816,-26.294 -50.266,-26.294c-4.703,-0 -9.264,0.443 -13.603,1.276c8.532,-4.257 18.879,-6.751 30.028,-6.751c27.12,-0 49.498,14.76 52.519,33.739l-18.678,-1.97Z" style="fill:#85281c;"/><path d="M259.6,303.883c0.207,13.107 0.192,25.115 0.192,25.115l-14.451,3.842l-18.093,-3.874l0,-75.961l18.351,-8.507l133.377,27.998l-0.097,26.104l-13.532,1.232c0,-0 -0.326,-0.103 -0.338,-0.18c-2.922,-19.055 -25.349,-33.896 -52.543,-33.896c-29.178,-0 -53.2,17.087 -52.866,38.127Z" style="fill:#b9502b;"/><path d="M245.599,244.498l-0.24,87.342l-18.111,-2.874l0,-75.961l18.351,-8.507Z" style="fill:#b25d3e;"/><path d="M368.206,292.192l0.041,-16.94c0.053,-2.176 3.031,-2.306 3.02,-0.12l0.126,22.41c-0,-0 -0.786,-0.25 -1.667,-0.454c-0.374,-1.667 -0.884,-3.301 -1.52,-4.896Zm-4.602,-8.174l0.024,-9.78c0.053,-2.175 3.031,-2.306 3.021,-0.12l0.068,14.842c-0.893,-1.703 -1.935,-3.353 -3.113,-4.942Zm-103.812,2.226l0,-28.343c0.087,-6.178 10.513,-6.807 10.558,-0l0,17.069c-4.31,3.298 -7.893,7.102 -10.558,11.274Zm98.946,-7.72l0.012,-6.016c0.053,-2.176 3.031,-2.306 3.021,-0.12l0.043,9.384c-0.957,-1.119 -1.984,-2.203 -3.076,-3.248Zm-4.894,-4.107l0.006,-2.903c0.053,-2.175 3.031,-2.306 3.02,-0.12l0.025,5.456c-0.973,-0.839 -1.99,-1.651 -3.051,-2.433Zm-79.351,-2.32l-0,-14.196c-0.027,-3.626 7.316,-3.41 7.447,0.199l0,10.02c-2.629,1.183 -5.119,2.514 -7.447,3.977Zm11.59,-5.674l0,-7.454c-0.003,-2.159 5.601,-1.92 5.997,1.259l-0,4.273c-2.057,0.56 -4.059,1.203 -5.997,1.922Zm10.139,-2.923l0,-2.402c-0.109,-2.881 4.455,-2.568 4.667,0.979l0,0.589c-1.581,0.232 -3.138,0.511 -4.667,0.834Z" style="fill:#7f2214;"/></g></g><g id="Schwebebahn"><rect id="car" x="618.26" y="275.156" width="81.778" height="11" style="fill:#e91600;"/><path d="M703.538,275.156c0,-1.933 -1.567,-3.5 -3.5,-3.5l-81.778,0c-1.933,0 -3.5,1.567 -3.5,3.5l0,11c0,1.933 1.567,3.5 3.5,3.5l81.778,0c1.933,0 3.5,-1.567 3.5,-3.5l0,-11Zm-3.5,0l-81.778,0l0,11l81.778,0l0,-11Z" style="fill:#381e24;"/><path id="track" d="M-69.962,270.215l0,5.353l1600,0.333l0,-4.798l-1600,-0.888Z" style="fill:#f6a590;"/></g><g id="stadthalle"><path d="M757.353,250.252l-8.24,-0l0,54.8l8.24,-0l-0,1.37l17.411,-0l0,-60.585l-17.411,0l-0,4.415Zm121.472,-7.232l-19.573,0l0,21.658l17.04,0l0,40.572l2.533,0l0,-62.23Zm-21.899,4.735l-16.195,-0l16.195,7.414l0,-7.414Z" style="fill:#f6201d;"/><path d="M774.764,257.823l0,48.599l101.528,-0l0,-41.744l-12.248,0l-0,-6.855l-89.28,-0Zm-22.294,48.599l4.883,-0l-0,-48.599l-4.883,-0l-0,48.599Z" style="fill:#f5633a;"/><path d="M864.044,264.678l-0,-4.395l11.813,4.395l-11.813,0Zm-22.811,-17.051l1.437,-0.337c0,-0 -0.197,-0.78 -0.227,-1.962c0.006,-0.598 0.054,-1.166 0.16,-1.518c0.447,-1.472 0.964,-2.56 1.572,-3.785c0.629,-1.268 1.561,-2.122 2.601,-2.922c1.273,-0.979 0.504,-2.437 0.572,-3.288c0.105,-1.315 0.942,-3.025 1.443,-3.104c0.501,0.079 1.338,1.789 1.443,3.104c0.068,0.851 -0.701,2.309 0.572,3.288c1.04,0.8 1.972,1.654 2.601,2.922c0.608,1.225 1.125,2.313 1.572,3.785c0.106,0.352 0.154,0.92 0.16,1.518l-0.048,0.929l-0.179,1.033l2.049,0.465l-15.443,-0l22.526,10.068l-64.908,-0l-0,6.855l-24.407,0l15.287,-6.855l-15.287,-0l-0,-2.66l21.411,0l31.423,-13.646l13.67,6.11Zm-81.367,-7.48c0.356,-0.919 0.751,-1.737 1.19,-2.62c0.676,-1.363 1.677,-2.281 2.795,-3.141c1.369,-1.053 0.543,-2.62 0.616,-3.536c0.112,-1.413 1.012,-3.251 1.551,-3.337c0.538,0.086 1.439,1.924 1.551,3.337c0.073,0.916 -0.754,2.483 0.615,3.536c1.119,0.86 2.12,1.778 2.796,3.141c0.654,1.318 1.21,2.487 1.69,4.07c0.115,0.378 0.167,0.989 0.173,1.631l-0.052,0.999l-0.193,1.111l2.203,0.499l-17.448,0l-0,4.415l-8.281,-0l1.981,-0.465c-0,0 -0.198,-0.78 -0.228,-1.962c0.006,-0.597 0.054,-1.166 0.161,-1.517c0.446,-1.472 0.963,-2.56 1.572,-3.786c0.628,-1.267 1.56,-2.122 2.6,-2.922c1.274,-0.979 0.505,-2.437 0.572,-3.288c0.105,-1.314 0.942,-3.024 1.443,-3.104c0.501,0.08 1.339,1.79 1.443,3.104c0.068,0.851 -0.701,2.309 0.572,3.288c0.232,0.179 0.459,0.36 0.678,0.547Zm109.127,-17.725c0.606,0.096 1.618,2.163 1.744,3.751c0.082,1.029 -0.847,2.791 0.692,3.974c1.257,0.967 2.383,1.999 3.143,3.531c0.735,1.482 1.36,2.797 1.899,4.575c0.129,0.425 0.187,1.112 0.194,1.834l-0.058,1.123l-0.217,1.249l2.477,0.561l-19.664,0l2.393,-0.561c0,-0 -0.239,-0.944 -0.275,-2.372c0.007,-0.722 0.065,-1.409 0.194,-1.834c0.54,-1.778 1.165,-3.093 1.9,-4.575c0.76,-1.532 1.886,-2.564 3.143,-3.531c1.539,-1.183 0.61,-2.945 0.691,-3.974c0.127,-1.588 1.139,-3.655 1.744,-3.751Z" style="fill:#4d1d34;"/><path id="window" d="M834.614,283.238c-0.001,-2.33 -4.066,-2.375 -4.099,0l0,6.316l4.099,0l0,-6.316Zm-10.988,0c-0.001,-2.33 -4.067,-2.375 -4.1,0l0,6.316l4.1,0l-0,-6.316Zm-11.488,0c-0.001,-2.33 -4.067,-2.375 -4.1,0l0,6.316l4.1,0l-0,-6.316Zm44.953,0c-0.001,-2.33 -4.067,-2.375 -4.099,0l-0,6.316l4.099,0l0,-6.316Zm-10.988,0c-0.001,-2.33 -4.067,-2.375 -4.1,0l0,6.316l4.1,0l-0,-6.316Zm-46.996,-10.12c-0,-2.014 -3.516,-2.053 -3.544,0l0,5.461l3.544,-0l0,-5.461Zm-9.5,0c-0.001,-2.014 -3.516,-2.053 -3.544,0l0,5.461l3.544,-0l0,-5.461Zm-9.932,0c-0.001,-2.014 -3.516,-2.053 -3.544,0l0,5.461l3.544,-0l0,-5.461Zm90.906,0c-0.001,-2.014 -3.516,-2.053 -3.544,0l-0,5.461l3.544,-0l0,-5.461Zm-35.967,-1.867c-0.001,-2.33 -4.066,-2.375 -4.099,-0l0,6.316l4.099,-0l0,-6.316Zm-10.988,-0c-0.001,-2.33 -4.067,-2.375 -4.1,-0l0,6.316l4.1,-0l-0,-6.316Zm-11.488,-0c-0.001,-2.33 -4.067,-2.375 -4.1,-0l0,6.316l4.1,-0l-0,-6.316Zm44.953,-0c-0.001,-2.33 -4.067,-2.375 -4.099,-0l-0,6.316l4.099,-0l0,-6.316Zm-10.988,-0c-0.001,-2.33 -4.067,-2.375 -4.1,-0l0,6.316l4.1,-0l-0,-6.316Zm-11.489,-9.491c-0.001,-2.329 -4.066,-2.375 -4.099,0l0,3.819l4.099,0l0,-3.819Zm-10.988,0c-0.001,-2.329 -4.067,-2.375 -4.1,0l0,3.819l4.1,0l-0,-3.819Zm-11.488,0c-0.001,-2.329 -4.067,-2.375 -4.1,0l0,3.819l4.1,0l-0,-3.819Zm44.953,0c-0.001,-2.329 -4.067,-2.375 -4.099,0l-0,3.819l4.099,0l0,-3.819Zm-10.988,0c-0.001,-2.329 -4.067,-2.375 -4.1,0l0,3.819l4.1,0l-0,-3.819Zm-82.686,-11.805l-2.353,0l-0,5.734l2.353,0l-0,-5.734Zm3.996,0l-2.696,0l0,5.734l2.696,0l-0,-5.734Zm1.3,0l0,5.734l2.34,0l0,-5.734l-2.34,0Zm97.356,-2.306l-2.645,0l-0,6.446l2.645,-0l0,-6.446Zm4.492,0l-3.03,0l0,6.446l3.03,-0l-0,-6.446Zm1.462,0l0,6.446l2.63,-0l0,-6.446l-2.63,0Z" style="fill:#4d1d34;"/></g><g id="oligsmühle"><path d="M600.239,250.655c7.546,-2.119 13.112,-3.472 13.112,-3.472l0.01,0.043c7.818,-2.045 16.269,-3.162 25.085,-3.162c1.641,0 3.269,0.039 4.883,0.115l-0,-0.036c7.352,0.288 14.414,1.354 21.025,3.083l0.01,-0.043c-0,0 37.902,9.215 49.962,17.202c19.854,13.149 78.117,64.679 78.117,64.679l-9.651,-0.9c0,0 -53.538,-47.167 -72.381,-59.355c-0.108,-0.07 -0.218,-0.14 -0.33,-0.21l-142.447,0c-0.112,0.07 -0.222,0.14 -0.33,0.21c-18.843,12.188 -72.381,59.355 -72.381,59.355l-9.652,0.9c0,0 58.264,-51.53 78.117,-64.679c7.353,-4.87 24.313,-10.196 36.431,-13.611l-0.001,-0.005l0.033,-0.004l0.182,-0.052l0.004,-0.001l0.013,-0.081l0.189,0.024Zm-13.521,9.794l0.043,-0.015l-0.949,5.979l-14.138,0l0.016,-0.007c1.098,-0.529 2.211,-1.029 3.331,-1.51c1.129,-0.485 2.265,-0.95 3.407,-1.401c2.739,-1.081 5.508,-2.085 8.29,-3.046Zm1.403,-0.481l1.022,6.445l-2.222,0l1.012,-6.381c0.062,-0.021 0.125,-0.042 0.188,-0.064Zm11.008,-3.53l-1.582,9.975l-7.295,0l-1.079,-6.8c3.401,-1.14 6.802,-2.214 9.956,-3.175Zm1.165,-0.353l0.351,-0.106l1.654,10.434l-3.643,0l1.638,-10.328Zm11.384,-3.282l-2.159,13.61l-6.111,0l-1.705,-10.751c4.141,-1.235 7.683,-2.229 9.975,-2.859Zm1.325,-0.362l-0.167,0.045l-2.209,13.927l4.592,0l-2.216,-13.972Zm11.275,-2.607l-2.629,16.579l-5.322,0l-2.28,-14.321c0.291,-0.102 6.844,-1.732 10.231,-2.258Zm-1.521,16.579l5.223,0l-2.612,-16.465l-2.611,16.465Zm13.899,-17.646l-2.799,17.646l-4.769,0l-2.678,-16.884c3.335,-0.437 6.757,-0.696 10.246,-0.762Zm1.205,-0.015l-0.094,0.001l-2.801,17.66l5.696,0l-2.801,-17.661Zm1.108,-0c2.843,0.016 8.388,0.347 8.388,0.347c0.636,0.056 1.269,0.117 1.899,0.185l-2.716,17.129l-4.769,0l-2.802,-17.661Zm8.679,17.661l5.223,0l-2.612,-16.465l-2.611,16.465Zm3.653,-16.885c3.562,0.467 7.024,1.136 10.362,1.991l-2.362,14.894l-5.322,0l-2.678,-16.885Zm9.108,16.885l4.592,0l-2.296,-14.474l-2.296,14.474Zm3.447,-14.203c1.414,0.379 5.23,1.415 10.163,2.863l-1.799,11.34l-6.111,0l-2.253,-14.203Zm11.222,3.175l-1.749,11.028l3.643,0l-1.742,-10.983l-0.152,-0.045Zm1.316,0.391c3.15,0.943 6.632,2.02 10.165,3.18l-1.183,7.457l-7.295,0l-1.687,-10.637Zm10.091,10.637l2.222,0l-1.111,-7.007l-1.111,7.007Zm2.263,-6.73l0.009,0.003c1.82,0.612 3.634,1.24 5.441,1.892c1.356,0.49 2.708,0.992 4.053,1.512c1.347,0.522 2.688,1.06 4.019,1.625c1.264,0.536 2.518,1.095 3.755,1.691l0.015,0.007l-16.224,0l-1.068,-6.73Z" style="fill:#4c4760;"/></g><g id="Layer231" serif:id="Layer23"><path d="M287.189,253.229l0,17.139c-16.546,6.464 -27.819,19.056 -27.589,33.515c0.207,13.107 0.192,25.115 0.192,25.115l-14.451,3.842l-18.093,-3.874l0,-75.961l18.351,-8.507l41.59,8.731Z" style="fill:#b9502b;"/><path d="M245.599,244.498l-0.24,87.342l-18.111,-2.874l0,-75.961l18.351,-8.507Z" style="fill:#b25d3e;"/><path d="M259.792,286.244l0,-28.343c0.087,-6.178 10.513,-6.807 10.558,-0l0,17.069c-4.31,3.298 -7.893,7.102 -10.558,11.274Zm14.701,-14.147l-0,-14.196c-0.027,-3.626 7.316,-3.41 7.447,0.199l0,10.02c-2.629,1.183 -5.119,2.514 -7.447,3.977Zm12.696,-14.374l0,8.3c-0.371,0.131 -0.74,0.264 -1.106,0.4l0,-7.454c-0.001,-0.613 0.45,-1.032 1.106,-1.246Z" style="fill:#7f2214;"/></g><g id="Layer25"><path d="M1318.65,209.339l-3.764,-0.152l-13.648,121.413l7.134,1.849l10.278,-123.11Z" style="fill:#5b5b5e;"/><path d="M1310.06,264.193l-76.762,-17.527l-1.306,8.286l76.762,17.527l1.306,-8.286Z" style="fill:#5b5b5e;"/></g></g><g id="front"><g id="hill7" serif:id="hill"><g id="Layer21"><path d="M1352.73,240.261l-8.854,0.862l-11.72,17.218l-1.499,33.402l66.709,3.698l23.728,-4.828l-0.209,-36.424l-13.319,-19.269l-47.777,4.653l-0,-9.661l-2.936,-27.685l-4.123,27.685l0,10.349Z" style="fill:#802014;"/><path d="M1420.19,254.518l-12.856,-18.516l-10.984,17.992l-63.614,4.407l-1.384,33.34l66.01,3.7l23.052,-4.662l-0.224,-36.261Z" style="fill:#e72813;"/><path d="M1411.98,262.981c-0.043,-7.591 -6.823,-7.559 -6.809,-0c0.011,5.379 0.02,23.926 0.02,23.926l6.795,-1.347c0,0 0.023,-17.295 -0.006,-22.579Z" style="fill:#7f1f14;"/><path d="M1385.85,287.057l6.234,0.343c0.106,-5.658 0.304,-18.703 -0.052,-21.329c-0.922,-6.809 -5.818,-6.409 -6.159,0c-0.138,2.593 -0.065,15.165 -0.023,20.986Zm-10.442,-0.575l6.24,0.344c0.106,-5.492 0.295,-17.664 -0.056,-20.258c-0.922,-6.808 -5.818,-6.409 -6.159,0c-0.136,2.56 -0.068,14.28 -0.025,19.914Zm-10.427,-0.573l6.192,0.34c0.084,-3.281 0.374,-15.763 -0.021,-18.686c-0.922,-6.809 -5.818,-6.409 -6.159,-0c-0.152,2.852 -0.049,14.624 -0.012,18.346Zm-10.451,-0.576l6.229,0.343c0.104,-4.337 0.313,-14.95 -0.048,-17.616c-0.922,-6.809 -5.818,-6.409 -6.159,-0c-0.139,2.617 -0.064,12.748 -0.022,17.273Zm-10.454,-0.575l6.278,0.346c0.106,-4.923 0.24,-13.665 -0.083,-16.05c-0.922,-6.809 -5.818,-6.409 -6.159,0c-0.125,2.347 -0.077,10.733 -0.036,15.704Zm-10.449,-0.575l6.309,0.347c0.101,-5.029 0.195,-12.759 -0.105,-14.979c-0.922,-6.809 -5.818,-6.409 -6.159,0c-0.116,2.185 -0.083,9.608 -0.045,14.632Z" style="fill:#7f1f14;"/><path d="M1396.74,257.637c-0.07,-5.352 -4.749,0.159 -4.655,8.933c0.109,10.141 0,29.091 0,29.091l4.72,-0c0,-0 0.043,-29.858 -0.065,-38.024Zm-10.501,0.805c-0.071,-5.352 -4.749,0.16 -4.655,8.934c0.108,10.141 -0,27.598 -0,27.598l4.719,0c0,0 0.044,-28.365 -0.064,-36.532Zm-10.442,0.743c-0.07,-5.352 -4.749,0.159 -4.655,8.934c0.109,10.141 0,26.107 0,26.107l4.72,-0c0,-0 0.044,-26.874 -0.065,-35.041Zm-10.497,0.704c-0.071,-5.353 -4.749,0.159 -4.655,8.933c0.108,10.141 -0,24.897 -0,24.897l4.719,-0c0,-0 0.044,-25.664 -0.064,-33.83Zm-10.533,0.759c-0.071,-5.352 -4.749,0.159 -4.655,8.933c0.109,10.141 -0.365,23.492 -0.365,23.492l4.971,-0c0,-0 0.157,-24.259 0.049,-32.425Zm-10.451,0.753c-0.07,-5.352 -4.749,0.159 -4.655,8.934c0.109,10.141 0,22.13 0,22.13l4.72,-0c0,-0 0.044,-22.897 -0.065,-31.064Zm-10.568,0.569c-0.07,-5.352 -4.749,0.16 -4.655,8.934c0.109,10.141 0,21.135 0,21.135l4.72,-0.1c0,0 0.044,-21.802 -0.065,-29.969Z" style="fill:#f37f6b;"/></g><path id="hill8" serif:id="hill" d="M1485.71,236.182c0.495,-0.513 0.991,-0.908 1.473,-1.049c1.627,-0.478 3.306,1.304 4.957,1.967c1.599,0.642 3.848,2.858 5.876,2.586c0.636,-0.085 1.982,-1.067 1.982,-1.067l0,161.381l-317.502,0c0,0 1.697,-3.503 2.525,-5.202c7.195,-14.776 12.239,-24.673 16.206,-30.633c3.665,-5.503 12.306,-4.943 17.11,-7.945c4.307,-2.691 8.695,-7.876 11.718,-10.067c1.95,-1.414 4.912,-1.754 6.419,-3.079c1.338,-1.177 1.107,-3.992 2.622,-4.871c3.4,-1.973 12.061,-4.659 17.78,-6.966c5.533,-2.233 12.602,-4.684 16.537,-6.88c2.702,-1.509 4.701,-5.402 7.07,-6.297c2.27,-0.857 4.811,1.52 7.149,0.926c3.557,-0.904 10.582,-4.288 14.195,-6.349c2.742,-1.565 4.998,-4.756 7.486,-6.017c2.293,-1.163 5.969,-0.24 7.44,-1.55c1.471,-1.311 8.586,-1.88 10.289,-2.954c0.672,-0.423 1.403,-0.806 2.165,-1.163c0.662,-0.592 1.403,-1.147 2.245,-1.645c3.408,-2.017 4.978,-1.619 7.153,-3.647c0.752,-0.701 4.334,-4.564 5.69,-4.999c1.294,-0.414 3.237,-0.573 4.344,-0.549c0.792,0.018 1.497,0.608 2.295,0.698c0.988,0.111 2.701,-0.086 3.633,-0.031c0.655,0.039 1.341,0.454 1.956,0.363c0.762,-0.112 1.554,-0.986 2.615,-1.036c1.074,-0.05 2.798,0.786 3.833,0.733c0.994,-0.051 1.359,-1.218 2.375,-1.052c1.016,0.167 2.558,1.612 3.72,2.049c1.011,0.381 2.179,0.591 3.254,0.576c1.111,-0.015 2.281,-0.435 3.413,-0.666c1.368,-0.28 3.112,-0.829 4.795,-1.012c1.769,-0.192 4.009,-0.439 5.819,-0.14c1.638,0.271 3.223,1.247 4.611,1.783c0.205,-0.006 0.405,-0.01 0.596,-0.011c1.448,-0.005 2.77,0.548 4.142,1.05c1.77,-0.201 4.433,-1.048 6.136,-1.422c1.505,-0.332 2.86,-1.26 4.524,-0.982c0.98,0.164 2.172,0.862 3.297,1.521c0.065,-0.456 0.176,-0.879 0.396,-1.193c0.687,-0.985 2.733,-1.156 3.39,-2.111c0.632,-0.919 -0.315,-3.02 0.555,-3.622c0.87,-0.603 3.416,0.316 4.665,0.007c1.087,-0.269 2.107,-0.933 2.831,-1.863c0.75,-0.961 1.124,-2.595 1.665,-3.907c0.654,-1.585 1.291,-3.902 2.262,-5.605c1.02,-1.789 2.307,-4.061 3.86,-5.13c0.464,-0.318 1.001,-0.514 1.568,-0.646c0.339,-0.675 0.703,-1.241 1.106,-1.634c1.429,-1.393 4.153,-1.98 7.094,-2.154c0.852,-1.916 1.654,-4.768 2.328,-6.492c0.696,-1.781 0.675,-4.352 2.106,-5.33c1.432,-0.979 4.872,-0.101 6.486,-0.543c1.221,-0.333 2.001,-1.71 3.201,-2.107c0.903,-0.298 2.335,-0.3 3.688,-0.414c0.469,-0.516 0.928,-0.946 1.34,-1.088c0.419,-0.146 0.844,0.16 1.272,0.495c0.035,-0.019 0.07,-0.039 0.104,-0.06c1.432,-0.876 1.637,-3.623 2.825,-4.574c1.179,-0.944 2.888,-0.692 4.304,-1.13c1.475,-0.457 3.615,-0.855 4.551,-1.612c0.734,-0.594 0.269,-2.439 1.064,-2.93c0.907,-0.56 3.094,-0.199 4.38,-0.432c1.143,-0.208 2.204,-0.711 3.334,-0.969c1.211,-0.276 2.647,-0.36 3.932,-0.69c0.581,-0.15 1.162,-0.383 1.75,-0.618Z" style="fill:#23290f;"/></g><g id="hill9" serif:id="hill"><path id="hill10" serif:id="hill" d="M747.51,400l-535.081,0c-0,0 11.891,-7.413 16.229,-9.663c3.451,-1.79 7.518,-4.628 9.698,-6.479c1.455,-1.235 2.167,-3.958 3.379,-4.623c1.153,-0.633 2.732,1.247 3.894,0.632c1.439,-0.761 2.647,-4.146 4.742,-5.202c2.511,-1.265 7.078,-0.988 10.32,-2.387c3.366,-1.453 8.115,-4.616 9.875,-6.329c0.957,-0.932 -0.017,-3.224 0.684,-3.949c0.7,-0.726 2.565,0.292 3.519,-0.404c1.942,-1.415 5.361,-6.003 8.129,-8.091c2.547,-1.921 5.876,-2.593 8.479,-4.437c3.595,-2.547 9.536,-7.909 13.095,-10.847c2.747,-2.267 6.212,-5.59 8.258,-6.78c1.163,-0.676 2.724,0 4.019,-0.362c1.335,-0.374 3.147,-1.174 3.99,-1.879c0.66,-0.553 0.25,-2.074 1.065,-2.355c0.89,-0.308 2.844,0.615 4.275,0.509c2.043,-0.151 5.551,-0.49 7.981,-1.415c2.425,-0.922 4.081,-3.499 6.598,-4.131c3.07,-0.772 9.043,0.176 11.819,-0.496c1.942,-0.471 3.716,-3.071 4.839,-3.538c0.626,-0.261 1.228,0.626 1.898,0.734c0.69,0.112 1.622,0.318 2.239,-0.064c0.617,-0.382 0.589,-2.073 1.464,-2.229c0.962,-0.171 2.827,1.36 4.31,1.201c2.207,-0.237 6.711,-1.35 8.929,-2.622c1.924,-1.104 3.063,-4.291 4.381,-5.01c1.052,-0.573 2.33,0.637 3.527,0.696c0.191,0.01 0.408,0.014 0.645,0.015c0.165,-0.149 0.337,-0.29 0.516,-0.422c3.45,-2.528 10.287,-10.126 16.977,-11.714c9.783,-2.323 27.821,-1.334 41.718,-2.223c19.005,-1.216 54.096,-4.406 72.312,-5.074c12.324,-0.451 28.868,1.32 36.981,1.068c3.991,-0.125 8.004,-3.163 11.697,-2.584c3.694,0.58 6.986,4.639 10.462,6.059c3.297,1.347 7.197,0.901 10.397,2.464c3.213,1.568 6.306,4.208 8.879,6.947c3.661,3.898 10.692,10.604 13.092,16.443c0.248,0.605 0.459,1.288 0.637,2.027c0.194,0.1 0.363,0.207 0.502,0.324c1.15,0.97 0.202,3.296 1.304,4.32c1.119,1.041 3.701,1.51 5.412,1.924c1.583,0.383 3.767,0.027 4.854,0.561c0.935,0.46 0.807,2.056 1.667,2.646c0.941,0.646 2.782,0.868 3.981,1.232c1.069,0.325 2.505,0.454 3.213,0.955c0.626,0.443 0.407,1.636 1.038,2.053c0.631,0.417 2.298,-0.316 2.749,0.451c0.452,0.767 -0.978,3.132 -0.041,4.151c1.074,1.169 5.334,2.127 6.487,2.864c0.453,0.289 -0.072,1.355 0.427,1.556c0.981,0.396 3.847,0.154 5.458,0.82c1.611,0.666 3.037,2.356 4.209,3.178c0.907,0.637 1.964,1.055 2.823,1.755c0.992,0.808 1.792,2.493 3.131,3.094c1.427,0.642 4.372,0.02 5.429,0.754c1.03,0.713 -0.099,2.913 0.918,3.645c1.249,0.899 4.533,0.761 6.575,1.747c2.123,1.025 4.37,3.203 6.169,4.404c1.499,1.001 3.261,2.371 4.625,2.803c1.132,0.359 2.657,-0.616 3.556,-0.206c0.898,0.409 0.883,2.157 1.836,2.661c0.974,0.515 2.746,0.629 4.013,0.429c1.267,-0.199 2.645,-1.979 3.59,-1.626c0.945,0.353 1.137,3.104 2.081,3.745c0.944,0.64 2.54,-0.258 3.584,0.098c1.044,0.357 1.629,1.643 2.679,2.041c1.862,0.706 6.91,1.281 8.496,2.196c0.994,0.574 0.122,2.57 1.015,3.292c1.305,1.054 4.838,2.364 6.813,3.034c1.622,0.55 3.427,0.419 5.042,0.989c1.712,0.604 3.715,1.781 5.229,2.635c1.331,0.751 2.554,1.682 3.852,2.489c1.48,0.919 3.23,2.253 5.026,3.029c1.891,0.817 4.58,0.536 6.324,1.876c2.596,1.994 5.067,4.595 5.067,4.595Z" style="fill:#005d37;"/></g><g id="red-church"><path d="M463.128,241.283l52.987,48.825l-105.974,0l52.987,-48.825Z" style="fill:#bb2a42;"/><path d="M463.128,241.283l21.796,48.825l-43.592,0l21.796,-48.825Z" style="fill:#e42124;"/><path d="M516.115,309.63l0,-19.522l-105.974,0l-0,17.941l105.974,1.581Z" style="fill:#ef8888;"/><path d="M409.986,239.015l16.094,49.993l-0.246,19.951l-32.336,-0.35l0.395,-19.601l16.093,-49.993Z" style="fill:#c63144;"/><path d="M409.896,254.429l8.704,34.968l-0.133,19.562l-17.49,-0.273l0.214,-19.289l8.705,-34.968Z" style="fill:#e7282b;"/><rect x="486.046" y="295.686" width="9.851" height="13.64" style="fill:#bc2d44;"/><path d="M519.959,308.751l-132.643,-2.505l-0,4.264l132.643,2.505l-0,-4.264Z" style="fill:#b1423c;"/></g><g id="Layer4"><path d="M328.155,396.334c9.7,-8.559 20.733,-19.535 28.505,-26.336c5.819,-5.092 11.72,-10.726 18.129,-14.471c6.285,-3.672 13.226,-6.371 20.322,-7.996c7.865,-1.802 17.914,-1.879 26.872,-2.813c10.322,-1.077 24.736,-2.795 35.059,-3.647c8.944,-0.738 20.492,-0.574 26.883,-1.464c3.996,-0.557 7.517,-3.868 11.464,-3.88c3.948,-0.013 7.953,3.816 12.219,3.805c4.392,-0.01 9.629,-3.688 14.129,-3.87c4.388,-0.176 6.261,1.153 8.817,1.705c0.82,0.178 2.547,0.116 4.547,-0.577c2.825,-0.98 4.844,1.082 6.926,1.526c2.703,0.575 7.517,-1.826 11.329,-2.462c8.637,-1.44 30.216,-5.67 40.493,-6.177c7.123,-0.352 14.777,2.876 21.165,3.133c5.741,0.23 11.43,-1.201 17.162,-1.595c6.249,-0.429 13.549,-1.16 20.332,-0.981c8.215,0.217 21.209,2.231 28.959,2.281c5.882,0.038 11.665,-1.622 17.537,-1.979c6.104,-0.371 12.724,-0.364 19.085,-0.248c8.366,0.152 20.796,2.302 31.11,1.163c10.732,-1.184 25.388,-4.144 33.281,-8.272c6.406,-3.351 9.89,-12.322 14.079,-16.497c3.3,-3.289 6.4,-8.37 11.056,-8.553c5.177,-0.203 12.979,6.291 20.004,7.335c8.674,1.29 23.7,0.357 32.037,0.404c5.995,0.033 13.565,-0.566 17.985,-0.126c2.976,0.296 5.548,2.904 8.535,2.764c3.197,-0.15 7.453,-3.864 10.644,-3.661c3.191,0.202 5.278,4.351 8.502,4.876c3.457,0.562 8.98,-2.311 12.237,-1.503c3.132,0.776 4.451,4.982 7.306,6.351c2.855,1.369 7.103,-0.043 9.826,1.863c2.723,1.907 3.637,6.999 6.51,9.575c4.38,3.927 13.819,8.534 19.77,13.989c9.731,8.92 29.637,23.445 38.614,39.53c11.582,20.754 30.879,84.993 30.879,84.993l68.891,71.055l-930.358,-0c0,-0 127.881,-111.644 159.158,-139.24Z" style="fill:#2c4e1c;"/></g><g id="Layer27"><path id="hill11" serif:id="hill" d="M972.472,318.229c1.431,-0.481 3.043,-1.106 4.467,-1.2c2.567,-0.17 5.877,0.599 8.233,0.744c1.963,0.121 4.375,0.429 5.901,0.125c1.266,-0.253 2.179,-1.858 3.251,-1.951c1.073,-0.093 2.009,1.43 3.185,1.392c1.202,-0.039 2.94,-0.824 4.031,-1.628c1.09,-0.804 1.426,-3.034 2.512,-3.199c1.086,-0.165 2.764,2.125 4.005,2.209c1.242,0.085 2.263,-1.489 3.445,-1.7c1.181,-0.211 2.435,0.611 3.644,0.433c2.146,-0.316 7.236,-2.333 9.233,-2.33c1.253,0.002 1.514,2.168 2.751,2.348c1.808,0.264 5.863,-0.361 8.097,-0.765c1.833,-0.331 3.47,-1.345 5.308,-1.655c1.948,-0.33 4.484,-0.308 6.38,-0.322c1.668,-0.012 3.331,0.185 4.998,0.238c1.9,0.06 4.282,0.344 6.403,0.122c2.234,-0.234 4.625,-1.818 7.003,-1.526c3.542,0.435 10.572,3.269 14.245,4.137c2.545,0.602 5.637,1.418 7.797,1.073c2.034,-0.324 3.895,-2.725 5.16,-3.14c0.794,-0.26 1.822,0.116 2.43,0.652c0.755,0.667 0.8,2.86 2.099,3.347c1.706,0.641 6.042,0.411 8.134,0.496c1.471,0.059 2.968,-0.226 4.417,0.01c1.548,0.252 3.499,1.199 4.87,1.504c0.705,0.156 1.432,0.286 2.159,0.332c5.49,-3.14 15.44,-7.997 54.517,-7.219c35.232,0.701 51.861,3.635 59.945,7.618c0.665,0.328 1.312,0.68 1.942,1.052c2.846,0.427 6.029,1.057 7.648,1.193c1.302,0.11 2.868,-0.91 3.917,-0.194c1.314,0.897 2.056,4.212 3.967,5.574c2.202,1.571 6.898,3.306 9.246,3.85c1.578,0.366 3.828,-0.889 4.841,-0.584c0.922,0.277 0.632,1.947 1.24,2.412c0.609,0.465 1.648,0.391 2.41,0.377c0.74,-0.013 1.527,-0.806 2.164,-0.46c1.141,0.62 2.66,3.443 4.686,4.181c2.897,1.055 9.496,0.955 12.695,2.15c2.623,0.979 4.017,3.762 6.497,5.016c2.484,1.257 6.223,2.085 8.407,2.521c1.53,0.305 3.783,-0.334 4.698,0.095c0.837,0.393 0.161,1.841 0.79,2.481c0.802,0.817 2.638,1.864 4.023,2.421c1.344,0.54 3.135,0.089 4.287,0.922c2.029,1.466 5.264,5.242 7.885,7.872c3.395,3.408 8.994,9.55 12.489,12.577c2.53,2.191 6.025,3.323 8.482,5.583c2.671,2.455 5.663,7.477 7.544,9.152c0.925,0.822 3.096,0.076 3.742,0.893c0.646,0.816 -0.757,2.949 0.134,4.006c1.64,1.943 6.287,5.741 9.701,7.652c3.288,1.84 8.266,2.207 10.785,3.811c2.103,1.34 2.889,4.86 4.328,5.816c1.162,0.772 5.019,2.257 5.019,2.257l-658.162,0c-0,0 2.287,-2.155 4.359,-4.293c1.383,-1.427 1.735,-4.223 2.943,-5.052c1.149,-0.788 3.143,0.852 4.305,0.08c1.438,-0.956 2.225,-4.477 4.327,-5.816c2.519,-1.604 7.497,-1.971 10.785,-3.811c3.415,-1.911 8.062,-5.71 9.701,-7.653c0.892,-1.057 2.952,-4.076 3.876,-4.899c1.881,-1.674 4.873,-6.696 7.544,-9.152c2.458,-2.259 5.952,-3.392 8.482,-5.583c3.495,-3.026 9.094,-9.168 12.49,-12.576c2.62,-2.63 5.856,-6.406 7.884,-7.872c1.153,-0.833 2.943,-0.382 4.287,-0.922c1.385,-0.558 3.222,-1.604 4.024,-2.421c0.629,-0.64 -0.047,-2.088 0.79,-2.481c0.914,-0.429 3.167,0.21 4.698,-0.096c2.184,-0.436 5.923,-1.264 8.406,-2.52c2.48,-1.254 3.875,-4.037 6.498,-5.017c3.198,-1.194 9.797,-1.094 12.694,-2.149c2.026,-0.738 3.545,-3.562 4.687,-4.182c0.637,-0.346 1.423,0.447 2.163,0.461c0.763,0.014 1.802,0.087 2.41,-0.378c0.609,-0.464 0.318,-2.135 1.24,-2.412c1.014,-0.304 3.264,0.95 4.842,0.584c2.348,-0.544 7.044,-2.278 9.246,-3.849c1.91,-1.362 2.653,-4.678 3.967,-5.574c1.048,-0.716 2.615,0.303 3.917,0.194c2.716,-0.229 9.836,-1.846 12.377,-1.566c1.508,0.166 1.38,2.961 2.867,3.245c1.762,0.335 5.824,-1.541 7.705,-1.23c1.615,0.268 1.983,2.757 3.582,3.096c1.625,0.344 4.323,-0.536 6.167,-1.03c1.706,-0.456 3.579,-1.854 4.898,-1.932c1.135,-0.067 1.882,1.38 3.016,1.463c1.242,0.091 3.105,-0.634 4.438,-0.916c1.188,-0.251 2.616,-0.855 3.559,-0.774c0.833,0.072 1.274,1.216 2.098,1.263c0.824,0.047 2.003,-1.419 2.847,-0.979c0.844,0.44 0.778,3.203 2.218,3.619c1.652,0.479 6.204,-0.814 7.695,-0.75c0.351,0.015 0.522,0.445 0.727,0.772l0.508,-0.015l1.273,-0.032c1.281,-0.543 2.997,-1.436 4.353,-1.598c1.887,-0.225 4.154,0.529 5.71,0.658c1.205,0.1 2.433,-0.064 3.626,0.114c0.686,0.103 1.446,0.417 2.232,0.689c1.274,0.017 2.507,0.04 3.705,0.071c1.495,-0.616 3.183,-1.774 4.255,-1.691c0.888,0.069 1.252,1.142 1.775,1.916c1.314,0.066 2.574,0.142 3.779,0.225Z" style="fill:#1d510f;"/><g id="schauspielhaus--Layer-" serif:id="schauspielhaus (Layer)"><path d="M1000.96,311.035l9.448,0.625l-0,4.686l-0.009,-0.001l-0.189,12.797l-54.338,-0.813l-0,1.337l-3.18,-0l0,-1.384l-4.647,-0.07l-0,0.93l-42.202,0l0,0.524l-2.307,-0l0,-0.524l-5.792,0l-0,-1.683l-17.336,-0.259l0.216,-18.192l0.081,0.002l-0.061,-5.932l9.4,0.622l5.002,-5.251l2.804,0.224l0,-17.122c0,0 3.327,-1.708 11.463,-2.548l-0.013,-0.162l-0.015,-2.152l-0.021,0.017l-0.024,-3.462l0.021,-0.017l-0.021,-2.967l9.474,-7.956l40.8,6.208l0.061,13.165c11.968,1.728 25.684,4.312 32.322,5.403c3.081,0.506 9.063,2.371 9.063,2.371l-0,21.584Z" style="fill:#fbd739;"/><path d="M948.043,329.142l-50.301,0l-0,-20.676l-12.652,-0.885l0.009,1.638l-4.395,-0.157l-0.062,-5.984l67.401,4.458l-0,21.606Zm13.42,-20.719l48.943,3.237l-0,4.686l-48.943,-3.423l0,-4.5Zm-1.909,-24.262l-0.042,-9.183l-40.8,-6.208l-9.45,7.936l-0.024,-3.462l9.474,-7.956l40.8,6.208l0.058,12.667c11.971,1.729 25.687,4.313 32.325,5.404c3.081,0.506 9.063,2.371 9.063,2.371l-0,3.979c-0,-0 -5.982,-1.865 -9.063,-2.371c-8.386,-1.378 -28.072,-5.14 -41.256,-6.549c-12.572,-1.344 -18.667,-1.598 -27.46,-1.906c-18.38,-0.642 -25.331,2.926 -25.331,2.926l0,-3.979c0,-0 6.951,-3.568 25.331,-2.926c8.793,0.307 14.888,0.562 27.46,1.906c2.744,0.293 5.769,0.689 8.915,1.143Z" style="fill:#280d00;"/><path d="M903.534,308.995c-10.148,-0.633 -17.471,-1.119 -17.471,-1.119l8.981,-9.427l73.979,5.91c-0,-0 1.511,1.545 0.364,2.951c-1.066,1.307 -5.626,4.552 -8.566,4.561c-13.94,0.042 -74.758,-3.995 -74.758,-3.995l69.807,3.909l-0,17.881l-3.18,-0l0,-17.988l-0.085,-0.004c-3.116,-0.117 -6.231,-0.258 -9.346,-0.41c-3.544,-0.172 -7.088,-0.358 -10.631,-0.552c-3.74,-0.204 -7.479,-0.417 -11.218,-0.635c-5.124,-0.299 -10.246,-0.609 -15.368,-0.926l-0.201,-0.012l0,20.527l-2.307,-0l0,-20.671Z" style="fill:#bf8200;"/></g><g id="blaues-haus" serif:id="blaues haus"><path d="M1196.33,254.36l14.961,-1.814l4.385,5.141l0.676,49.714l-19.625,2.273l-0.397,-55.314Z" style="fill:#314a74;"/><path d="M1196.33,254.36l14.961,-1.814l4.371,5.141l2.084,-1.598l-4.105,-5.836l-5.855,-29.694l-7.347,29.098l-4.79,2.597l0.681,2.106Z" style="fill:#292526;"/><path d="M1200.16,276.721c-8.718,-9.168 -19.261,-17.756 -30.416,-26.15c-14.385,18.099 -27.467,34.383 -30.051,36.05l1.571,1.443l-0.493,38.842l57.351,3.653l20.534,-9.962l-0.721,-27.889l-14.993,-17.534l-2.782,1.547Z" style="fill:#55989e;"/><path d="M1200.16,276.721c-8.718,-9.168 -19.261,-17.756 -30.416,-26.15c-14.385,18.099 -27.467,34.383 -30.051,36.05l1.571,1.443l28.715,-35.432c6.44,7.314 13.009,16.546 19.732,28.068l9.378,10.514l16.316,7.158l-15.245,-21.651Z" style="fill:#272129;"/><path d="M1195.58,310.499l-6.826,0l-0,8.558l6.826,-0l-0,-8.558Zm-19.385,0l-6.826,0l-0,8.558l6.826,-0l-0,-8.558Zm-20.663,-1.297l-6.826,-0l0,8.557l6.826,0l0,-8.557Zm2.02,-17.255l-6.826,-0l0,8.557l6.826,0l0,-8.557Zm27.104,-0l-6.826,-0l-0,8.557l6.826,0l-0,-8.557Zm10.924,-0l-6.826,-0l-0,8.557l6.826,0l-0,-8.557Zm-31.252,-13.987l-4.803,0l-0,6.368l4.803,0l0,-6.368Zm14.837,0l-4.803,0l-0,6.368l4.803,0l-0,-6.368Zm-6.606,-16.352l-4.803,-0l-0,6.368l4.803,0l-0,-6.368Z" style="fill:#272129;"/><path d="M1211.02,300.959l2.559,1.094l-0.036,5.361l-2.523,-0.394l-0,-6.061Zm-1.788,-0.764l0,6.555l-2.476,-0.373l-0,-7.24l2.476,1.058Zm-4.264,-1.822l0,7.735l-2.748,-0.414l-0.122,-8.547l2.87,1.226Z" style="fill:#272129;"/><path d="M1206.63,326.386l-0.29,-11.64c1.105,-2.21 2.099,-2.598 3.449,0.042l0.053,10.076l-3.212,1.522Z" style="fill:#272129;"/></g><g id="green-haus"><path d="M1054.63,269.022l0,-3.107l-36.345,0l-2.875,0.789l0.004,2.318l2.871,2.815l-0,-2.815l36.345,-0Zm34.816,-0l36.845,-0l-0,2.694l2.917,-2.694l-0.026,-2.143l-2.891,-0.964l-36.845,0l-0,3.107Zm-12.694,-0l0,-3.107l-9.428,0l-0,3.107l9.428,-0Z" style="fill:#101500;"/><rect x="1018.28" y="269.022" width="108.006" height="73.494" style="fill:#82a582;"/><path d="M1025.23,279.306l2.017,-0l0,-7.643l4.006,0l0,7.643l2.018,-0l-0,-7.643l4.005,0l0,7.643l2.52,-0l-0,-7.643l4.005,0l0,7.643l2.52,-0l0,-7.643l4.006,0l-0,7.643l45.184,-0l-0,-7.643l4.005,0l0,7.643l2.018,-0l0,-7.643l4.006,0l-0,7.643l2.017,-0l0,-7.643l4.006,0l-0,7.643l2.519,-0l0,-7.643l4.006,0l0,7.643l2.52,-0l-0,-7.643l4.005,0l0,7.643l1.721,-0l2.871,-0.842l-0.08,2.78l-2.791,0.737l-108.052,0l-2.791,-0.737l-0.08,-2.78l2.871,0.842l2.942,-0l0,-7.643l4.006,0l-0,7.643Z" style="fill:#101500;"/><path d="M1096.98,318.898l0,-40.25c-17.288,-8.02 -33.529,-7.917 -48.756,0l0,40.25l-12.411,0l-0,18.824c20.408,2.892 44.056,3.656 74.43,0l0,-18.824l-13.263,0Z" style="fill:#3d5224;"/><path d="M1080.72,340.033c-5.608,0.182 -10.962,0.197 -16.096,0.068l-0,-19.192l16.096,0l-0,19.124Zm-19.35,-0.034l-0,-19.09l-8.266,0l0,18.644c2.693,0.19 5.446,0.34 8.266,0.446Zm30.87,-0.557c-2.816,0.196 -5.569,0.351 -8.266,0.467l0,-19l8.266,0l-0,18.533Zm-43.093,-0.199l-0,-18.334l-4.661,0l0,17.887c1.534,0.162 3.087,0.312 4.661,0.447Zm51.711,-0.51c-1.572,0.149 -3.126,0.286 -4.661,0.411l0,-18.235l4.661,0l-0,17.824Zm-58.575,-0.18l-0,-17.644l-4.332,0l-0,17.108c1.427,0.19 2.87,0.368 4.332,0.536Zm65.11,-0.499c-1.459,0.164 -2.903,0.319 -4.332,0.463l0,-17.608l4.332,0l0,17.145Zm8.087,-19.305c-29.337,-1.799 -58.517,-1.786 -87.544,-0l0,1.644c29.084,-1.625 58.263,-1.667 87.544,0l-0,-1.644Zm-64.437,-3.028l0.189,-32.948c-0.993,0.218 -1.983,0.454 -2.966,0.705l-0.014,32.77c0.929,-0.187 1.86,-0.362 2.791,-0.527Zm41.8,-0.249c1.154,0.18 2.311,0.377 3.47,0.588l0.205,-32.827c-1.214,-0.251 -2.422,-0.485 -3.624,-0.7l-0.051,32.939Zm-31.692,-1.104l0,-33.211c-1.498,0.162 -2.982,0.358 -4.453,0.589l-0,33.112c1.481,-0.19 2.965,-0.353 4.453,-0.49Zm22.295,-0.038c1.481,0.127 2.965,0.28 4.454,0.458l-0,-33.053c-1.495,-0.21 -2.98,-0.39 -4.454,-0.542l0,33.137Zm-15.338,-0.4c2.877,-0.1 5.765,-0.1 8.668,-0.001l-0,-33.232c-2.931,-0.132 -5.821,-0.145 -8.668,-0.041l-0,33.274Z" style="fill:#272f11;"/></g></g><g id="turm1" serif:id="turm"><path d="M1114.5,293.399c0,-0 -2.174,-3.792 -2.213,-3.774l-0,-3.957c3.554,-1.66 7.842,-2.63 12.457,-2.63c5.094,0 9.791,1.183 13.543,3.17l-0,3.957c-0.234,0.328 -2.214,3.234 -2.214,3.234l1.979,70.975l-25.53,0l1.978,-70.975Z" style="fill:#ffd101;"/><rect x="1118.51" y="308.034" width="3.063" height="1.978" style="fill:#9b690d;"/><rect x="1118.51" y="310.012" width="3.063" height="8.401" style="fill:#d98c00;"/><path d="M1112.29,289.639c3.548,-1.65 7.182,-2.552 12.457,-2.644c6.532,-0.113 13.543,3.185 13.543,3.185l-2.227,3.246c0,-0 -5.77,-1.885 -11.268,-1.847c-5.197,0.036 -10.292,1.82 -10.292,1.82l-2.213,-3.76Z" style="fill:#d98c00;"/></g><g id="hill12" serif:id="hill"><path id="hill13" serif:id="hill" d="M1340.35,346.276c0.659,-0.259 1.306,-0.549 1.937,-0.877c5.209,-2.704 11.383,-8.813 17.557,-12.478c6.279,-3.727 12.994,-7.621 20.114,-9.883c12.28,-3.901 38.34,-11.089 53.566,-13.523c12.444,-1.99 26.372,-2.046 37.79,-1.083c10.456,0.882 16.809,6.684 25.722,6.86c1.2,0.024 2.965,-0.231 2.965,-0.231l0,84.939l-825.556,0c0,0 1.051,-2.162 7.719,-6.751c6.934,-4.774 17.467,-8.202 24.847,-12.437c7.036,-4.038 7.262,-8.185 14.849,-11.055c8.321,-3.148 22.495,-5.98 32.994,-6.039c6.852,-0.038 10.642,-2.103 17.427,-3.055c8.946,-1.256 29.921,-2.084 40.957,-4.093c11.306,-2.059 17.873,-6.738 28.302,-8.602c9.277,-1.659 23.047,-3.833 31.624,-3.373c8.135,0.437 16.917,4.794 23.478,6.794c5.332,1.625 10.381,4.37 15.892,5.205c6.562,0.993 15.866,2.596 23.476,0.757c8.666,-2.095 18.499,-10.21 28.519,-13.326c10.942,-3.404 24.554,-6.354 37.134,-7.096c15.393,-0.908 42.39,0.489 55.222,1.649c7.44,0.673 14.837,3.026 21.772,5.311c6.82,2.247 14.166,6.88 19.836,8.397c4.573,1.223 9.45,0.663 14.184,0.706c5.485,0.05 12.813,-0.324 18.726,-0.407c5.583,-0.079 11.289,-1.13 16.75,-0.092c5.461,1.038 10.635,4.323 16.016,6.32c7.302,2.71 19.825,9.733 27.798,9.939c7.281,0.188 13.138,-6.384 20.042,-8.705c7.402,-2.487 16.316,-3.888 24.368,-6.222c8.585,-2.488 17.712,-7.541 27.142,-8.707c11.84,-1.464 31.799,-0.222 43.898,-0.077c9.57,0.115 19.453,0.433 28.695,0.948c1.414,0.079 2.827,0.177 4.238,0.287Z" style="fill:#2a1f31;"/></g><g id="Layer22"><path d="M594.275,296.6l-7.839,-8.427l-2.716,2.08l-21.43,-0.215l-2.571,-1.645l-6.68,5.664l1.917,2.635l36.798,0.998l2.521,-1.09Z" style="fill:#536d46;"/><path d="M592.743,296.503l-6.455,-6.854l-2.053,1.528l-22.292,-0.157l-2.125,-1.369l-5.631,4.535l1.493,2.011l1.806,-0.137l-9.211,127.648l44.217,-0l-2.963,-125.906l1.403,-0.138l1.811,-1.161Z" style="fill:#a0b491;"/><path d="M559.719,299.354l-1.399,-0l-9.052,124.354l1.453,-0l8.998,-124.354Zm12.641,-0.006l2.056,0.008l-2.158,124.352l-1.749,-0l1.851,-124.36Zm16.209,0.006l-1.128,-0l2.874,124.354l1.181,-0l-2.927,-124.354Z" style="fill:#536d46;"/><path d="M566.899,299.844l2.055,0.008l-0.668,19.09l-1.749,-0l0.362,-19.098Zm9.93,0l2.056,0.008l0.325,19.09l-1.75,-0l-0.631,-19.098Zm5.462,0l2.055,0.008l0.822,19.09l-1.75,-0l-1.127,-19.098Zm-20.358,0l2.056,0.008l-1.165,19.09l-1.749,-0l0.858,-19.098Z" style="fill:#536d46;"/></g><g id="Layer26"><path d="M146.538,264.842l-0,-0.986c0.032,-4.42 4.974,-4.378 5.043,-0l-0,2.575l2.005,0.632l12.82,3.587l18.898,-8.853l-1.166,27.737l-88.12,-7.573l0.589,-13.84l12.217,1.318l29.601,-7.153l8.113,2.556Z" style="fill:#761a0a;"/><path d="M163.034,279.656c0.646,-1.462 2.109,-2.484 3.81,-2.484c2.297,-0 4.162,1.865 4.162,4.162c-0,0.514 0.184,1.567 0.356,1.609c1.329,0.317 0.791,0.187 2.208,0.533c1.609,-3.977 4.479,-10.995 5.578,-13.228c0.594,-1.204 2.008,-2.145 2.674,-3.012c1.006,-1.309 2.266,-3.05 2.266,-3.552c0,-0.817 -1.045,-1.584 -0.996,-2.4c0.024,-0.392 0.178,-0.904 0.39,-1.43l0.015,-0.04c0.309,-0.839 0.74,-1.715 0.957,-2.237c0.37,-0.889 0.551,-2.352 0.74,-2.474l0.015,-0.024l0.014,0.024c0.189,0.122 0.37,1.585 0.74,2.474c0.221,0.531 0.662,1.426 0.972,2.277c0.213,0.526 0.367,1.038 0.39,1.43c0.049,0.816 -0.996,1.583 -0.996,2.4c-0,0.502 1.261,2.243 2.266,3.552c0.667,0.867 2.081,1.808 2.674,3.012c1.528,3.103 6.477,15.456 6.707,16.03l0.021,0.001l-0.112,11.827l2.23,4.202l-0,26.056l-25.699,0l-2.713,-1.992l-79.675,-0l-0,-40.215l4.579,-18.037l3.799,12.228c11.902,-0.336 23.442,-0.19 36.143,0.644c0.327,0.021 2.216,-1.108 3.366,-1.691c-0.669,-0.739 -1.077,-1.719 -1.077,-2.793c-0,-2.297 1.865,-4.162 4.162,-4.162c2.297,-0 4.162,1.865 4.162,4.162c0,0.13 -0.006,0.258 -0.017,0.385l0.033,0.004c0.117,0.996 0.966,1.77 1.994,1.77c0.841,0 1.561,-0.517 1.861,-1.25l0.029,0.005c0.613,-1.536 2.115,-2.623 3.868,-2.623c2.262,0 4.106,1.809 4.161,4.058l0.057,0.012c-0.001,0.025 -0.001,0.049 -0.001,0.074c-0,1.109 0.9,2.009 2.009,2.009c0.857,-0 1.59,-0.539 1.878,-1.296Zm19.035,-12.664l-0.471,0.615l0.436,-0.567l0.435,-0.58l0.105,-0.143l-0.505,0.675Zm0.842,-1.14l0.14,-0.198l-0.235,0.33l0.095,-0.132Zm0.389,-0.559l0.081,-0.12l-0.179,0.264l0.098,-0.144Zm0.842,-1.523l-0.017,0.066c0.007,-0.023 0.012,-0.045 0.017,-0.066Zm0.003,-0.012c0.001,-0.008 0.003,-0.016 0.004,-0.024c0.001,-0.008 0.002,-0.015 0.003,-0.023l-0.007,0.047Zm0.005,-0.188c-0.001,-0.009 -0.002,-0.017 -0.003,-0.026c-0.001,-0.009 -0.003,-0.017 -0.004,-0.026l0.007,0.052Zm-0.083,-0.334l0.052,0.163c-0.014,-0.054 -0.031,-0.109 -0.052,-0.163Zm2.776,-0.87c-0.052,0.082 -0.105,0.163 -0.157,0.244c-0.052,0.082 -0.102,0.164 -0.15,0.245c0.095,-0.163 0.203,-0.326 0.307,-0.489Zm-3.382,-0.185l0.057,0.095c-0.019,-0.031 -0.038,-0.063 -0.057,-0.095Zm3.496,0c0.011,-0.019 0.023,-0.039 0.034,-0.059c0.011,-0.019 0.022,-0.039 0.033,-0.058l-0.067,0.117Zm-3.655,-0.296l0.034,0.072c-0.012,-0.024 -0.023,-0.048 -0.034,-0.072Zm3.954,-0.487l-0.001,0.009l0.003,-0.028l-0.002,0.019Zm0.001,-0.151l-0.001,-0.019l0.002,0.037c-0,-0.006 -0,-0.012 -0.001,-0.018Zm-4.092,-0.078l-0.003,0.04l0.003,-0.04Zm0.018,-0.16l-0.003,0.022l0.007,-0.046l-0.004,0.024Zm0.027,-0.169l-0.007,0.039l0.013,-0.069l-0.006,0.03Zm0.093,-0.408l0.017,-0.063l-0.063,0.249c0.014,-0.061 0.029,-0.123 0.046,-0.186Zm3.836,0.096c-0.007,-0.029 -0.014,-0.057 -0.022,-0.086l0.022,0.086Zm-3.739,-0.428l-0.044,0.145c0.014,-0.048 0.029,-0.097 0.044,-0.145Z" style="fill:#f6af90;"/><path d="M133.107,201.641l-5.377,-11.978l-6.087,10.987l-2.207,9.159l-6.946,14.137l-3.554,14.696l-3.527,4.122l0.339,14.105l2.676,3.171l-0.692,79.351l31.072,0.272l2.485,-82.23l4.139,-5.406l-0.622,-19.155l-2.619,-14.465l-2.819,8.297l-3.211,-3.579l-0.668,-13.048l-2.382,-8.436Z" style="fill:#f73c2c;"/><path d="M121.587,242.294l-1.954,-0.885c0,0 -3.314,-1.429 -4.579,-1.386c-1.144,0.039 -3.013,1.647 -3.013,1.647l0.079,-3.083l-3.184,0.055l3.554,-14.696l6.946,-14.137c0,0 0.845,-0.281 0.91,0.015c0.933,4.247 0.984,6.253 6.225,6.805c3.308,0.348 6.183,-0.691 7.981,-6.568c0.092,-0.298 0.937,0.016 0.937,0.016l0.668,13.048l3.211,3.579l2.819,-8.297l2.619,14.465l0.622,19.155l-4.139,5.406l1.902,-5.027c0,-0 -0.24,-0.212 -0.223,-0.533c0.07,-1.326 -0.358,-3.73 -1.288,-4.198c-1.002,-0.503 -2.889,0.861 -4.153,1.325c-0.317,0.116 -0.92,0.095 -0.92,0.095l-2.068,-0.936l-0,-10.63l-2.094,-0.491l-0,10.172l-1.096,-0.496l0,-9.933l-2.48,-0.581l0,9.391l-1.096,-0.496l0,-9.152l-2.48,-0.581l0,8.61l-1.095,-0.496l-0,-8.371l-2.611,-0.612l0,7.801Zm1.303,-12.568l5.121,-11.288l6.34,13.975l-11.461,-2.687Zm10.217,-28.085l-5.377,-11.978l-6.087,10.987l11.464,0.991Z" style="fill:#7b1b13;"/><path id="windows" d="M176.433,328.364l6.599,0l-0,-19.366c0.041,-4.05 -6.683,-3.729 -6.599,-0l0,19.366Zm-42.616,-19.068c0.023,-5.74 -13.4,-5.722 -13.463,-0.996l-0,13.235l13.463,0.996l0,-13.235Zm54.074,9.727l5.831,0.635l0.767,0l0,-9.664c0.041,-4.05 -6.683,-3.728 -6.598,0l-0,9.029Zm-24.908,-1.993l5.831,0.636l0.768,-0l-0,-9.664c0.041,-4.051 -6.683,-3.729 -6.599,-0l0,9.028Zm-11.457,-1.248l6.599,0.719l-0,-9.496c0.04,-4.05 -6.683,-3.728 -6.599,0l-0,8.777Zm-10.461,-1.139l6.598,0.719l0,-9.353c0.041,-4.05 -6.682,-3.729 -6.598,-0l-0,8.634Zm39.353,-14.624l10.584,1.208l0,-10.796c0.041,-4.525 -10.668,-4.664 -10.584,-0.498l0,10.086Zm-17.435,-1.918l5.831,0.635l0.768,0l-0,-9.664c0.041,-4.05 -6.683,-3.728 -6.599,0l0,9.029Zm-29.166,-12.715c0.023,-5.741 -13.4,-5.723 -13.463,-0.997l-0,13.235l13.463,0.997l0,-13.235Zm17.709,11.467l6.599,0.719l-0,-9.496c0.04,-4.05 -6.683,-3.729 -6.599,-0l-0,8.777Zm-10.461,-1.139l6.598,0.718l0,-9.353c0.041,-4.05 -6.682,-3.728 -6.598,0l-0,8.635Zm-11.907,-27.61l0,5.763l4.659,0.344l0,-5.762c-0.054,-2.879 -4.62,-2.887 -4.659,-0.345Zm-8.757,-0.66l0,5.762l4.659,0.345l0,-5.763c-0.054,-2.879 -4.62,-2.886 -4.659,-0.344Z" style="fill:#861a14;"/></g><g id="hill14" serif:id="hill"><path d="M611.582,410l-656.732,0l-4.85,-170.997c-0,-0 3.271,-0.234 4.283,0.37c1.013,0.603 0.588,2.591 1.599,3.265c1.125,0.751 3.582,0.441 5.153,1.238c1.693,0.86 3.701,3.136 5.005,3.918c0.833,0.499 2.005,0.241 2.818,0.77c0.871,0.566 1.438,1.933 2.404,2.625c1.26,0.902 3.23,2.416 5.155,2.786c2.254,0.433 6.005,-0.059 8.367,-0.188c1.942,-0.106 4.021,-0.857 5.806,-0.586c1.779,0.271 3.126,1.947 4.905,2.212c2.17,0.324 5.604,-0.935 8.111,-0.27c2.507,0.666 4.642,3.108 6.932,4.264c2.173,1.097 4.407,2.217 6.807,2.672c2.4,0.454 5.647,0.06 7.598,0.057c1.369,-0.002 2.746,-0.213 4.106,-0.075c2.242,0.228 6.702,1.371 9.349,1.44c2.201,0.058 4.573,-0.669 6.534,-1.023c1.756,-0.317 3.885,-0.493 5.237,-1.101c1.17,-0.526 1.927,-2.365 2.879,-2.546c0.951,-0.182 1.765,1.4 2.83,1.456c1.217,0.064 3.18,-1.554 4.476,-1.07c1.296,0.483 2.062,3.105 3.3,3.974c1.171,0.822 3.105,0.574 4.127,1.236c0.951,0.616 1.1,2.214 2.005,2.733c0.904,0.519 2.505,-0.297 3.423,0.381c1.258,0.929 2.621,3.599 4.124,5.194c1.501,1.591 8.712,20.643 9.897,21.375c0.625,0.386 1.751,-0.271 2.216,0.015c0.465,0.287 0.089,1.349 0.574,1.704c0.544,0.399 2.201,0.268 2.693,0.692c0.472,0.407 -0.156,1.556 0.257,1.852c0.414,0.296 1.59,-0.454 2.224,-0.078c0.634,0.377 0.838,1.758 1.582,2.337c0.786,0.61 2.553,0.79 3.13,1.327c0.47,0.437 -0.086,1.411 0.335,1.894c0.575,0.661 2.503,0.988 3.118,2.068c0.824,1.445 1.035,4.832 1.824,6.604c0.673,1.513 2.45,2.436 2.911,4.027c0.139,0.481 0.166,1.049 0.142,1.654c3.669,0.861 7.773,1.488 11.081,1.873c4.422,0.515 9.807,-1.217 13.354,0.155c3.518,1.362 4.741,6.41 7.925,8.079c3.184,1.669 7.708,0.434 11.179,1.936c4.137,1.789 10.077,4.73 13.642,8.801c4.323,4.935 8.667,16.533 12.293,20.81c2.291,2.703 7.019,2.28 9.46,4.848c3.349,3.524 4.595,13.925 10.632,16.295c7.399,2.904 25.062,-1.085 33.762,1.133c5.439,1.387 11.75,-1.325 12.238,-1.133c7.399,2.904 25.062,-1.085 33.762,1.133c4.955,1.264 8.399,6.172 12.484,9.382c2.109,-0.885 4.116,-2.572 6.337,-2.327c2.802,0.308 6.622,1.986 9.977,3.76c6.376,-1.747 13.126,-4.457 17.046,-4.695c3.616,-0.22 7.028,3.618 10.191,3.774c3.074,0.152 5.727,-3.176 8.786,-2.839c3.558,0.392 8.757,2.991 12.564,5.191c3.759,2.173 6.339,7.321 10.275,8.008c3.935,0.687 9.096,-2.027 13.338,-3.884c5.549,-2.429 13.887,-6.203 19.955,-10.688c7.27,-5.373 16.895,-17.739 23.666,-21.55c4.94,-2.782 11.353,-2.187 16.956,-1.321c6.211,0.959 14.75,6.732 20.312,7.078c4.652,0.29 8.708,-3.326 13.058,-5c6.333,-2.436 19.037,-8.536 24.941,-9.619c3.586,-0.658 7.137,3.122 10.481,3.122c3.344,0 6.261,-3.637 9.581,-3.122c5.938,0.922 18.643,4.67 26.05,8.653c7.014,3.771 11.805,10.772 18.395,15.243c4.724,3.205 10.889,11.147 16.607,14.213c3.041,1.631 4.566,-2.636 8.42,0.001c4.902,3.353 8.664,8.583 14.177,10.79c5.273,2.11 10.421,3.694 10.421,3.694Z" style="fill:#232e1b;"/></g><path d="M611.582,400l-656.732,0l0.15,-153.997c-0,-0 3.271,-0.234 4.283,0.37c1.013,0.603 0.588,2.591 1.599,3.265c1.125,0.751 3.582,0.441 5.153,1.238c1.693,0.86 3.701,3.136 5.005,3.918c0.833,0.499 2.005,0.241 2.818,0.77c0.871,0.566 1.438,1.933 2.404,2.625c1.26,0.902 3.23,2.416 5.155,2.786c2.254,0.433 6.005,-0.059 8.367,-0.188c1.942,-0.106 4.021,-0.857 5.806,-0.586c1.779,0.271 3.126,1.947 4.905,2.212c2.17,0.324 5.604,-0.935 8.111,-0.27c2.507,0.666 4.642,3.108 6.932,4.264c2.173,1.097 4.407,2.217 6.807,2.672c2.4,0.454 5.647,0.06 7.598,0.057c1.369,-0.002 2.746,-0.213 4.106,-0.075c2.242,0.228 6.702,1.371 9.349,1.44c2.201,0.058 4.573,-0.669 6.534,-1.023c1.756,-0.317 3.885,-0.493 5.237,-1.101c1.17,-0.526 1.927,-2.365 2.879,-2.546c0.951,-0.182 1.765,1.4 2.83,1.456c1.217,0.064 3.18,-1.554 4.476,-1.07c1.296,0.483 2.062,3.105 3.3,3.974c1.171,0.822 3.105,0.574 4.127,1.236c0.951,0.616 1.1,2.214 2.005,2.733c0.904,0.519 2.505,-0.297 3.423,0.381c1.258,0.929 2.621,3.599 4.124,5.194c1.501,1.591 3.712,3.643 4.897,4.375c0.625,0.386 1.751,-0.271 2.216,0.015c0.465,0.287 0.089,1.349 0.574,1.704c0.544,0.399 2.201,0.268 2.693,0.692c0.472,0.407 -0.156,1.556 0.257,1.852c0.414,0.296 1.59,-0.454 2.224,-0.078c0.634,0.377 0.838,1.758 1.582,2.337c0.786,0.61 2.553,0.79 3.13,1.327c0.47,0.437 -0.086,1.411 0.335,1.894c0.575,0.661 2.503,0.988 3.118,2.068c0.824,1.445 1.035,4.832 1.824,6.604c0.673,1.513 2.45,2.436 2.911,4.027c0.139,0.481 0.166,1.049 0.142,1.654c3.669,0.861 7.773,1.488 11.081,1.873c4.422,0.515 9.807,-1.217 13.354,0.155c3.518,1.362 4.741,6.41 7.925,8.079c3.184,1.669 7.708,0.434 11.179,1.936c4.137,1.789 10.077,4.73 13.642,8.801c4.323,4.935 8.667,16.533 12.293,20.81c2.291,2.703 7.019,2.28 9.46,4.848c3.349,3.524 4.595,13.925 10.632,16.295c7.399,2.904 25.062,-1.085 33.762,1.133c5.439,1.387 11.75,-1.325 12.238,-1.133c7.399,2.904 25.062,-1.085 33.762,1.133c4.955,1.264 8.399,6.172 12.484,9.382c2.109,-0.885 4.116,-2.572 6.337,-2.327c2.802,0.308 6.622,1.986 9.977,3.76c6.376,-1.747 13.126,-4.457 17.046,-4.695c3.616,-0.22 7.028,3.618 10.191,3.774c3.074,0.152 5.727,-3.176 8.786,-2.839c3.558,0.392 8.757,2.991 12.564,5.191c3.759,2.173 6.339,7.321 10.275,8.008c3.935,0.687 9.096,-2.027 13.338,-3.884c5.549,-2.429 13.887,-6.203 19.955,-10.688c7.27,-5.373 16.895,-17.739 23.666,-21.55c4.94,-2.782 11.353,-2.187 16.956,-1.321c6.211,0.959 14.75,6.732 20.312,7.078c4.652,0.29 8.708,-3.326 13.058,-5c6.333,-2.436 19.037,-8.536 24.941,-9.619c3.586,-0.658 7.137,3.122 10.481,3.122c3.344,0 6.261,-3.637 9.581,-3.122c5.938,0.922 18.643,4.67 26.05,8.653c7.014,3.771 11.805,10.772 18.395,15.243c4.724,3.205 10.889,11.147 16.607,14.213c3.041,1.631 4.566,-2.636 8.42,0.001c4.902,3.353 8.664,8.583 14.177,10.79c5.273,2.11 10.421,3.694 10.421,3.694Z" style="fill:#232e1b;"/></g></g><g id="turm2" serif:id="turm"></g></svg>