<?xml version="1.0" encoding="UTF-8" standalone="no"?><!DOCTYPE svg PUBLIC "-//W3C//DTD SVG 1.1//EN"
        "http://www.w3.org/Graphics/SVG/1.1/DTD/svg11.dtd">
<svg width="100%" height="100%" viewBox="0 0 995 267" version="1.1" xmlns="http://www.w3.org/2000/svg"
     xml:space="preserve" xmlns:serif="http://www.serif.com/"
     style="fill-rule:evenodd;clip-rule:evenodd;stroke-linejoin:round;stroke-miterlimit:2;"><path id="_0600" serif:id="0600" d="M269.025,13.879l0.176,0.003c4.816,0.045 9.064,-0.538 11.61,-1.261c1.384,-0.394 1.26,-1.34 2.275,-1.662c1.014,-0.322 2.439,-0.06 3.812,-0.27c2.795,-0.426 7.777,-2.818 11.763,-3.48c3.667,-0.61 8.409,0.034 12.154,-0.495c5.174,-0.732 13.755,-2.843 18.887,-3.893c3.961,-0.811 8.971,-2.195 11.908,-2.408c1.669,-0.121 3.864,0.958 5.712,1.129c1.904,0.177 4.499,0.188 5.714,-0.069c0.952,-0.201 0.414,-1.536 1.577,-1.471c1.272,0.072 4.018,1.482 6.051,1.902c2.903,0.6 7.889,1.568 11.362,1.698c3.468,0.13 5.89,-1.306 9.479,-0.916c4.376,0.475 12.823,3.317 16.781,3.766c2.768,0.315 5.359,-1.098 6.965,-1.07c0.896,0.016 1.725,0.923 2.672,1.243c0.975,0.33 2.292,0.82 3.178,0.737c0.887,-0.082 0.894,-1.417 2.14,-1.231c1.37,0.204 3.972,2.059 6.081,2.456c3.137,0.59 9.558,1.301 12.741,1.085c1.503,-0.102 2.693,-0.77 3.771,-1.373c0.936,-0.648 1.893,-1.171 2.962,-1.339c3.048,-0.478 6.709,1.928 9.748,1.879c3.039,-0.049 5.333,-2.641 8.486,-2.173c3.279,0.486 7.781,4.36 11.187,5.088c3.178,0.679 6.183,-1.62 9.249,-0.72c3.065,0.899 6.161,4.964 9.144,6.118c2.788,1.079 5.868,0.047 8.753,0.809c4.286,1.131 11.289,4.041 16.962,5.981c7.889,2.697 21.853,8.289 30.37,10.203c6.898,1.55 15.888,-0.563 20.729,1.279c4.353,1.656 6.016,6.324 8.315,9.77c2.917,4.373 3.973,11.964 9.19,16.471c6.429,5.553 19.539,12.481 29.384,16.847c9.462,4.198 21.742,6.723 29.684,9.354c6.039,2 12.296,4.163 17.97,6.429c5.46,2.18 10.509,5.268 16.077,7.167c7.335,2.502 20.114,5.31 27.93,7.845c6.453,2.093 13.169,5.009 18.966,7.365c5.317,2.16 10.336,5.052 15.818,6.767c6.099,1.908 14.136,2.094 20.778,4.68c9.583,3.731 28.918,13.84 36.72,17.704c3.443,1.705 7.394,5.009 10.091,5.48c2.077,0.364 4.499,-0.458 6.924,1.172c1.717,1.153 3.333,1.763 4.152,1.904c2.553,0.44 4.654,0.098 8.755,1.662c4.208,1.605 8.239,5.964 12.386,7.41c4.028,1.405 8.767,-0.035 12.493,1.267c3.726,1.301 6.228,4.835 9.865,6.544c5.817,2.734 16.768,6.398 25.035,9.857c9.542,3.994 22.733,9.95 32.217,14.105c8.23,3.606 17.706,6.953 24.688,10.824c6.3,3.493 12.185,7.706 17.209,12.405c5.122,4.791 9.293,10.775 13.522,16.341c5.649,7.435 14.485,18.552 20.369,28.27c1.561,2.578 2.069,3.669 2.069,3.669l-546.325,-189.387l-0,55.103l-339.756,-1.89l-96.91,0.444c0,-0 -5.983,0.826 -8.135,-9.469c-1.427,-6.822 -2.952,-14.951 -2.904,-20.707c0.04,-4.731 2,-10.619 3.192,-13.829c0.781,-2.101 3.248,-3.776 3.962,-5.432c0.596,-1.383 -0.083,-3.245 0.322,-4.505c0.38,-1.178 1.288,-2.316 2.11,-3.056c0.78,-0.702 2.068,-0.66 2.826,-1.385c0.853,-0.816 1.691,-2.632 2.292,-3.511c0.414,-0.605 0.749,-1.296 1.313,-1.765c0.589,-0.489 1.649,-0.563 2.222,-1.174c0.812,-0.864 1.649,-3.194 2.649,-4.012c0.895,-0.732 2.262,-0.76 3.353,-0.893c1.057,-0.129 2.195,0.418 3.193,0.097c0.998,-0.321 2.207,-1.19 2.796,-2.022c0.59,-0.832 0.17,-2.305 0.739,-2.97c0.569,-0.665 1.777,-0.699 2.676,-1.022c1.324,-0.475 3.661,-0.896 5.269,-1.829c1.68,-0.974 3.07,-3.196 4.812,-4.02c1.721,-0.814 2.928,-3.961 4.204,-4.603c1.059,-0.533 6.173,-5.211 8.176,-5.927c0.902,-0.323 4.743,-2.051 5.201,-2.963c0.731,-1.453 2.412,-1.527 3.743,-2.463c1.324,-0.931 2.254,-3.423 3.464,-4.42c1.111,-0.914 2.522,-0.339 3.303,-1.078c1.628,-1.54 4.581,-1.954 5.953,-3.124c1.145,-0.977 1.359,-2.947 2.279,-3.899c0.861,-0.89 2.178,-1.51 3.243,-1.811c1.009,-0.285 2.146,0.322 3.146,0.006c1.126,-0.355 2.68,-1.614 3.607,-2.138c0.639,-0.36 1.245,-0.832 1.958,-1.003c0.745,-0.179 1.728,0.222 2.512,-0.072c1.11,-0.417 2.89,-2.138 4.148,-2.43c1.127,-0.261 2.365,0.316 3.403,0.679c1.005,0.351 1.784,1.344 2.822,1.497c1.037,0.153 2.506,-0.093 3.402,-0.579c0.896,-0.486 1.17,-1.993 1.974,-2.339c0.804,-0.345 1.903,0.158 2.852,0.265c1.398,0.159 3.68,0.813 5.535,0.687c1.938,-0.133 4.166,-1.512 6.093,-1.482c1.903,0.029 4.036,1.673 5.464,1.66c1.186,-0.01 1.93,-1.587 3.106,-1.735c1.831,-0.231 5.765,0.108 7.878,0.349c1.631,0.187 3.187,1.399 4.802,1.099c1.7,-0.316 3.792,-1.949 5.401,-2.995c1.502,-0.976 2.54,-2.927 4.257,-3.279c1.717,-0.353 4.027,0.976 6.048,1.164c2.017,0.188 4.438,0.767 6.079,-0.035c1.642,-0.802 2.149,-4.346 3.77,-4.777c1.62,-0.431 3.963,1.478 5.955,2.191c2.025,0.725 4.083,1.619 6.195,2.159c2.112,0.54 4.29,0.982 6.477,1.081c2.981,0.134 7.607,-0.381 11.41,-0.276c4.033,0.11 8.555,0.759 12.789,0.938c4.2,0.177 8.554,0.7 12.612,0.132c4.045,-0.566 8.202,-2.981 11.731,-3.538c3.109,-0.49 6.352,-0.405 9.441,0.199c4.187,0.82 11.072,2.968 15.682,4.718c1.694,0.643 3.463,1.579 5.183,2.522Z" style="fill:#a39a0d;"/></svg>